G04*
G04 #@! TF.GenerationSoftware,Altium Limited,Altium Designer,23.1.1 (15)*
G04*
G04 Layer_Physical_Order=1*
G04 Layer_Color=255*
%FSLAX44Y44*%
%MOMM*%
G71*
G04*
G04 #@! TF.SameCoordinates,DFD0DF4F-A88A-4072-B725-2B201FFE6AA2*
G04*
G04*
G04 #@! TF.FilePolarity,Positive*
G04*
G01*
G75*
%ADD17R,1.0200X3.7400*%
%ADD18R,1.0100X1.3800*%
%ADD19R,1.1500X1.4000*%
%ADD20R,0.8000X0.8000*%
%ADD21R,1.3000X1.1000*%
%ADD22R,0.8000X0.8000*%
%ADD23O,0.6000X1.9500*%
%ADD24O,1.9500X0.6000*%
%ADD25R,1.3800X1.0100*%
%ADD36R,1.4000X1.4000*%
%ADD37C,1.4000*%
%ADD38R,1.5700X1.5700*%
%ADD39C,1.5700*%
%ADD52R,1.4000X1.4000*%
%ADD57R,10.3700X8.5600*%
%ADD58C,3.0000*%
%ADD59C,0.3810*%
%ADD60C,1.5500*%
%ADD61R,1.5500X1.5500*%
%ADD62C,1.3700*%
%ADD63R,1.3700X1.3700*%
%ADD64C,1.4980*%
%ADD65R,1.4980X1.4980*%
%ADD66C,1.5800*%
%ADD67R,1.5800X1.5800*%
%ADD68C,1.6000*%
G04:AMPARAMS|DCode=69|XSize=1.6mm|YSize=1.6mm|CornerRadius=0.4mm|HoleSize=0mm|Usage=FLASHONLY|Rotation=270.000|XOffset=0mm|YOffset=0mm|HoleType=Round|Shape=RoundedRectangle|*
%AMROUNDEDRECTD69*
21,1,1.6000,0.8000,0,0,270.0*
21,1,0.8000,1.6000,0,0,270.0*
1,1,0.8000,-0.4000,-0.4000*
1,1,0.8000,-0.4000,0.4000*
1,1,0.8000,0.4000,0.4000*
1,1,0.8000,0.4000,-0.4000*
%
%ADD69ROUNDEDRECTD69*%
%ADD70C,1.9500*%
G04:AMPARAMS|DCode=71|XSize=1.95mm|YSize=1.95mm|CornerRadius=0.4875mm|HoleSize=0mm|Usage=FLASHONLY|Rotation=270.000|XOffset=0mm|YOffset=0mm|HoleType=Round|Shape=RoundedRectangle|*
%AMROUNDEDRECTD71*
21,1,1.9500,0.9750,0,0,270.0*
21,1,0.9750,1.9500,0,0,270.0*
1,1,0.9750,-0.4875,-0.4875*
1,1,0.9750,-0.4875,0.4875*
1,1,0.9750,0.4875,0.4875*
1,1,0.9750,0.4875,-0.4875*
%
%ADD71ROUNDEDRECTD71*%
%ADD72C,3.5000*%
%ADD73R,1.0000X1.0000*%
%ADD74C,1.0000*%
%ADD75C,1.2700*%
G36*
X876584Y1090930D02*
X875608Y1090526D01*
X872409Y1088388D01*
X869688Y1085667D01*
X867551Y1082468D01*
X866078Y1078914D01*
X865328Y1075140D01*
Y1071293D01*
X866078Y1067519D01*
X867551Y1063965D01*
X869688Y1060766D01*
X872409Y1058045D01*
X875608Y1055908D01*
X879163Y1054435D01*
X882936Y1053685D01*
X886784D01*
X890557Y1054435D01*
X894112Y1055908D01*
X897311Y1058045D01*
X900031Y1060766D01*
X900485Y1061444D01*
X901700Y1061075D01*
Y1050189D01*
Y1041920D01*
Y1029074D01*
Y1017014D01*
Y1005407D01*
Y1000706D01*
Y990578D01*
Y976602D01*
Y960774D01*
Y954485D01*
Y934798D01*
Y932573D01*
Y921440D01*
X901700Y902090D01*
Y887478D01*
Y851942D01*
Y823980D01*
Y821963D01*
Y791678D01*
Y732790D01*
X778510D01*
X757124Y753497D01*
Y1022350D01*
X756819Y1023886D01*
X755948Y1025188D01*
X730548Y1050588D01*
X729246Y1051459D01*
X727710Y1051764D01*
X602996D01*
X601460Y1051459D01*
X600158Y1050588D01*
X592792Y1043222D01*
X591921Y1041920D01*
X591616Y1040384D01*
Y1031559D01*
X590176Y1030727D01*
X588523Y1029074D01*
X587353Y1027048D01*
X586748Y1024789D01*
Y1022451D01*
X587353Y1020192D01*
X588523Y1018166D01*
X590176Y1016513D01*
X592202Y1015343D01*
X594461Y1014738D01*
X596799D01*
X599058Y1015343D01*
X601084Y1016513D01*
X602737Y1018166D01*
X603907Y1020192D01*
X604512Y1022451D01*
Y1024789D01*
X603907Y1027048D01*
X602737Y1029074D01*
X601084Y1030727D01*
X599644Y1031559D01*
Y1038721D01*
X604659Y1043736D01*
X726047D01*
X749096Y1020687D01*
Y762898D01*
X747926Y762403D01*
X720798Y788670D01*
X638646D01*
X638160Y789843D01*
X665778Y817462D01*
X666649Y818764D01*
X666954Y820300D01*
Y999490D01*
X666649Y1001026D01*
X665778Y1002328D01*
X641648Y1026458D01*
X640346Y1027329D01*
X638810Y1027634D01*
X629912D01*
Y1032502D01*
X612148D01*
Y1014738D01*
X629912D01*
Y1019606D01*
X637147D01*
X658926Y997827D01*
Y983170D01*
X655320D01*
Y976630D01*
X652780D01*
Y974090D01*
X646240D01*
Y970090D01*
X648766D01*
Y932573D01*
X623253Y907060D01*
X622080Y907546D01*
Y914660D01*
X570230D01*
Y871860D01*
X622080D01*
Y897139D01*
X623023D01*
X624560Y897445D01*
X625862Y898315D01*
X655618Y928072D01*
X656489Y929374D01*
X656794Y930910D01*
Y970090D01*
X658926D01*
Y821963D01*
X625633Y788670D01*
X432374D01*
X399810Y757124D01*
X398272D01*
X396736Y756819D01*
X395434Y755948D01*
X385060Y745575D01*
X383898Y745956D01*
X383790Y746040D01*
Y1027083D01*
X399173Y1042466D01*
X557446D01*
X566216Y1033696D01*
Y1031559D01*
X564776Y1030727D01*
X563123Y1029074D01*
X561953Y1027048D01*
X561348Y1024789D01*
Y1022451D01*
X561953Y1020192D01*
X563123Y1018166D01*
X564776Y1016513D01*
X566802Y1015343D01*
X569061Y1014738D01*
X571399D01*
X573658Y1015343D01*
X575684Y1016513D01*
X577337Y1018166D01*
X578507Y1020192D01*
X579112Y1022451D01*
Y1024789D01*
X578507Y1027048D01*
X577337Y1029074D01*
X575684Y1030727D01*
X574244Y1031559D01*
Y1035358D01*
X573939Y1036895D01*
X573068Y1038197D01*
X561947Y1049318D01*
X560644Y1050189D01*
X559108Y1050494D01*
X397510D01*
X395974Y1050189D01*
X394672Y1049318D01*
X376937Y1031584D01*
X376067Y1030282D01*
X375762Y1028746D01*
Y733827D01*
X373380Y731520D01*
X325717D01*
X316751Y740486D01*
X317063Y741026D01*
X317653Y743230D01*
X308150D01*
Y733727D01*
X310354Y734317D01*
X311122Y734761D01*
X313190Y732693D01*
X312704Y731520D01*
X233680D01*
Y1064782D01*
X234950Y1065035D01*
X235421Y1063898D01*
X237558Y1060699D01*
X240279Y1057979D01*
X243478Y1055841D01*
X247033Y1054369D01*
X250806Y1053618D01*
X254654D01*
X258427Y1054369D01*
X261982Y1055841D01*
X265181Y1057979D01*
X267901Y1060699D01*
X270039Y1063898D01*
X271511Y1067453D01*
X272262Y1071226D01*
Y1075074D01*
X271511Y1078847D01*
X270039Y1082402D01*
X267901Y1085601D01*
X265181Y1088322D01*
X261982Y1090459D01*
X260845Y1090930D01*
X261098Y1092200D01*
X876332D01*
X876584Y1090930D01*
D02*
G37*
%LPC*%
G36*
X356908Y1029742D02*
X354292D01*
X351766Y1029065D01*
X349502Y1027758D01*
X347652Y1025908D01*
X346345Y1023644D01*
X345668Y1021118D01*
Y1018502D01*
X346345Y1015976D01*
X347652Y1013712D01*
X349502Y1011862D01*
X351766Y1010555D01*
X354292Y1009878D01*
X356908D01*
X359434Y1010555D01*
X361698Y1011862D01*
X363548Y1013712D01*
X364855Y1015976D01*
X365532Y1018502D01*
Y1021118D01*
X364855Y1023644D01*
X363548Y1025908D01*
X361698Y1027758D01*
X359434Y1029065D01*
X356908Y1029742D01*
D02*
G37*
G36*
X289332D02*
X269468D01*
Y1009878D01*
X289332D01*
Y1029742D01*
D02*
G37*
G36*
X650240Y983170D02*
X646240D01*
Y979170D01*
X650240D01*
Y983170D01*
D02*
G37*
G36*
X503071Y1021080D02*
X494030D01*
X484989D01*
X485280Y1019996D01*
X486320Y1018193D01*
X486086Y1017014D01*
Y980884D01*
X483560D01*
Y976884D01*
X490100D01*
X496640D01*
Y980884D01*
X494114D01*
Y1014230D01*
X495266D01*
X497654Y1014870D01*
X499796Y1016106D01*
X501544Y1017854D01*
X502780Y1019996D01*
X503071Y1021080D01*
D02*
G37*
G36*
X832131Y992932D02*
X829029D01*
X826032Y992129D01*
X823346Y990578D01*
X821152Y988384D01*
X819601Y985698D01*
X818798Y982701D01*
Y979599D01*
X819601Y976602D01*
X821152Y973916D01*
X823346Y971722D01*
X826032Y970171D01*
X829029Y969368D01*
X832131D01*
X835128Y970171D01*
X837814Y971722D01*
X840008Y973916D01*
X841559Y976602D01*
X842362Y979599D01*
Y982701D01*
X841559Y985698D01*
X840008Y988384D01*
X837814Y990578D01*
X835128Y992129D01*
X832131Y992932D01*
D02*
G37*
G36*
X306675Y980572D02*
X296925D01*
X295122Y980334D01*
X293442Y979638D01*
X291999Y978531D01*
X290892Y977088D01*
X290196Y975408D01*
X289959Y973605D01*
Y963855D01*
X290196Y962052D01*
X290892Y960372D01*
X291999Y958929D01*
X293442Y957822D01*
X295122Y957126D01*
X296925Y956889D01*
X306675D01*
X308478Y957126D01*
X310159Y957822D01*
X311601Y958929D01*
X312708Y960372D01*
X313405Y962052D01*
X313642Y963855D01*
Y973605D01*
X313405Y975408D01*
X312708Y977088D01*
X311601Y978531D01*
X310159Y979638D01*
X308478Y980334D01*
X306675Y980572D01*
D02*
G37*
G36*
X534043Y1038421D02*
X485379D01*
X483843Y1038115D01*
X482540Y1037245D01*
X472262Y1026966D01*
X471391Y1025664D01*
X471086Y1024128D01*
Y980376D01*
X469068D01*
Y968312D01*
X471086D01*
Y960162D01*
X462868D01*
Y942298D01*
X474460D01*
X474946Y941125D01*
X465284Y931462D01*
X464413Y930160D01*
X464108Y928624D01*
Y898144D01*
X464413Y896608D01*
X465284Y895306D01*
X468417Y892172D01*
X469720Y891302D01*
X470258Y891195D01*
Y887478D01*
X487322D01*
Y900679D01*
X488592Y901635D01*
X489290Y901496D01*
X513300D01*
Y871860D01*
X565150D01*
Y914660D01*
X513300D01*
Y909524D01*
X490953D01*
X487830Y912647D01*
Y913470D01*
X478790D01*
Y916010D01*
X476250D01*
Y924050D01*
X472136D01*
Y926961D01*
X487473Y942298D01*
X496032D01*
X496366Y941166D01*
Y939263D01*
X481330Y924227D01*
Y918550D01*
X487830D01*
Y919373D01*
X503218Y934761D01*
X504089Y936064D01*
X504394Y937600D01*
Y959238D01*
X504089Y960774D01*
X503218Y962076D01*
X496640Y968655D01*
Y971804D01*
X490100D01*
X483560D01*
Y967804D01*
X486510D01*
X487262Y966680D01*
X492606Y961335D01*
X492120Y960162D01*
X481868D01*
Y948047D01*
X478205Y944384D01*
X477032Y944870D01*
Y954485D01*
X477938Y955392D01*
X478809Y956694D01*
X479114Y958230D01*
Y968312D01*
X481132D01*
Y980376D01*
X479114D01*
Y1022465D01*
X483991Y1027343D01*
X485130Y1026685D01*
X484989Y1026160D01*
X494030D01*
X503071D01*
X502780Y1027244D01*
X501696Y1029123D01*
X502159Y1030393D01*
X511982D01*
X512468Y1029219D01*
X512323Y1029074D01*
X511153Y1027048D01*
X510548Y1024789D01*
Y1022451D01*
X511153Y1020192D01*
X512323Y1018166D01*
X513976Y1016513D01*
X516002Y1015343D01*
X518261Y1014738D01*
X520599D01*
X522858Y1015343D01*
X524884Y1016513D01*
X526537Y1018166D01*
X527707Y1020192D01*
X528312Y1022451D01*
Y1024789D01*
X527707Y1027048D01*
X526537Y1029074D01*
X526392Y1029219D01*
X526878Y1030393D01*
X532380D01*
X536378Y1026395D01*
X535948Y1024789D01*
Y1022451D01*
X536553Y1020192D01*
X537723Y1018166D01*
X538276Y1017613D01*
Y997204D01*
Y994152D01*
X535158D01*
Y954797D01*
X524080D01*
X506934Y971943D01*
Y994146D01*
X506947Y994153D01*
X508257Y995463D01*
X509182Y997066D01*
X509662Y998855D01*
Y1000706D01*
X509182Y1002495D01*
X508257Y1004098D01*
X506947Y1005407D01*
X505344Y1006333D01*
X503555Y1006812D01*
X501704D01*
X499915Y1006333D01*
X498312Y1005407D01*
X497003Y1004098D01*
X496077Y1002495D01*
X495598Y1000706D01*
Y998855D01*
X496077Y997066D01*
X497003Y995463D01*
X498312Y994153D01*
X498906Y993810D01*
Y970280D01*
X499211Y968744D01*
X500082Y967442D01*
X519579Y947944D01*
X520881Y947074D01*
X522417Y946769D01*
X583753D01*
X585289Y947074D01*
X586591Y947944D01*
X591335Y952688D01*
X600222D01*
Y969406D01*
X634570D01*
X636106Y969711D01*
X637408Y970582D01*
X637425Y970598D01*
X643812D01*
Y982662D01*
X631748D01*
Y977434D01*
X600222D01*
Y994152D01*
X585958D01*
Y958665D01*
X582090Y954797D01*
X549422D01*
Y994152D01*
X546304D01*
Y995541D01*
X547668Y996906D01*
X548539Y998208D01*
X548844Y999744D01*
Y1015682D01*
X550284Y1016513D01*
X551937Y1018166D01*
X553107Y1020192D01*
X553712Y1022451D01*
Y1024789D01*
X553107Y1027048D01*
X551937Y1029074D01*
X550284Y1030727D01*
X548258Y1031897D01*
X545999Y1032502D01*
X543661D01*
X542055Y1032072D01*
X536882Y1037245D01*
X535579Y1038115D01*
X534043Y1038421D01*
D02*
G37*
G36*
X835455Y958504D02*
X833120D01*
Y948690D01*
X842934D01*
Y951025D01*
X842679Y952961D01*
X841932Y954764D01*
X840743Y956313D01*
X839194Y957502D01*
X837391Y958249D01*
X835455Y958504D01*
D02*
G37*
G36*
X828040D02*
X825705D01*
X823769Y958249D01*
X821965Y957502D01*
X820417Y956313D01*
X819228Y954764D01*
X818481Y952961D01*
X818226Y951025D01*
Y948690D01*
X828040D01*
Y958504D01*
D02*
G37*
G36*
X304340Y945773D02*
Y936270D01*
X313843D01*
X313253Y938474D01*
X311635Y941276D01*
X309347Y943564D01*
X306544Y945182D01*
X304340Y945773D01*
D02*
G37*
G36*
X299260D02*
X297057Y945182D01*
X294254Y943564D01*
X291966Y941276D01*
X290348Y938474D01*
X289757Y936270D01*
X299260D01*
Y945773D01*
D02*
G37*
G36*
Y931190D02*
X289757D01*
X290348Y928986D01*
X291966Y926184D01*
X294254Y923895D01*
X297057Y922278D01*
X299260Y921687D01*
Y931190D01*
D02*
G37*
G36*
X865912Y851942D02*
X846048D01*
Y832078D01*
X865912D01*
Y851942D01*
D02*
G37*
G36*
X781088D02*
X778472D01*
X775946Y851265D01*
X773682Y849958D01*
X771832Y848108D01*
X770525Y845844D01*
X769848Y843318D01*
Y840702D01*
X770525Y838176D01*
X771832Y835912D01*
X773682Y834062D01*
X775946Y832755D01*
X778472Y832078D01*
X781088D01*
X783614Y832755D01*
X785878Y834062D01*
X787728Y835912D01*
X789035Y838176D01*
X789712Y840702D01*
Y843318D01*
X789035Y845844D01*
X787728Y848108D01*
X785878Y849958D01*
X783614Y851265D01*
X781088Y851942D01*
D02*
G37*
G36*
X360718D02*
X358102D01*
X355576Y851265D01*
X353312Y849958D01*
X351462Y848108D01*
X350155Y845844D01*
X349478Y843318D01*
Y840702D01*
X350155Y838176D01*
X351462Y835912D01*
X353312Y834062D01*
X355576Y832755D01*
X358102Y832078D01*
X360718D01*
X363244Y832755D01*
X365508Y834062D01*
X367358Y835912D01*
X368665Y838176D01*
X369342Y840702D01*
Y843318D01*
X368665Y845844D01*
X367358Y848108D01*
X365508Y849958D01*
X363244Y851265D01*
X360718Y851942D01*
D02*
G37*
G36*
X293142D02*
X273278D01*
Y832078D01*
X293142D01*
Y851942D01*
D02*
G37*
G36*
X622080Y866780D02*
X570230D01*
Y823980D01*
X622080D01*
Y866780D01*
D02*
G37*
G36*
X565150D02*
X513300D01*
Y823980D01*
X565150D01*
Y866780D01*
D02*
G37*
G36*
X842934Y943610D02*
X830580D01*
X818226D01*
Y941275D01*
X818481Y939339D01*
X819228Y937535D01*
X820417Y935987D01*
X821965Y934798D01*
X823769Y934051D01*
X824026Y934017D01*
Y796917D01*
X824331Y795381D01*
X824819Y794650D01*
X824556Y794386D01*
X822937Y791584D01*
X822347Y789380D01*
X834390D01*
X846433D01*
X845843Y791584D01*
X844224Y794386D01*
X841936Y796675D01*
X839134Y798293D01*
X836008Y799130D01*
X832772D01*
X832054Y799681D01*
Y933796D01*
X835455D01*
X837391Y934051D01*
X839194Y934798D01*
X840743Y935987D01*
X841932Y937535D01*
X842679Y939339D01*
X842934Y941275D01*
Y943610D01*
D02*
G37*
G36*
X846433Y784300D02*
X836930D01*
Y774797D01*
X839134Y775388D01*
X841936Y777006D01*
X844224Y779294D01*
X845843Y782096D01*
X846433Y784300D01*
D02*
G37*
G36*
X831850D02*
X822347D01*
X822937Y782096D01*
X824556Y779294D01*
X826844Y777006D01*
X829646Y775388D01*
X831850Y774797D01*
Y784300D01*
D02*
G37*
G36*
X310485Y792612D02*
X300735D01*
X298932Y792374D01*
X297252Y791678D01*
X295809Y790571D01*
X294702Y789128D01*
X294006Y787448D01*
X293769Y785645D01*
Y775895D01*
X294006Y774092D01*
X294702Y772412D01*
X295809Y770969D01*
X297252Y769862D01*
X298932Y769166D01*
X300735Y768929D01*
X310485D01*
X312288Y769166D01*
X313969Y769862D01*
X315411Y770969D01*
X316518Y772412D01*
X317215Y774092D01*
X317452Y775895D01*
Y785645D01*
X317215Y787448D01*
X316518Y789128D01*
X315411Y790571D01*
X313969Y791678D01*
X312288Y792374D01*
X310485Y792612D01*
D02*
G37*
G36*
X313843Y931190D02*
X304340D01*
Y919246D01*
X321106Y902481D01*
Y761123D01*
X314372Y754389D01*
X313157Y755604D01*
X310354Y757222D01*
X308150Y757813D01*
Y748310D01*
X319647D01*
X327958Y756622D01*
X328829Y757924D01*
X329134Y759460D01*
Y904143D01*
X328829Y905679D01*
X327958Y906982D01*
X310196Y924745D01*
X311635Y926184D01*
X313253Y928986D01*
X313843Y931190D01*
D02*
G37*
G36*
X303070Y757813D02*
X300867Y757222D01*
X298064Y755604D01*
X295776Y753316D01*
X294158Y750514D01*
X293567Y748310D01*
X303070D01*
Y757813D01*
D02*
G37*
G36*
X839265Y763682D02*
X829515D01*
X827712Y763444D01*
X826032Y762748D01*
X824589Y761641D01*
X823482Y760198D01*
X822786Y758518D01*
X822548Y756715D01*
Y746965D01*
X822786Y745162D01*
X823482Y743482D01*
X824589Y742039D01*
X826032Y740932D01*
X827712Y740236D01*
X829515Y739998D01*
X839265D01*
X841068Y740236D01*
X842748Y740932D01*
X844191Y742039D01*
X845298Y743482D01*
X845994Y745162D01*
X846232Y746965D01*
Y756715D01*
X845994Y758518D01*
X845298Y760198D01*
X844191Y761641D01*
X842748Y762748D01*
X841068Y763444D01*
X839265Y763682D01*
D02*
G37*
G36*
X303070Y743230D02*
X293567D01*
X294158Y741026D01*
X295776Y738224D01*
X298064Y735936D01*
X300867Y734317D01*
X303070Y733727D01*
Y743230D01*
D02*
G37*
%LPD*%
D17*
X542290Y973420D02*
D03*
X593090D02*
D03*
D18*
X469950Y951230D02*
D03*
X488950D02*
D03*
D19*
X634620Y670130D02*
D03*
Y648130D02*
D03*
X650620D02*
D03*
Y670130D02*
D03*
D20*
X652780Y976630D02*
D03*
X637780D02*
D03*
X490100Y974344D02*
D03*
X475100D02*
D03*
D21*
X478790Y916010D02*
D03*
Y895010D02*
D03*
D22*
X567690Y725050D02*
D03*
Y710050D02*
D03*
X585470Y709930D02*
D03*
Y724930D02*
D03*
X608330Y666990D02*
D03*
Y681990D02*
D03*
Y636270D02*
D03*
Y651270D02*
D03*
X466090Y631310D02*
D03*
Y646310D02*
D03*
X608330Y603490D02*
D03*
Y618490D02*
D03*
X466090Y614560D02*
D03*
Y599560D02*
D03*
D23*
X565890Y586470D02*
D03*
X557890D02*
D03*
X549890D02*
D03*
X541890D02*
D03*
X533890D02*
D03*
X525890D02*
D03*
X517890D02*
D03*
X509890D02*
D03*
Y671470D02*
D03*
X517890D02*
D03*
X525890D02*
D03*
X533890D02*
D03*
X541890D02*
D03*
X549890D02*
D03*
X557890D02*
D03*
X565890D02*
D03*
D24*
X495390Y600970D02*
D03*
Y608970D02*
D03*
Y616970D02*
D03*
Y624970D02*
D03*
Y632970D02*
D03*
Y640970D02*
D03*
Y648970D02*
D03*
Y656970D02*
D03*
X580390D02*
D03*
Y648970D02*
D03*
Y640970D02*
D03*
Y632970D02*
D03*
Y624970D02*
D03*
Y616970D02*
D03*
Y608970D02*
D03*
Y600970D02*
D03*
D25*
X491490Y513690D02*
D03*
Y494690D02*
D03*
D36*
X603920Y415120D02*
D03*
D37*
X578920D02*
D03*
X553920D02*
D03*
X528920D02*
D03*
X728980Y662070D02*
D03*
Y687070D02*
D03*
Y712070D02*
D03*
X398780Y686600D02*
D03*
Y711600D02*
D03*
Y736600D02*
D03*
D38*
X552450Y266700D02*
D03*
D39*
X527050D02*
D03*
X501650D02*
D03*
X476250D02*
D03*
D52*
X728980Y737070D02*
D03*
X398780Y661600D02*
D03*
D57*
X567690Y869320D02*
D03*
D58*
X835660Y700480D02*
X845110D01*
X881012Y664578D01*
Y604508D02*
Y664578D01*
X297852Y690282D02*
X306070Y698500D01*
X267970Y635000D02*
Y663275D01*
X294977Y690282D01*
X297852D01*
X267970Y635000D02*
X285750Y617220D01*
X868324Y591820D02*
X881012Y604508D01*
X855980Y591820D02*
X868324D01*
D59*
X397811Y570531D02*
X414020Y586740D01*
X397811Y424180D02*
Y570531D01*
X379776Y421801D02*
Y1028746D01*
Y421801D02*
X379937Y421640D01*
X370181Y403201D02*
Y640739D01*
X370793Y641350D01*
X369570Y402590D02*
X370181Y403201D01*
X307340Y445770D02*
Y494030D01*
X285750Y515620D02*
X307340Y494030D01*
X408987Y563927D02*
X422402Y577342D01*
X408987Y370887D02*
Y563927D01*
X355600Y317500D02*
X408987Y370887D01*
X379776Y1028746D02*
X397510Y1046480D01*
X492760Y229870D02*
X534670D01*
X552450Y247650D01*
X491490Y361950D02*
X552450Y300990D01*
Y266700D02*
Y300990D01*
X491490Y361950D02*
Y494690D01*
X542290Y997204D02*
Y1026160D01*
X463296Y648970D02*
X470417D01*
X272288Y355600D02*
Y523748D01*
X475100Y974344D02*
Y1024128D01*
Y958230D02*
Y974344D01*
X552450Y247650D02*
Y266700D01*
X492373Y493807D02*
X501873D01*
X491490Y494690D02*
X492373Y493807D01*
X463042Y494690D02*
X491490D01*
X443230Y323208D02*
Y541020D01*
X499738Y266700D02*
X501650D01*
X443230Y323208D02*
X499738Y266700D01*
X431323Y311627D02*
X476250Y266700D01*
X542290Y997204D02*
X544830Y999744D01*
Y1023620D01*
X542290Y973420D02*
Y997204D01*
X634570Y973420D02*
X637780Y976630D01*
X593090Y973420D02*
X634570D01*
X293162Y568753D02*
X340360Y615950D01*
Y711200D01*
X285750Y566420D02*
X290830D01*
Y568201D01*
X291381Y568753D01*
X293162D01*
X310825Y740735D02*
X340360Y711200D01*
X778256Y529336D02*
X815340Y566420D01*
X778256Y462788D02*
Y529336D01*
X815340Y566420D02*
X855980D01*
X793750Y510540D02*
Y523240D01*
Y510540D02*
X862838Y441452D01*
Y293878D02*
Y441452D01*
X778256Y462788D02*
X850900Y390144D01*
X502920Y970280D02*
Y999490D01*
X502630Y999780D02*
X502920Y999490D01*
X583753Y950783D02*
X589595Y956625D01*
X522417Y950783D02*
X583753D01*
X593090Y959820D02*
Y973420D01*
X589895Y956625D02*
X593090Y959820D01*
X589595Y956625D02*
X589895D01*
X502920Y970280D02*
X522417Y950783D01*
X325120Y759460D02*
Y904143D01*
X304802Y924461D02*
X325120Y904143D01*
X304802Y924461D02*
Y932922D01*
X585817Y433223D02*
Y496367D01*
Y433223D02*
X603920Y415120D01*
X585817Y496367D02*
X586380Y496930D01*
X632820D01*
X583680D02*
X586380D01*
X578920Y405838D02*
Y415535D01*
X572008Y422447D02*
Y558800D01*
Y422447D02*
X578920Y415535D01*
X466090Y646310D02*
X468185Y648405D01*
X460636Y646310D02*
X466090D01*
X460636D02*
X463296Y648970D01*
X455168Y640842D02*
X460636Y646310D01*
X483385Y920605D02*
X500380Y937600D01*
X490100Y969518D02*
X500380Y959238D01*
Y937600D02*
Y959238D01*
X479790Y916010D02*
X483385Y919605D01*
Y920605D01*
X478790Y916010D02*
X479790D01*
X469950Y953080D02*
X475100Y958230D01*
X469950Y951230D02*
Y953080D01*
X454660Y673100D02*
Y730504D01*
Y673100D02*
X470790Y656970D01*
X432054Y753110D02*
X454660Y730504D01*
X470790Y656970D02*
X495390D01*
X443350Y668916D02*
X463296Y648970D01*
X443350Y668916D02*
Y715906D01*
X535225Y625555D02*
X559562D01*
X511810Y648970D02*
X535225Y625555D01*
X495390Y648970D02*
X511810D01*
X470417D02*
X495390D01*
X518030Y624970D02*
X526030Y616970D01*
X580390D01*
X495390Y624970D02*
X518030D01*
X565150Y307340D02*
X825500D01*
X542798Y329692D02*
X565150Y307340D01*
X542798Y329692D02*
Y490220D01*
X850900Y281940D02*
X862838Y293878D01*
X862330Y270002D02*
X868680Y276352D01*
X864108Y541020D02*
X868680Y536448D01*
Y276352D02*
Y536448D01*
X855980Y541020D02*
X864108D01*
X845312Y270002D02*
X862330D01*
X838962Y276352D02*
X845312Y270002D01*
X834390Y786840D02*
Y790567D01*
X828040Y796917D02*
Y943610D01*
Y796917D02*
X834390Y790567D01*
X828040Y943610D02*
X830580Y946150D01*
X305610Y745770D02*
X310825D01*
Y746739D01*
Y740735D02*
Y745770D01*
X307340Y356867D02*
X310893D01*
X455930Y553720D02*
X527050D01*
X533890Y560560D01*
X443230Y541020D02*
X455930Y553720D01*
X326390Y372364D02*
Y530860D01*
X293162Y564087D02*
X326390Y530860D01*
X310893Y356867D02*
X326390Y372364D01*
X315646Y749986D02*
X325120Y759460D01*
X310825Y746739D02*
X314072Y749986D01*
X315646D01*
X625839Y570246D02*
X626532Y521459D01*
X596640Y600970D02*
X624724Y572886D01*
X625817Y571793D01*
X580390Y600970D02*
X596640D01*
X625817Y571793D02*
X625839Y570246D01*
X614680Y508000D02*
X626532Y519852D01*
Y521459D01*
X548640Y634492D02*
Y652018D01*
X495390Y608970D02*
X507868D01*
X541890Y658768D02*
X548640Y652018D01*
X533890Y650222D02*
Y671470D01*
X507868Y608970D02*
X512064Y604774D01*
X541890Y658768D02*
Y671470D01*
X542575Y490443D02*
X542798Y490220D01*
X565890Y573180D02*
X573710Y565360D01*
X612996D01*
X285750Y537721D02*
Y541020D01*
X272288Y523748D02*
X281767Y533227D01*
Y533738D01*
X285750Y537721D01*
X290830Y564639D02*
X291381Y564087D01*
X293162D01*
X388874Y373634D02*
Y661600D01*
X310893Y355600D02*
X370840D01*
X388874Y373634D01*
X495554Y597408D02*
Y600970D01*
X422402Y577342D02*
X509890D01*
X565890Y667004D02*
X578151D01*
X495300Y656970D02*
Y737362D01*
X455168Y623570D02*
Y640842D01*
X272288Y355600D02*
X281940D01*
X838962Y276352D02*
Y353568D01*
X834390Y358140D02*
X838962Y353568D01*
X825500Y358140D02*
X834390D01*
X565890Y573180D02*
Y586470D01*
X549890Y671470D02*
Y686074D01*
X547624Y688340D02*
X549890Y686074D01*
X388874Y661600D02*
X398780D01*
X850900Y358140D02*
Y390144D01*
X580390Y624970D02*
X601850D01*
X563927D02*
X580390D01*
X650620Y668880D02*
Y670130D01*
Y667002D02*
Y668880D01*
X608330Y681990D02*
X615442D01*
X600710D02*
X608330D01*
X654465Y665035D02*
X660708D01*
X650620Y668880D02*
X654465Y665035D01*
X662940Y603490D02*
Y662803D01*
X660708Y665035D02*
X662940Y662803D01*
X744220Y616190D02*
Y721830D01*
X728980Y737070D02*
X744220Y721830D01*
X731520Y603490D02*
X744220Y616190D01*
X711962Y399542D02*
X753110Y440690D01*
Y1022350D01*
X727710Y1047750D02*
X753110Y1022350D01*
X490100Y1017014D02*
X494030Y1020944D01*
Y1023620D01*
X559108Y1046480D02*
X570230Y1035358D01*
X397510Y1046480D02*
X559108D01*
X585216Y399542D02*
X711962D01*
X307340Y355600D02*
Y356867D01*
X468185Y648405D02*
X469852D01*
X470417Y648970D01*
X536702Y701802D02*
X583033D01*
X525890Y690990D02*
X536702Y701802D01*
X525890Y671470D02*
Y690990D01*
X597450Y662220D02*
Y678730D01*
X600710Y681990D01*
X580390Y656970D02*
X592200D01*
X597450Y662220D01*
X580530Y632830D02*
X604890D01*
X608330Y636270D01*
X614172D01*
X595269Y616551D02*
X608330Y603490D01*
X580809Y616551D02*
X595269D01*
X601850Y624970D02*
X608330Y618490D01*
X580390Y616970D02*
X580809Y616551D01*
X634620Y649380D02*
Y651002D01*
X630775Y653225D02*
X634620Y649380D01*
X622095Y653225D02*
X630775D01*
X634620Y648130D02*
Y649380D01*
X608330Y666990D02*
X622095Y653225D01*
X533890Y560560D02*
Y586470D01*
X431323Y311627D02*
Y550703D01*
X286512Y317500D02*
X355600D01*
X283587Y306447D02*
Y314575D01*
X281940Y304800D02*
X283587Y306447D01*
Y314575D02*
X286512Y317500D01*
X307340Y304800D02*
X365760D01*
X420370Y359410D02*
Y557530D01*
X365760Y304800D02*
X420370Y359410D01*
Y557530D02*
X431800Y568960D01*
X509890Y577342D02*
Y586470D01*
X414020Y586740D02*
X484886D01*
X495390Y600970D02*
X495554D01*
X484886Y586740D02*
X495554Y597408D01*
X410076Y614560D02*
X466090D01*
X431800Y568960D02*
X515659D01*
X387604Y688848D02*
Y742442D01*
X389852Y686600D02*
X398780D01*
X387604Y688848D02*
X389852Y686600D01*
X387604Y742442D02*
X398272Y753110D01*
X431323Y550703D02*
X441960Y561340D01*
X528920Y415120D02*
Y466760D01*
X501873Y493807D02*
X528920Y466760D01*
X606785Y649175D02*
X608330Y651270D01*
X580390Y648970D02*
X606287D01*
X606785Y649175D01*
X602996Y1047750D02*
X727710D01*
X634620Y651002D02*
X650620Y667002D01*
X595630Y1040384D02*
X602996Y1047750D01*
X595630Y1023620D02*
Y1040384D01*
X485379Y1034407D02*
X534043D01*
X570230Y1023620D02*
Y1035358D01*
X475100Y1024128D02*
X485379Y1034407D01*
X534043D02*
X542290Y1026160D01*
X485805Y946235D02*
X488950Y949380D01*
Y951230D01*
X468122Y928624D02*
X485733Y946235D01*
X485805D01*
X468122Y898144D02*
Y928624D01*
X478790Y916010D02*
X489290Y905510D01*
X531500D02*
X567690Y869320D01*
X489290Y905510D02*
X531500D01*
X567690Y869320D02*
X599523Y901153D01*
X623023D02*
X652780Y930910D01*
X599523Y901153D02*
X623023D01*
X652780Y930910D02*
Y976630D01*
X662940Y820300D02*
Y999490D01*
X567690Y725050D02*
X662940Y820300D01*
X638810Y1023620D02*
X662940Y999490D01*
X593344Y709930D02*
X620484Y737070D01*
X728980D01*
X585470Y709930D02*
X593344D01*
X621030Y1023620D02*
X638810D01*
X565890Y667004D02*
Y671470D01*
X612697Y649175D02*
X624840Y637032D01*
X608330Y651270D02*
X610425Y649175D01*
X612697D01*
X614412Y603490D02*
X662940D01*
X632820Y496930D02*
X662940Y527050D01*
Y603490D01*
X731520D01*
X650620Y633476D02*
Y639444D01*
X441960Y561340D02*
X520573D01*
X525890Y566657D01*
X517890Y571192D02*
Y586470D01*
X515659Y568960D02*
X517890Y571192D01*
X583033Y701802D02*
X588875Y695960D01*
X590550D01*
X563927Y624970D02*
Y629920D01*
X559562Y625555D02*
X563927Y629920D01*
Y635937D01*
X608330Y603490D02*
X614412D01*
X483616Y632970D02*
X495390D01*
X479552Y628906D02*
X483616Y632970D01*
X479552Y607688D02*
Y628906D01*
X471424Y599560D02*
X479552Y607688D01*
X466090Y599560D02*
X471424D01*
X563927Y635937D02*
X568960Y640970D01*
X580390D01*
X398780Y736600D02*
X422656D01*
X443350Y715906D01*
X549890Y502632D02*
Y586470D01*
Y502632D02*
X553920Y498602D01*
Y415120D02*
Y498602D01*
X650620Y639444D02*
Y648130D01*
X648208Y637032D02*
X650620Y639444D01*
X624840Y637032D02*
X648208D01*
X509890Y671470D02*
Y699421D01*
X525780Y715311D01*
Y723900D01*
X490100Y969518D02*
Y1017014D01*
X398780Y625856D02*
X410076Y614560D01*
X398780Y625856D02*
Y661600D01*
X466090Y614560D02*
Y631310D01*
X614412Y603490D02*
X616458Y605536D01*
Y633984D01*
X614172Y636270D02*
X616458Y633984D01*
X557890Y685906D02*
X559054Y687070D01*
X557890Y671470D02*
Y685906D01*
X535178Y712724D02*
X547624D01*
X517890Y695436D02*
X535178Y712724D01*
X517890Y671470D02*
Y695436D01*
X471256Y895010D02*
X478790D01*
X468122Y898144D02*
X471256Y895010D01*
X541890Y552704D02*
Y586470D01*
X531116Y541930D02*
X541890Y552704D01*
X518680Y541930D02*
X531116D01*
X518680Y528320D02*
Y541930D01*
X504050Y513690D02*
X518680Y528320D01*
X491490Y513690D02*
X504050D01*
X538480Y723900D02*
X549148D01*
X562998Y710050D01*
X567690D01*
X581152Y724930D02*
X585470D01*
X567690Y711468D02*
X581152Y724930D01*
X567690Y710050D02*
Y711468D01*
X525890Y566657D02*
Y586470D01*
X578920Y405838D02*
X585216Y399542D01*
X557890Y572918D02*
X572008Y558800D01*
X557890Y572918D02*
Y586470D01*
X634620Y670130D02*
Y699008D01*
X647682Y712070D01*
X728980D01*
X627302Y670130D02*
X634620D01*
X615442Y681990D02*
X627302Y670130D01*
X525780Y736600D02*
Y743712D01*
X523494Y745998D02*
X525780Y743712D01*
X503936Y745998D02*
X523494D01*
X495300Y737362D02*
X503936Y745998D01*
X398272Y753110D02*
X432054D01*
D60*
X281940Y304800D02*
D03*
Y330200D02*
D03*
Y355600D02*
D03*
X307340Y279400D02*
D03*
Y304800D02*
D03*
Y330200D02*
D03*
Y355600D02*
D03*
X850900Y358140D02*
D03*
Y332740D02*
D03*
Y307340D02*
D03*
Y281940D02*
D03*
X825500Y358140D02*
D03*
Y332740D02*
D03*
Y307340D02*
D03*
D61*
X281940Y279400D02*
D03*
X825500Y281940D02*
D03*
D62*
X494030Y1023620D02*
D03*
X519430D02*
D03*
X544830D02*
D03*
X570230D02*
D03*
X595630D02*
D03*
D63*
X621030D02*
D03*
D64*
X583680Y496930D02*
D03*
X518680D02*
D03*
X583680Y541930D02*
D03*
D65*
X518680D02*
D03*
D66*
X779780Y842010D02*
D03*
X359410D02*
D03*
X355600Y1019810D02*
D03*
D67*
X855980Y842010D02*
D03*
X283210D02*
D03*
X279400Y1019810D02*
D03*
D68*
X285750Y490220D02*
D03*
Y515620D02*
D03*
Y566420D02*
D03*
Y591820D02*
D03*
Y541020D02*
D03*
X855980Y490220D02*
D03*
Y515620D02*
D03*
Y566420D02*
D03*
Y591820D02*
D03*
Y541020D02*
D03*
D69*
X285750Y617220D02*
D03*
X855980D02*
D03*
D70*
X306070Y663500D02*
D03*
X305610Y745770D02*
D03*
X834390Y786840D02*
D03*
X830580Y981150D02*
D03*
X301800Y933730D02*
D03*
X835660Y700480D02*
D03*
D71*
X306070Y698500D02*
D03*
X305610Y780770D02*
D03*
X834390Y751840D02*
D03*
X830580Y946150D02*
D03*
X301800Y968730D02*
D03*
X835660Y665480D02*
D03*
D72*
X883590Y246446D02*
D03*
X251460Y242570D02*
D03*
X884860Y1073216D02*
D03*
X252730Y1073150D02*
D03*
D73*
X538480Y736600D02*
D03*
D74*
Y723900D02*
D03*
X525780Y736600D02*
D03*
Y723900D02*
D03*
X513080Y736600D02*
D03*
Y723900D02*
D03*
X397811Y424180D02*
D03*
X379937Y421640D02*
D03*
X369570Y402590D02*
D03*
X307340Y445770D02*
D03*
X370793Y641350D02*
D03*
X492760Y229870D02*
D03*
X793750Y523240D02*
D03*
X502630Y999780D02*
D03*
X614680Y508000D02*
D03*
X548640Y634492D02*
D03*
X512064Y604774D02*
D03*
X533890Y650222D02*
D03*
X542575Y490443D02*
D03*
X612996Y565360D02*
D03*
X455168Y623570D02*
D03*
X463042Y494690D02*
D03*
X547624Y688340D02*
D03*
X578151Y667004D02*
D03*
X650620Y633476D02*
D03*
X590550Y695960D02*
D03*
X559054Y687070D02*
D03*
X547624Y712724D02*
D03*
D75*
X640000Y960001D02*
D03*
Y880001D02*
D03*
Y840001D02*
D03*
X620000Y960001D02*
D03*
X630000Y940001D02*
D03*
Y860001D02*
D03*
Y820000D02*
D03*
X620000Y800000D02*
D03*
X610000Y940001D02*
D03*
X600000Y800000D02*
D03*
X590000Y940001D02*
D03*
X580000Y800000D02*
D03*
X570000Y940001D02*
D03*
X560000Y800000D02*
D03*
X550000Y940001D02*
D03*
X540000Y800000D02*
D03*
X530000Y940001D02*
D03*
X520000Y800000D02*
D03*
X500000Y920001D02*
D03*
Y880001D02*
D03*
Y840001D02*
D03*
Y800000D02*
D03*
M02*
