M48
;Layer_Color=9474304
;FILE_FORMAT=4:4
METRIC,LZ
;TYPE=PLATED
T1F00S00C0.5000
T2F00S00C0.7112
T3F00S00C0.7500
T4F00S00C0.9000
T5F00S00C0.9900
T6F00S00C1.0000
T7F00S00C1.0200
T8F00S00C1.0400
T9F00S00C1.1000
T10F00S00C1.3000
T11F00S00C3.2000
%
T01
X0049276Y0022987
X0079375Y0052324
X0061468Y00508
X00612996Y0056536
X0065062Y00633476
X0054864Y00634492
X0053389Y00650222
X00547624Y0068834
X00559054Y0068707
X00547624Y00712724
X0059055Y0069596
X00578151Y00667004
X00512064Y00604774
X00455168Y0062357
X00463042Y0049469
X00542575Y00490443
X00397811Y0042418
X00379937Y0042164
X0036957Y0040259
X0030734Y0044577
X00370793Y0064135
X0050263Y0099978
T02
X005Y008
X0052
X0054
X0056
X0058
X006
X0062
X0063Y0082
X0064Y00840001
X0063Y00860001
X0064Y00880001
X0063Y00940001
X0061
X0059
X0057
X0055
X0053
X005Y00920001
Y00880001
Y00840001
X0062Y00960001
X0064
T03
X0051308Y007239
X0052578
X0053848
Y007366
X0052578
X0051308
T04
X0052892Y0041512
X0055392
X0057892
X0060392
X0072898Y0066207
Y0068707
Y0071207
Y0073707
X0039878Y007366
Y007116
Y006866
Y006616
T05
X0051868Y0049693
Y0054193
X0058368
Y0049693
T06
X0028321Y0084201
X0035941
X003556Y0101981
X002794
X0077978Y0084201
X0085598
T07
X0047625Y002667
X0050165
X0052705
X0055245
X0054483Y0102362
X0051943
X0049403
X0057023
X0059563
X0062103
T08
X0028194Y002794
Y003048
Y003302
Y003556
X0030734
Y003302
Y003048
Y002794
X008255Y0028194
X008509
Y0030734
Y0033274
Y0035814
X008255
Y0033274
Y0030734
T09
X0085598Y0049022
Y0051562
Y0054102
Y0056642
Y0059182
Y0061722
X0028575
Y0059182
Y0056642
Y0054102
Y0051562
Y0049022
T10
X0083566Y0066548
Y0070048
X0083439Y0075184
Y0078684
X0030561Y0078077
Y0074577
X0030607Y006985
Y006635
X003018Y0093373
Y0096873
X0083058Y0098115
Y0094615
T11
X0025146Y0024257
X0088359Y00246446
X0025273Y0107315
X0088486Y01073216
M30
