G04*
G04 #@! TF.GenerationSoftware,Altium Limited,Altium Designer,24.1.2 (44)*
G04*
G04 Layer_Color=255*
%FSLAX44Y44*%
%MOMM*%
G71*
G04*
G04 #@! TF.SameCoordinates,8B991FCA-0915-420C-AD92-161D74BCA782*
G04*
G04*
G04 #@! TF.FilePolarity,Positive*
G04*
G01*
G75*
%ADD15R,1.5000X1.2500*%
%ADD16R,1.3000X1.1000*%
G04:AMPARAMS|DCode=17|XSize=2.33mm|YSize=0.98mm|CornerRadius=0.245mm|HoleSize=0mm|Usage=FLASHONLY|Rotation=0.000|XOffset=0mm|YOffset=0mm|HoleType=Round|Shape=RoundedRectangle|*
%AMROUNDEDRECTD17*
21,1,2.3300,0.4900,0,0,0.0*
21,1,1.8400,0.9800,0,0,0.0*
1,1,0.4900,0.9200,-0.2450*
1,1,0.4900,-0.9200,-0.2450*
1,1,0.4900,-0.9200,0.2450*
1,1,0.4900,0.9200,0.2450*
%
%ADD17ROUNDEDRECTD17*%
%ADD18R,0.7500X0.6500*%
%ADD19R,1.1500X1.8000*%
%ADD20R,1.7000X1.1000*%
%ADD21R,1.2100X1.8200*%
%ADD22R,1.0000X0.7500*%
%ADD23R,0.6000X1.5000*%
%ADD24R,1.5000X0.6000*%
%ADD25R,1.0200X1.8200*%
%ADD26R,1.1000X1.7000*%
%ADD51R,5.8600X5.5700*%
%ADD53R,1.5750X1.5750*%
%ADD54C,1.5750*%
%ADD55R,1.5750X1.5750*%
%ADD56C,1.7100*%
%ADD57R,1.7100X1.7100*%
%ADD58R,1.5080X1.5080*%
%ADD59C,1.5080*%
%ADD60C,3.5000*%
%ADD61R,1.5080X1.5080*%
D15*
X118110Y269770D02*
D03*
Y304270D02*
D03*
X157480Y608350D02*
D03*
Y642850D02*
D03*
D16*
X142240Y289560D02*
D03*
Y268560D02*
D03*
D17*
X173500Y261680D02*
D03*
Y307280D02*
D03*
D18*
X214480Y493950D02*
D03*
X227480D02*
D03*
Y483950D02*
D03*
X214480D02*
D03*
D19*
X274080Y492760D02*
D03*
X244080D02*
D03*
X157720D02*
D03*
X187720D02*
D03*
X178280Y340360D02*
D03*
X208280D02*
D03*
D20*
X157480Y420670D02*
D03*
Y394670D02*
D03*
D21*
X181080Y228600D02*
D03*
X210080D02*
D03*
D22*
X254790Y386380D02*
D03*
X194790D02*
D03*
X254790Y423880D02*
D03*
X194790D02*
D03*
D23*
X200030Y552540D02*
D03*
X208030D02*
D03*
X216030D02*
D03*
X224030D02*
D03*
X232030D02*
D03*
X240030D02*
D03*
X248030D02*
D03*
X256030D02*
D03*
Y637540D02*
D03*
X248030D02*
D03*
X240030D02*
D03*
X232030D02*
D03*
X224030D02*
D03*
X216030D02*
D03*
X208030D02*
D03*
X200030D02*
D03*
D24*
X270530Y567040D02*
D03*
Y575040D02*
D03*
Y583040D02*
D03*
Y591040D02*
D03*
Y599040D02*
D03*
Y607040D02*
D03*
Y615040D02*
D03*
Y623040D02*
D03*
X185530D02*
D03*
Y615040D02*
D03*
Y607040D02*
D03*
Y599040D02*
D03*
Y591040D02*
D03*
Y583040D02*
D03*
Y575040D02*
D03*
Y567040D02*
D03*
D25*
X191740Y527050D02*
D03*
X219740D02*
D03*
X242540Y664210D02*
D03*
X270540D02*
D03*
D26*
X194010D02*
D03*
X220010D02*
D03*
D51*
X240600Y284480D02*
D03*
D53*
X137160Y207010D02*
D03*
X323850Y204470D02*
D03*
D54*
X112160Y207010D02*
D03*
X76200Y278530D02*
D03*
X64600Y601780D02*
D03*
X298850Y204470D02*
D03*
X64770Y692150D02*
D03*
X65870Y510340D02*
D03*
D55*
X76200Y303530D02*
D03*
X64600Y576780D02*
D03*
X64770Y667150D02*
D03*
X65870Y485340D02*
D03*
D56*
X378460Y358140D02*
D03*
X353060D02*
D03*
X378460Y332740D02*
D03*
X353060D02*
D03*
X378460Y307340D02*
D03*
D57*
X353060D02*
D03*
D58*
X113830Y807720D02*
D03*
X243370Y806450D02*
D03*
D59*
X138830Y807720D02*
D03*
X163830D02*
D03*
X368300Y737000D02*
D03*
Y687000D02*
D03*
Y712000D02*
D03*
X293370Y806450D02*
D03*
X268370D02*
D03*
X368300Y441490D02*
D03*
Y416490D02*
D03*
Y466490D02*
D03*
X65870Y422510D02*
D03*
Y397510D02*
D03*
X368300Y575310D02*
D03*
Y550310D02*
D03*
Y600310D02*
D03*
D60*
X377190Y190500D02*
D03*
X54610Y193040D02*
D03*
X374650Y812800D02*
D03*
X54610D02*
D03*
D61*
X368300Y762000D02*
D03*
Y491490D02*
D03*
X65870Y372510D02*
D03*
X368300Y625310D02*
D03*
M02*
