G04*
G04 #@! TF.GenerationSoftware,Altium Limited,Altium Designer,24.1.2 (44)*
G04*
G04 Layer_Color=16711935*
%FSLAX44Y44*%
%MOMM*%
G71*
G04*
G04 #@! TF.SameCoordinates,8B991FCA-0915-420C-AD92-161D74BCA782*
G04*
G04*
G04 #@! TF.FilePolarity,Negative*
G04*
G01*
G75*
%ADD40R,1.7782X1.7782*%
%ADD41C,1.7782*%
%ADD42R,1.7782X1.7782*%
%ADD43C,1.9132*%
%ADD44R,1.9132X1.9132*%
%ADD45R,1.7112X1.7112*%
%ADD46C,1.7112*%
%ADD47C,3.7032*%
%ADD48R,1.7112X1.7112*%
%ADD49C,1.2032*%
D40*
X137160Y207010D02*
D03*
X323850Y204470D02*
D03*
D41*
X112160Y207010D02*
D03*
X76200Y278530D02*
D03*
X64600Y601780D02*
D03*
X298850Y204470D02*
D03*
X64770Y692150D02*
D03*
X65870Y510340D02*
D03*
D42*
X76200Y303530D02*
D03*
X64600Y576780D02*
D03*
X64770Y667150D02*
D03*
X65870Y485340D02*
D03*
D43*
X378460Y358140D02*
D03*
X353060D02*
D03*
X378460Y332740D02*
D03*
X353060D02*
D03*
X378460Y307340D02*
D03*
D44*
X353060D02*
D03*
D45*
X113830Y807720D02*
D03*
X243370Y806450D02*
D03*
D46*
X138830Y807720D02*
D03*
X163830D02*
D03*
X368300Y737000D02*
D03*
Y687000D02*
D03*
Y712000D02*
D03*
X293370Y806450D02*
D03*
X268370D02*
D03*
X368300Y441490D02*
D03*
Y416490D02*
D03*
Y466490D02*
D03*
X65870Y422510D02*
D03*
Y397510D02*
D03*
X368300Y575310D02*
D03*
Y550310D02*
D03*
Y600310D02*
D03*
D47*
X377190Y190500D02*
D03*
X54610Y193040D02*
D03*
X374650Y812800D02*
D03*
X54610D02*
D03*
D48*
X368300Y762000D02*
D03*
Y491490D02*
D03*
X65870Y372510D02*
D03*
X368300Y625310D02*
D03*
D49*
X183456Y648394D02*
D03*
X207010Y466090D02*
D03*
X144780Y525780D02*
D03*
X243158Y474472D02*
D03*
X205740Y600710D02*
D03*
X220020Y609910D02*
D03*
X203068Y614860D02*
D03*
X233356Y620706D02*
D03*
X248332Y569850D02*
D03*
X180340Y411480D02*
D03*
X128270Y669290D02*
D03*
X200062Y566955D02*
D03*
X316230Y320040D02*
D03*
X266700Y685800D02*
D03*
X248810Y601997D02*
D03*
X252250Y615160D02*
D03*
X267970Y539750D02*
D03*
X207010Y582930D02*
D03*
X185420Y631190D02*
D03*
X182626Y670052D02*
D03*
X281432Y555498D02*
D03*
X179324Y546862D02*
D03*
M02*
