G04*
G04 #@! TF.GenerationSoftware,Altium Limited,Altium Designer,24.1.2 (44)*
G04*
G04 Layer_Color=8388736*
%FSLAX44Y44*%
%MOMM*%
G71*
G04*
G04 #@! TF.SameCoordinates,8B991FCA-0915-420C-AD92-161D74BCA782*
G04*
G04*
G04 #@! TF.FilePolarity,Negative*
G04*
G01*
G75*
%ADD27R,1.7032X1.4532*%
%ADD28R,1.5032X1.3032*%
%ADD29R,6.0632X5.7732*%
G04:AMPARAMS|DCode=30|XSize=2.5332mm|YSize=1.1832mm|CornerRadius=0.3466mm|HoleSize=0mm|Usage=FLASHONLY|Rotation=0.000|XOffset=0mm|YOffset=0mm|HoleType=Round|Shape=RoundedRectangle|*
%AMROUNDEDRECTD30*
21,1,2.5332,0.4900,0,0,0.0*
21,1,1.8400,1.1832,0,0,0.0*
1,1,0.6932,0.9200,-0.2450*
1,1,0.6932,-0.9200,-0.2450*
1,1,0.6932,-0.9200,0.2450*
1,1,0.6932,0.9200,0.2450*
%
%ADD30ROUNDEDRECTD30*%
%ADD31R,0.9532X0.8532*%
%ADD32R,1.3532X2.0032*%
%ADD33R,1.9032X1.3032*%
%ADD34R,1.4132X2.0232*%
%ADD35R,1.2032X0.9532*%
%ADD36R,0.8032X1.7032*%
%ADD37R,1.7032X0.8032*%
%ADD38R,1.2232X2.0232*%
%ADD39R,1.3032X1.9032*%
%ADD40R,1.7782X1.7782*%
%ADD41C,1.7782*%
%ADD42R,1.7782X1.7782*%
%ADD43C,1.9132*%
%ADD44R,1.9132X1.9132*%
%ADD45R,1.7112X1.7112*%
%ADD46C,1.7112*%
%ADD47C,3.7032*%
%ADD48R,1.7112X1.7112*%
%ADD49C,1.2032*%
D27*
X118110Y269770D02*
D03*
Y304270D02*
D03*
X157480Y608350D02*
D03*
Y642850D02*
D03*
D28*
X142240Y289560D02*
D03*
Y268560D02*
D03*
D29*
X240600Y284480D02*
D03*
D30*
X173500Y261680D02*
D03*
Y307280D02*
D03*
D31*
X214480Y493950D02*
D03*
X227480D02*
D03*
Y483950D02*
D03*
X214480D02*
D03*
D32*
X274080Y492760D02*
D03*
X244080D02*
D03*
X157720D02*
D03*
X187720D02*
D03*
X178280Y340360D02*
D03*
X208280D02*
D03*
D33*
X157480Y420670D02*
D03*
Y394670D02*
D03*
D34*
X181080Y228600D02*
D03*
X210080D02*
D03*
D35*
X254790Y386380D02*
D03*
X194790D02*
D03*
X254790Y423880D02*
D03*
X194790D02*
D03*
D36*
X200030Y552540D02*
D03*
X208030D02*
D03*
X216030D02*
D03*
X224030D02*
D03*
X232030D02*
D03*
X240030D02*
D03*
X248030D02*
D03*
X256030D02*
D03*
Y637540D02*
D03*
X248030D02*
D03*
X240030D02*
D03*
X232030D02*
D03*
X224030D02*
D03*
X216030D02*
D03*
X208030D02*
D03*
X200030D02*
D03*
D37*
X270530Y567040D02*
D03*
Y575040D02*
D03*
Y583040D02*
D03*
Y591040D02*
D03*
Y599040D02*
D03*
Y607040D02*
D03*
Y615040D02*
D03*
Y623040D02*
D03*
X185530D02*
D03*
Y615040D02*
D03*
Y607040D02*
D03*
Y599040D02*
D03*
Y591040D02*
D03*
Y583040D02*
D03*
Y575040D02*
D03*
Y567040D02*
D03*
D38*
X191740Y527050D02*
D03*
X219740D02*
D03*
X242540Y664210D02*
D03*
X270540D02*
D03*
D39*
X194010D02*
D03*
X220010D02*
D03*
D40*
X137160Y207010D02*
D03*
X323850Y204470D02*
D03*
D41*
X112160Y207010D02*
D03*
X76200Y278530D02*
D03*
X64600Y601780D02*
D03*
X298850Y204470D02*
D03*
X64770Y692150D02*
D03*
X65870Y510340D02*
D03*
D42*
X76200Y303530D02*
D03*
X64600Y576780D02*
D03*
X64770Y667150D02*
D03*
X65870Y485340D02*
D03*
D43*
X378460Y358140D02*
D03*
X353060D02*
D03*
X378460Y332740D02*
D03*
X353060D02*
D03*
X378460Y307340D02*
D03*
D44*
X353060D02*
D03*
D45*
X113830Y807720D02*
D03*
X243370Y806450D02*
D03*
D46*
X138830Y807720D02*
D03*
X163830D02*
D03*
X368300Y737000D02*
D03*
Y687000D02*
D03*
Y712000D02*
D03*
X293370Y806450D02*
D03*
X268370D02*
D03*
X368300Y441490D02*
D03*
Y416490D02*
D03*
Y466490D02*
D03*
X65870Y422510D02*
D03*
Y397510D02*
D03*
X368300Y575310D02*
D03*
Y550310D02*
D03*
Y600310D02*
D03*
D47*
X377190Y190500D02*
D03*
X54610Y193040D02*
D03*
X374650Y812800D02*
D03*
X54610D02*
D03*
D48*
X368300Y762000D02*
D03*
Y491490D02*
D03*
X65870Y372510D02*
D03*
X368300Y625310D02*
D03*
D49*
X183456Y648394D02*
D03*
X207010Y466090D02*
D03*
X144780Y525780D02*
D03*
X243158Y474472D02*
D03*
X205740Y600710D02*
D03*
X220020Y609910D02*
D03*
X203068Y614860D02*
D03*
X233356Y620706D02*
D03*
X248332Y569850D02*
D03*
X180340Y411480D02*
D03*
X128270Y669290D02*
D03*
X200062Y566955D02*
D03*
X316230Y320040D02*
D03*
X266700Y685800D02*
D03*
X248810Y601997D02*
D03*
X252250Y615160D02*
D03*
X267970Y539750D02*
D03*
X207010Y582930D02*
D03*
X185420Y631190D02*
D03*
X182626Y670052D02*
D03*
X281432Y555498D02*
D03*
X179324Y546862D02*
D03*
M02*
