G04*
G04 #@! TF.GenerationSoftware,Altium Limited,Altium Designer,24.1.2 (44)*
G04*
G04 Layer_Color=16711935*
%FSLAX44Y44*%
%MOMM*%
G71*
G04*
G04 #@! TF.SameCoordinates,8B991FCA-0915-420C-AD92-161D74BCA782*
G04*
G04*
G04 #@! TF.FilePolarity,Positive*
G04*
G01*
G75*
%ADD10C,0.2000*%
%ADD11C,0.1000*%
%ADD13C,0.1270*%
D10*
X77200Y335430D02*
G03*
X77200Y335430I-1000J0D01*
G01*
X215480Y473200D02*
G03*
X215480Y473200I-1000J0D01*
G01*
X65600Y544880D02*
G03*
X65600Y544880I-1000J0D01*
G01*
X356750Y204470D02*
G03*
X356750Y204470I-1000J0D01*
G01*
X211870Y806450D02*
G03*
X211870Y806450I-1000J0D01*
G01*
X369300Y520230D02*
G03*
X369300Y520230I-1000J0D01*
G01*
Y654050D02*
G03*
X369300Y654050I-1000J0D01*
G01*
X243080Y484760D02*
X275080D01*
X243080D02*
Y500760D01*
X275080D01*
Y484760D02*
Y500760D01*
X156720D02*
X188720D01*
Y484760D02*
Y500760D01*
X156720Y484760D02*
X188720D01*
X156720D02*
Y500760D01*
X177280Y348360D02*
X209280D01*
Y332360D02*
Y348360D01*
X177280Y332360D02*
X209280D01*
X177280D02*
Y348360D01*
X199290Y379630D02*
Y430630D01*
X250290D01*
Y379630D02*
Y430630D01*
X199290Y379630D02*
X250290D01*
D11*
X166480Y390670D02*
Y424670D01*
X148480Y390670D02*
Y424670D01*
X166480D01*
X148480Y390670D02*
X166480D01*
X340360Y294640D02*
X392430D01*
X340360D02*
Y370840D01*
X392430D01*
Y294640D02*
Y370840D01*
X193030Y560040D02*
Y630040D01*
X263030D01*
Y560040D02*
Y630040D01*
X193030Y560040D02*
X263030D01*
X193030Y568040D02*
X201030Y560040D01*
X189740Y535050D02*
X221740D01*
Y519050D02*
Y535050D01*
X189740Y519050D02*
X221740D01*
X189740D02*
Y535050D01*
X190010Y655210D02*
Y673210D01*
X224010Y655210D02*
Y673210D01*
X190010D02*
X224010D01*
X190010Y655210D02*
X224010D01*
X240540Y672210D02*
X272540D01*
Y656210D02*
Y672210D01*
X240540Y656210D02*
X272540D01*
X240540D02*
Y672210D01*
D13*
X87660Y241010D02*
X161660D01*
X87660Y183510D02*
Y241010D01*
Y183510D02*
X161660D01*
Y241010D01*
X110110Y271020D02*
X126110D01*
X110110Y303020D02*
X126110D01*
X110110Y271020D02*
Y303020D01*
X126110Y271020D02*
Y303020D01*
X258600Y251480D02*
Y317480D01*
X196600Y251480D02*
X258600D01*
X196600D02*
Y317480D01*
X258600D01*
X149480Y609600D02*
X165480D01*
X149480Y641600D02*
X165480D01*
X149480Y609600D02*
Y641600D01*
X165480Y609600D02*
Y641600D01*
X42200Y328030D02*
X99700D01*
Y254030D02*
Y328030D01*
X42200Y254030D02*
X99700D01*
X42200D02*
Y328030D01*
X230980Y480950D02*
Y496950D01*
X210980Y480950D02*
X230980D01*
X210980Y496950D02*
X230980D01*
X210980Y480950D02*
Y496950D01*
X178580Y219600D02*
X212580D01*
X178580Y237600D02*
X212580D01*
Y219600D02*
Y237600D01*
X178580Y219600D02*
Y237600D01*
X98600Y552280D02*
Y626280D01*
X41100D02*
X98600D01*
X41100Y552280D02*
Y626280D01*
Y552280D02*
X98600D01*
X188330Y773720D02*
Y831220D01*
X89330D02*
X188330D01*
X89330Y773720D02*
Y831220D01*
Y773720D02*
X188330D01*
X348350Y180970D02*
Y238470D01*
X274350Y180970D02*
X348350D01*
X274350D02*
Y238470D01*
X348350D01*
X334300Y786500D02*
X391800D01*
X334300Y662500D02*
Y786500D01*
X391800Y662500D02*
Y786500D01*
X334300Y662500D02*
X391800D01*
X41270Y642650D02*
X98770D01*
X41270D02*
Y716650D01*
X98770D01*
Y642650D02*
Y716650D01*
X218870Y772450D02*
X317870D01*
X218870D02*
Y829950D01*
X317870D01*
Y772450D02*
Y829950D01*
X42370Y460840D02*
X99870D01*
X42370D02*
Y534840D01*
X99870D01*
Y460840D02*
Y534840D01*
X334300Y391990D02*
Y515990D01*
X391800D01*
Y391990D02*
Y515990D01*
X334300Y391990D02*
X391800D01*
X99870Y348010D02*
Y447010D01*
X42370Y348010D02*
X99870D01*
X42370D02*
Y447010D01*
X99870D01*
X334300Y525810D02*
Y649810D01*
X391800D01*
Y525810D02*
Y649810D01*
X334300Y525810D02*
X391800D01*
M02*
