G04*
G04 #@! TF.GenerationSoftware,Altium Limited,Altium Designer,24.1.2 (44)*
G04*
G04 Layer_Color=32768*
%FSLAX44Y44*%
%MOMM*%
G71*
G04*
G04 #@! TF.SameCoordinates,8B991FCA-0915-420C-AD92-161D74BCA782*
G04*
G04*
G04 #@! TF.FilePolarity,Positive*
G04*
G01*
G75*
%ADD11C,0.1000*%
%ADD63C,0.0500*%
D11*
X152480Y407670D02*
X162480D01*
X157480Y402670D02*
Y412670D01*
X334510Y284640D02*
X394970D01*
Y380840D01*
X334510D02*
X394970D01*
X334510Y284640D02*
Y380840D01*
X169790Y369630D02*
Y440630D01*
Y369630D02*
X269790D01*
Y440630D01*
X169790D02*
X269790D01*
X202010Y664210D02*
X212010D01*
X207010Y659210D02*
Y669210D01*
D63*
X85160Y243510D02*
X164160D01*
Y181010D02*
Y243510D01*
X85160Y181010D02*
X164160D01*
X85160D02*
Y243510D01*
X107610Y261020D02*
X128610D01*
Y313020D01*
X107610D02*
X128610D01*
X107610Y261020D02*
Y313020D01*
X159300Y248980D02*
X272500D01*
Y319980D01*
X159300Y248980D02*
Y319980D01*
X272500D01*
X146980Y599600D02*
X167980D01*
Y651600D01*
X146980D02*
X167980D01*
X146980Y599600D02*
Y651600D01*
X39700Y251530D02*
X102200D01*
Y330530D01*
X39700D02*
X102200D01*
X39700Y251530D02*
Y330530D01*
X233730Y478200D02*
Y499700D01*
X208230D02*
X233730D01*
X208230Y478200D02*
X233730D01*
X208230D02*
Y499700D01*
X230330Y474760D02*
X287830D01*
X230330D02*
Y510760D01*
X287830D01*
Y474760D02*
Y510760D01*
X143970D02*
X201470D01*
Y474760D02*
Y510760D01*
X143970Y474760D02*
X201470D01*
X143970D02*
Y510760D01*
X167480Y388170D02*
Y427170D01*
X147480Y388170D02*
Y427170D01*
X167480D01*
X147480Y388170D02*
X167480D01*
X172500Y217020D02*
X218660D01*
X172500Y240180D02*
X218660D01*
X172500Y217020D02*
Y240180D01*
X218660Y217020D02*
Y240180D01*
X164530Y358360D02*
X222030D01*
Y322360D02*
Y358360D01*
X164530Y322360D02*
X222030D01*
X164530D02*
Y358360D01*
X101100Y549780D02*
Y628780D01*
X38600Y549780D02*
X101100D01*
X38600D02*
Y628780D01*
X101100D01*
X190830Y771220D02*
Y833720D01*
X86830D02*
X190830D01*
X86830Y771220D02*
Y833720D01*
Y771220D02*
X190830D01*
X271850Y178470D02*
Y240970D01*
Y178470D02*
X350850D01*
Y240970D01*
X271850D02*
X350850D01*
X331800Y660000D02*
X394300D01*
Y789000D01*
X331800D02*
X394300D01*
X331800Y660000D02*
Y789000D01*
X175530Y542540D02*
Y647540D01*
X280530D01*
Y542540D02*
Y647540D01*
X175530Y542540D02*
X280530D01*
X185140Y537650D02*
X226340D01*
Y516450D02*
Y537650D01*
X185140Y516450D02*
X226340D01*
X185140D02*
Y537650D01*
X187510Y654210D02*
Y674210D01*
X226510Y654210D02*
Y674210D01*
X187510D02*
X226510D01*
X187510Y654210D02*
X226510D01*
X235940Y674810D02*
X277140D01*
Y653610D02*
Y674810D01*
X235940Y653610D02*
X277140D01*
X235940D02*
Y674810D01*
X38770Y719150D02*
X101270D01*
X38770Y640150D02*
Y719150D01*
Y640150D02*
X101270D01*
Y719150D01*
X216370Y769950D02*
X320370D01*
X216370D02*
Y832450D01*
X320370D01*
Y769950D02*
Y832450D01*
X39870Y537340D02*
X102370D01*
X39870Y458340D02*
Y537340D01*
Y458340D02*
X102370D01*
Y537340D01*
X331800Y389490D02*
Y518490D01*
X394300D01*
Y389490D02*
Y518490D01*
X331800Y389490D02*
X394300D01*
X102370Y345510D02*
Y449510D01*
X39870Y345510D02*
X102370D01*
X39870D02*
Y449510D01*
X102370D01*
X331800Y523310D02*
Y652310D01*
X394300D01*
Y523310D02*
Y652310D01*
X331800Y523310D02*
X394300D01*
M02*
