G04*
G04 #@! TF.GenerationSoftware,Altium Limited,Altium Designer,24.1.2 (44)*
G04*
G04 Layer_Color=65535*
%FSLAX44Y44*%
%MOMM*%
G71*
G04*
G04 #@! TF.SameCoordinates,8B991FCA-0915-420C-AD92-161D74BCA782*
G04*
G04*
G04 #@! TF.FilePolarity,Positive*
G04*
G01*
G75*
%ADD10C,0.2000*%
%ADD11C,0.1000*%
%ADD12C,0.4000*%
%ADD13C,0.1270*%
%ADD14R,1.2000X0.2000*%
D10*
X168640Y212090D02*
G03*
X168640Y212090I-1000J0D01*
G01*
X156720Y307280D02*
G03*
X156720Y307280I-1000J0D01*
G01*
X77200Y335430D02*
G03*
X77200Y335430I-1000J0D01*
G01*
X215480Y473200D02*
G03*
X215480Y473200I-1000J0D01*
G01*
X283080Y492760D02*
G03*
X283080Y492760I-500J0D01*
G01*
X149720D02*
G03*
X149720Y492760I-500J0D01*
G01*
X170280Y340360D02*
G03*
X170280Y340360I-500J0D01*
G01*
X65600Y544880D02*
G03*
X65600Y544880I-1000J0D01*
G01*
X85410Y807720D02*
G03*
X85410Y807720I-1000J0D01*
G01*
X356750Y204470D02*
G03*
X356750Y204470I-1000J0D01*
G01*
X179790Y424130D02*
G03*
X180790Y424130I500J0D01*
G01*
D02*
G03*
X179790Y424130I-500J0D01*
G01*
D02*
G03*
X180790Y424130I500J0D01*
G01*
X211870Y806450D02*
G03*
X211870Y806450I-1000J0D01*
G01*
X369300Y520230D02*
G03*
X369300Y520230I-1000J0D01*
G01*
Y654050D02*
G03*
X369300Y654050I-1000J0D01*
G01*
X164980Y404170D02*
Y411170D01*
X149980Y404170D02*
Y411170D01*
X340360Y294640D02*
X392430D01*
Y370840D01*
X340360D02*
X392430D01*
X340360Y294640D02*
Y370840D01*
X196530Y563540D02*
Y626540D01*
X259530D01*
Y563540D02*
Y626540D01*
X196530Y563540D02*
X259530D01*
X205740Y520050D02*
Y534050D01*
X203510Y671710D02*
X210510D01*
X203510Y656710D02*
X210510D01*
X256540Y657210D02*
Y671210D01*
D11*
X353060Y290340D02*
G03*
X353060Y289340I0J-500D01*
G01*
D02*
G03*
X353060Y290340I0J500D01*
G01*
X204790Y379630D02*
X244790D01*
X204790Y430630D02*
X244790D01*
X250290Y395130D02*
Y415130D01*
X199290Y395130D02*
Y415130D01*
X399050Y705850D02*
X395051D01*
Y707849D01*
X395718Y708516D01*
X397051D01*
X397717Y707849D01*
Y705850D01*
Y707183D02*
X399050Y708516D01*
X395051Y709849D02*
X399050Y712514D01*
X395051D02*
X399050Y709849D01*
Y569960D02*
X395051D01*
Y571959D01*
X395718Y572626D01*
X397051D01*
X397717Y571959D01*
Y569960D01*
Y571293D02*
X399050Y572626D01*
X395051Y573959D02*
X399050Y576624D01*
X395051D02*
X399050Y573959D01*
Y436610D02*
X395051D01*
Y438609D01*
X395718Y439276D01*
X397051D01*
X397717Y438609D01*
Y436610D01*
Y437943D02*
X399050Y439276D01*
X395051Y440609D02*
X399050Y443274D01*
X395051D02*
X399050Y440609D01*
X395051Y463280D02*
Y465946D01*
Y464613D01*
X399050D01*
X395051Y467279D02*
X399050Y469944D01*
X395051D02*
X399050Y467279D01*
X395051Y595360D02*
Y598026D01*
Y596693D01*
X399050D01*
X395051Y599359D02*
X399050Y602024D01*
X395051D02*
X399050Y599359D01*
X395051Y735060D02*
Y737726D01*
Y736393D01*
X399050D01*
X395051Y739059D02*
X399050Y741724D01*
X395051D02*
X399050Y739059D01*
Y326120D02*
X395051D01*
X396384Y327453D01*
X395051Y328786D01*
X399050D01*
X395051Y332118D02*
Y330785D01*
X395718Y330119D01*
X398384D01*
X399050Y330785D01*
Y332118D01*
X398384Y332785D01*
X395718D01*
X395051Y332118D01*
X395718Y336783D02*
X395051Y336117D01*
Y334784D01*
X395718Y334117D01*
X396384D01*
X397051Y334784D01*
Y336117D01*
X397717Y336783D01*
X398384D01*
X399050Y336117D01*
Y334784D01*
X398384Y334117D01*
X395051Y338116D02*
Y339449D01*
Y338783D01*
X399050D01*
Y338116D01*
Y339449D01*
X328408Y336406D02*
X327741Y335739D01*
Y334406D01*
X328408Y333740D01*
X329074D01*
X329741Y334406D01*
Y335739D01*
X330407Y336406D01*
X331074D01*
X331740Y335739D01*
Y334406D01*
X331074Y333740D01*
X328408Y340405D02*
X327741Y339738D01*
Y338405D01*
X328408Y337739D01*
X331074D01*
X331740Y338405D01*
Y339738D01*
X331074Y340405D01*
X327741Y341737D02*
X331740D01*
X330407D01*
X327741Y344403D01*
X329741Y342404D01*
X331740Y344403D01*
Y303260D02*
X327741D01*
X329074Y304593D01*
X327741Y305926D01*
X331740D01*
X327741Y307259D02*
Y308592D01*
Y307925D01*
X331740D01*
Y307259D01*
Y308592D01*
X328408Y313257D02*
X327741Y312590D01*
Y311257D01*
X328408Y310591D01*
X329074D01*
X329741Y311257D01*
Y312590D01*
X330407Y313257D01*
X331074D01*
X331740Y312590D01*
Y311257D01*
X331074Y310591D01*
X327741Y316589D02*
Y315256D01*
X328408Y314590D01*
X331074D01*
X331740Y315256D01*
Y316589D01*
X331074Y317255D01*
X328408D01*
X327741Y316589D01*
X331740Y352790D02*
X327741D01*
Y354789D01*
X328408Y355456D01*
X329741D01*
X330407Y354789D01*
Y352790D01*
Y354123D02*
X331740Y355456D01*
X328408Y359454D02*
X327741Y358788D01*
Y357455D01*
X328408Y356789D01*
X329074D01*
X329741Y357455D01*
Y358788D01*
X330407Y359454D01*
X331074D01*
X331740Y358788D01*
Y357455D01*
X331074Y356789D01*
X327741Y360787D02*
Y363453D01*
Y362120D01*
X331740D01*
X396447Y305800D02*
Y308466D01*
X395114Y307133D02*
X397780D01*
X397780Y357870D02*
Y360536D01*
X396447Y763000D02*
Y765666D01*
X395114Y764333D02*
X397780D01*
X397780Y685530D02*
Y688196D01*
X397717Y624570D02*
Y627236D01*
X396384Y625903D02*
X399050D01*
X397780Y549640D02*
Y552306D01*
X397717Y491220D02*
Y493886D01*
X396384Y492553D02*
X399050D01*
X397780Y415020D02*
Y417686D01*
X284392Y765936D02*
Y768602D01*
X285725Y769934D01*
X287058Y768602D01*
Y765936D01*
Y767935D01*
X284392D01*
X288391Y765936D02*
X289723D01*
X289057D01*
Y769934D01*
X288391D01*
X293722Y765936D02*
X292389D01*
X291723Y766602D01*
Y767935D01*
X292389Y768602D01*
X293722D01*
X294389Y767935D01*
Y767269D01*
X291723D01*
X295721Y768602D02*
Y765936D01*
Y767269D01*
X296388Y767935D01*
X297054Y768602D01*
X297721D01*
X300387Y769268D02*
Y768602D01*
X299720D01*
X301053D01*
X300387D01*
Y766602D01*
X301053Y765936D01*
X264016Y768872D02*
X263349Y769539D01*
X262016D01*
X261350Y768872D01*
Y768206D01*
X262016Y767539D01*
X263349D01*
X264016Y766873D01*
Y766206D01*
X263349Y765540D01*
X262016D01*
X261350Y766206D01*
X265349Y769539D02*
Y765540D01*
X267348D01*
X268015Y766206D01*
Y768872D01*
X267348Y769539D01*
X265349D01*
X269347Y765540D02*
Y768206D01*
X270680Y769539D01*
X272013Y768206D01*
Y765540D01*
Y767539D01*
X269347D01*
X241156Y768872D02*
X240489Y769539D01*
X239156D01*
X238490Y768872D01*
Y768206D01*
X239156Y767539D01*
X240489D01*
X241156Y766873D01*
Y766206D01*
X240489Y765540D01*
X239156D01*
X238490Y766206D01*
X245154Y768872D02*
X244488Y769539D01*
X243155D01*
X242489Y768872D01*
Y766206D01*
X243155Y765540D01*
X244488D01*
X245154Y766206D01*
X246487Y769539D02*
Y765540D01*
X249153D01*
X161020Y766810D02*
Y769476D01*
X162353Y770809D01*
X163686Y769476D01*
Y766810D01*
Y768809D01*
X161020D01*
X165019Y766810D02*
X166352D01*
X165685D01*
Y770809D01*
X165019D01*
X170350Y766810D02*
X169017D01*
X168351Y767476D01*
Y768809D01*
X169017Y769476D01*
X170350D01*
X171017Y768809D01*
Y768143D01*
X168351D01*
X172350Y769476D02*
Y766810D01*
Y768143D01*
X173016Y768809D01*
X173682Y769476D01*
X174349D01*
X177015Y770142D02*
Y769476D01*
X176348D01*
X177681D01*
X177015D01*
Y767476D01*
X177681Y766810D01*
X111616Y770142D02*
X110949Y770809D01*
X109616D01*
X108950Y770142D01*
Y769476D01*
X109616Y768809D01*
X110949D01*
X111616Y768143D01*
Y767476D01*
X110949Y766810D01*
X109616D01*
X108950Y767476D01*
X115615Y770142D02*
X114948Y770809D01*
X113615D01*
X112949Y770142D01*
Y767476D01*
X113615Y766810D01*
X114948D01*
X115615Y767476D01*
X116947Y770809D02*
Y766810D01*
X119613D01*
X137016Y770142D02*
X136349Y770809D01*
X135016D01*
X134350Y770142D01*
Y769476D01*
X135016Y768809D01*
X136349D01*
X137016Y768143D01*
Y767476D01*
X136349Y766810D01*
X135016D01*
X134350Y767476D01*
X138349Y770809D02*
Y766810D01*
X140348D01*
X141014Y767476D01*
Y770142D01*
X140348Y770809D01*
X138349D01*
X142347Y766810D02*
Y769476D01*
X143680Y770809D01*
X145013Y769476D01*
Y766810D01*
Y768809D01*
X142347D01*
X31480Y672100D02*
X35479D01*
Y670101D01*
X34812Y669434D01*
X33479D01*
X32813Y670101D01*
Y672100D01*
X35479Y668101D02*
X31480D01*
X32813Y666768D01*
X31480Y665435D01*
X35479D01*
X31480Y664103D02*
X35479D01*
X34146Y662770D01*
X35479Y661437D01*
X31480D01*
X35479Y689754D02*
Y692420D01*
X31480D01*
Y689754D01*
X33479Y692420D02*
Y691087D01*
X31480Y688421D02*
X35479D01*
X31480Y685755D01*
X35479D01*
X36749Y602124D02*
Y604790D01*
X32750D01*
Y602124D01*
X34749Y604790D02*
Y603457D01*
X32750Y600791D02*
X36749D01*
X32750Y598125D01*
X36749D01*
X32750Y584470D02*
X36749D01*
Y582471D01*
X36082Y581804D01*
X34749D01*
X34083Y582471D01*
Y584470D01*
X36749Y580471D02*
X32750D01*
X34083Y579138D01*
X32750Y577805D01*
X36749D01*
X32750Y576473D02*
X36749D01*
X35416Y575140D01*
X36749Y573807D01*
X32750D01*
X326120Y176323D02*
X328786D01*
X327453Y177656D02*
Y174990D01*
X298180D02*
X300846D01*
X107680D02*
X110346D01*
X135620Y176323D02*
X138286D01*
X136953Y177656D02*
Y174990D01*
X140907Y259809D02*
X139574D01*
X138908Y259143D01*
Y256477D01*
X139574Y255811D01*
X140907D01*
X141574Y256477D01*
Y259143D01*
X140907Y259809D01*
X142906Y255811D02*
Y259809D01*
X145572Y255811D01*
Y259809D01*
X114174Y255811D02*
Y259809D01*
X116174D01*
X116840Y259143D01*
Y257810D01*
X116174Y257144D01*
X114174D01*
X115507D02*
X116840Y255811D01*
X118173D02*
X119506D01*
X118839D01*
Y259809D01*
X118173Y259143D01*
X37559Y277564D02*
Y279563D01*
X36893Y280230D01*
X36226Y279563D01*
Y278230D01*
X35560Y277564D01*
X34894Y278230D01*
Y280230D01*
Y281563D02*
X36893D01*
X37559Y282229D01*
X36893Y282896D01*
X37559Y283562D01*
X36893Y284228D01*
X34894D01*
X37559Y285561D02*
Y286894D01*
Y286228D01*
X34894D01*
Y285561D01*
X34227Y289560D02*
X34894D01*
Y288894D01*
Y290226D01*
Y289560D01*
X36893D01*
X37559Y290226D01*
X34894Y294892D02*
Y292892D01*
X35560Y292226D01*
X36893D01*
X37559Y292892D01*
Y294892D01*
X33561Y296224D02*
X37559D01*
X35560D01*
X34894Y296891D01*
Y298224D01*
X35560Y298890D01*
X37559D01*
Y300223D02*
Y301556D01*
Y300890D01*
X33561D01*
X34227Y300223D01*
X226060Y223583D02*
X225394Y224249D01*
X224061D01*
X223394Y223583D01*
Y220917D01*
X224061Y220251D01*
X225394D01*
X226060Y220917D01*
X227393Y220251D02*
X228726D01*
X228059D01*
Y224249D01*
X227393Y223583D01*
X229204Y332803D02*
X228537Y333469D01*
X227204D01*
X226538Y332803D01*
Y330137D01*
X227204Y329471D01*
X228537D01*
X229204Y330137D01*
X233202Y329471D02*
X230536D01*
X233202Y332136D01*
Y332803D01*
X232536Y333469D01*
X231203D01*
X230536Y332803D01*
X287202Y244381D02*
Y248379D01*
X289201D01*
X289868Y247713D01*
Y246380D01*
X289201Y245714D01*
X287202D01*
X291867Y244381D02*
X293200D01*
X293867Y245047D01*
Y246380D01*
X293200Y247047D01*
X291867D01*
X291201Y246380D01*
Y245047D01*
X291867Y244381D01*
X295199Y247047D02*
Y245047D01*
X295866Y244381D01*
X296532Y245047D01*
X297199Y244381D01*
X297865Y245047D01*
Y247047D01*
X301197Y244381D02*
X299865D01*
X299198Y245047D01*
Y246380D01*
X299865Y247047D01*
X301197D01*
X301864Y246380D01*
Y245714D01*
X299198D01*
X303197Y247047D02*
Y244381D01*
Y245714D01*
X303863Y246380D01*
X304530Y247047D01*
X305196D01*
X308528Y244381D02*
X307195Y245714D01*
Y247047D01*
X308528Y248379D01*
X313193D02*
X310528D01*
Y246380D01*
X311861Y247047D01*
X312527D01*
X313193Y246380D01*
Y245047D01*
X312527Y244381D01*
X311194D01*
X310528Y245047D01*
X314526Y248379D02*
Y245714D01*
X315859Y244381D01*
X317192Y245714D01*
Y248379D01*
X318525Y244381D02*
X319858Y245714D01*
Y247047D01*
X318525Y248379D01*
X350520Y386809D02*
X349187D01*
X349854D01*
Y383477D01*
X349187Y382811D01*
X348521D01*
X347854Y383477D01*
X351853Y382811D02*
X353186D01*
X352519D01*
Y386809D01*
X351853Y386143D01*
X149734Y319499D02*
Y316167D01*
X150401Y315501D01*
X151734D01*
X152400Y316167D01*
Y319499D01*
X153733Y315501D02*
X155066D01*
X154399D01*
Y319499D01*
X153733Y318833D01*
X326993Y434333D02*
X328993D01*
X329659Y435000D01*
Y436999D01*
X326993D01*
X329659Y438332D02*
Y439665D01*
Y438998D01*
X325661D01*
Y438332D01*
X326327Y442331D02*
X326993D01*
Y441664D01*
Y442997D01*
Y442331D01*
X328993D01*
X329659Y442997D01*
X326993Y444996D02*
X329659D01*
X328326D01*
X327660Y445663D01*
X326993Y446329D01*
Y446996D01*
Y449662D02*
Y450995D01*
X327660Y451661D01*
X329659D01*
Y449662D01*
X328993Y448995D01*
X328326Y449662D01*
Y451661D01*
X329659Y452994D02*
Y454993D01*
X328993Y455660D01*
X328326Y454993D01*
Y453660D01*
X327660Y452994D01*
X326993Y453660D01*
Y455660D01*
X329659Y457659D02*
Y458992D01*
X328993Y459658D01*
X327660D01*
X326993Y458992D01*
Y457659D01*
X327660Y456993D01*
X328993D01*
X329659Y457659D01*
Y460991D02*
X326993D01*
Y462991D01*
X327660Y463657D01*
X329659D01*
Y464990D02*
Y466323D01*
Y465656D01*
X326993D01*
Y464990D01*
Y470988D02*
Y468989D01*
X327660Y468322D01*
X328993D01*
X329659Y468989D01*
Y470988D01*
X326327Y472321D02*
X325661Y472987D01*
Y474320D01*
X326327Y474987D01*
X326993D01*
X327660Y474320D01*
Y473654D01*
Y474320D01*
X328326Y474987D01*
X328993D01*
X329659Y474320D01*
Y472987D01*
X328993Y472321D01*
X326993Y563873D02*
X328993D01*
X329659Y564540D01*
Y566539D01*
X326993D01*
X329659Y567872D02*
Y569205D01*
Y568538D01*
X325661D01*
Y567872D01*
X326327Y571871D02*
X326993D01*
Y571204D01*
Y572537D01*
Y571871D01*
X328993D01*
X329659Y572537D01*
X326993Y574537D02*
X329659D01*
X328326D01*
X327660Y575203D01*
X326993Y575869D01*
Y576536D01*
Y579202D02*
Y580535D01*
X327660Y581201D01*
X329659D01*
Y579202D01*
X328993Y578535D01*
X328326Y579202D01*
Y581201D01*
X329659Y582534D02*
Y584533D01*
X328993Y585200D01*
X328326Y584533D01*
Y583200D01*
X327660Y582534D01*
X326993Y583200D01*
Y585200D01*
X329659Y587199D02*
Y588532D01*
X328993Y589198D01*
X327660D01*
X326993Y588532D01*
Y587199D01*
X327660Y586533D01*
X328993D01*
X329659Y587199D01*
Y590531D02*
X326993D01*
Y592531D01*
X327660Y593197D01*
X329659D01*
Y594530D02*
Y595863D01*
Y595196D01*
X326993D01*
Y594530D01*
Y600528D02*
Y598529D01*
X327660Y597862D01*
X328993D01*
X329659Y598529D01*
Y600528D01*
Y604527D02*
Y601861D01*
X326993Y604527D01*
X326327D01*
X325661Y603860D01*
Y602527D01*
X326327Y601861D01*
X326993Y704240D02*
X328993D01*
X329659Y704906D01*
Y706906D01*
X326993D01*
X329659Y708238D02*
Y709571D01*
Y708905D01*
X325661D01*
Y708238D01*
X326327Y712237D02*
X326993D01*
Y711571D01*
Y712904D01*
Y712237D01*
X328993D01*
X329659Y712904D01*
X326993Y714903D02*
X329659D01*
X328326D01*
X327660Y715569D01*
X326993Y716236D01*
Y716902D01*
Y719568D02*
Y720901D01*
X327660Y721567D01*
X329659D01*
Y719568D01*
X328993Y718902D01*
X328326Y719568D01*
Y721567D01*
X329659Y722900D02*
Y724900D01*
X328993Y725566D01*
X328326Y724900D01*
Y723567D01*
X327660Y722900D01*
X326993Y723567D01*
Y725566D01*
X329659Y727566D02*
Y728898D01*
X328993Y729565D01*
X327660D01*
X326993Y728898D01*
Y727566D01*
X327660Y726899D01*
X328993D01*
X329659Y727566D01*
Y730898D02*
X326993D01*
Y732897D01*
X327660Y733564D01*
X329659D01*
Y734896D02*
Y736229D01*
Y735563D01*
X326993D01*
Y734896D01*
Y740894D02*
Y738895D01*
X327660Y738229D01*
X328993D01*
X329659Y738895D01*
Y740894D01*
Y742227D02*
Y743560D01*
Y742894D01*
X325661D01*
X326327Y742227D01*
X175260Y447103D02*
X174594Y447769D01*
X173261D01*
X172594Y447103D01*
Y446437D01*
X173261Y445770D01*
X174594D01*
X175260Y445104D01*
Y444437D01*
X174594Y443771D01*
X173261D01*
X172594Y444437D01*
X176593Y443771D02*
X177926D01*
X177259D01*
Y447769D01*
X176593Y447103D01*
X151608Y652051D02*
Y656049D01*
X153607D01*
X154274Y655383D01*
Y654050D01*
X153607Y653384D01*
X151608D01*
X152941D02*
X154274Y652051D01*
X158272D02*
X155606D01*
X158272Y654716D01*
Y655383D01*
X157606Y656049D01*
X156273D01*
X155606Y655383D01*
X107736Y245651D02*
Y249649D01*
X109735D01*
X110402Y248983D01*
Y247650D01*
X109735Y246984D01*
X107736D01*
X112401Y245651D02*
X113734D01*
X114400Y246317D01*
Y247650D01*
X113734Y248316D01*
X112401D01*
X111735Y247650D01*
Y246317D01*
X112401Y245651D01*
X115733Y248316D02*
Y246317D01*
X116400Y245651D01*
X117066Y246317D01*
X117733Y245651D01*
X118399Y246317D01*
Y248316D01*
X121731Y245651D02*
X120398D01*
X119732Y246317D01*
Y247650D01*
X120398Y248316D01*
X121731D01*
X122398Y247650D01*
Y246984D01*
X119732D01*
X123731Y248316D02*
Y245651D01*
Y246984D01*
X124397Y247650D01*
X125064Y248316D01*
X125730D01*
X129062Y245651D02*
X127729Y246984D01*
Y248316D01*
X129062Y249649D01*
X131062Y245651D02*
X132395D01*
X131728D01*
Y249649D01*
X131062Y248983D01*
X137060Y245651D02*
X134394D01*
X137060Y248316D01*
Y248983D01*
X136393Y249649D01*
X135060D01*
X134394Y248983D01*
X138393Y249649D02*
Y246984D01*
X139726Y245651D01*
X141058Y246984D01*
Y249649D01*
X142391Y245651D02*
X143724Y246984D01*
Y248316D01*
X142391Y249649D01*
X174738Y659859D02*
X176071D01*
X175404D01*
Y655861D01*
X174738D01*
X176071D01*
X180736Y659193D02*
X180070Y659859D01*
X178737D01*
X178070Y659193D01*
Y656527D01*
X178737Y655861D01*
X180070D01*
X180736Y656527D01*
X182069Y655861D02*
X183402D01*
X182736D01*
Y659859D01*
X182069Y659193D01*
X106976Y714424D02*
X102977D01*
X104977D01*
Y711758D01*
X106976D01*
X102977D01*
X104977Y710426D02*
Y707760D01*
X106976Y706427D02*
X102977D01*
Y704427D01*
X103644Y703761D01*
X104310D01*
X104977Y704427D01*
Y706427D01*
Y704427D01*
X105643Y703761D01*
X106309D01*
X106976Y704427D01*
Y706427D01*
X105643Y702428D02*
X102977D01*
X104310D01*
X104977Y701762D01*
X105643Y701095D01*
Y700429D01*
X102977Y698429D02*
Y697097D01*
Y697763D01*
X105643D01*
Y698429D01*
X106976Y692431D02*
X102977D01*
Y694431D01*
X103644Y695097D01*
X104977D01*
X105643Y694431D01*
Y692431D01*
X101644Y689766D02*
Y689099D01*
X102311Y688433D01*
X105643D01*
Y690432D01*
X104977Y691098D01*
X103644D01*
X102977Y690432D01*
Y688433D01*
Y685100D02*
Y686433D01*
X103644Y687100D01*
X104977D01*
X105643Y686433D01*
Y685100D01*
X104977Y684434D01*
X104310D01*
Y687100D01*
X102977Y680435D02*
Y683101D01*
X105643Y680435D01*
X106309D01*
X106976Y681102D01*
Y682435D01*
X106309Y683101D01*
X108076Y622118D02*
X104077D01*
X106076D01*
Y619452D01*
X108076D01*
X104077D01*
X106076Y618119D02*
Y615453D01*
X108076Y614121D02*
X104077D01*
Y612121D01*
X104743Y611455D01*
X105410D01*
X106076Y612121D01*
Y614121D01*
Y612121D01*
X106743Y611455D01*
X107409D01*
X108076Y612121D01*
Y614121D01*
X106743Y610122D02*
X104077D01*
X105410D01*
X106076Y609455D01*
X106743Y608789D01*
Y608122D01*
X104077Y606123D02*
Y604790D01*
Y605457D01*
X106743D01*
Y606123D01*
X108076Y600125D02*
X104077D01*
Y602124D01*
X104743Y602791D01*
X106076D01*
X106743Y602124D01*
Y600125D01*
X102744Y597459D02*
Y596793D01*
X103411Y596126D01*
X106743D01*
Y598126D01*
X106076Y598792D01*
X104743D01*
X104077Y598126D01*
Y596126D01*
Y592794D02*
Y594127D01*
X104743Y594794D01*
X106076D01*
X106743Y594127D01*
Y592794D01*
X106076Y592128D01*
X105410D01*
Y594794D01*
X104077Y590795D02*
Y589462D01*
Y590128D01*
X108076D01*
X107409Y590795D01*
X109176Y415123D02*
X105177D01*
Y413124D01*
X105843Y412457D01*
X108509D01*
X109176Y413124D01*
Y415123D01*
X105177Y411124D02*
Y409791D01*
Y410458D01*
X107843D01*
Y411124D01*
X103844Y406459D02*
Y405793D01*
X104511Y405126D01*
X107843D01*
Y407125D01*
X107176Y407792D01*
X105843D01*
X105177Y407125D01*
Y405126D01*
Y403793D02*
Y402460D01*
Y403127D01*
X107843D01*
Y403793D01*
X108509Y399795D02*
X107843D01*
Y400461D01*
Y399128D01*
Y399795D01*
X105843D01*
X105177Y399128D01*
X107843Y396462D02*
Y395129D01*
X107176Y394463D01*
X105177D01*
Y396462D01*
X105843Y397129D01*
X106510Y396462D01*
Y394463D01*
X105177Y393130D02*
Y391797D01*
Y392464D01*
X109176D01*
Y393130D01*
X111376Y761396D02*
X109376D01*
X108710Y760730D01*
Y759397D01*
X109376Y758731D01*
X111376D01*
X112709Y761396D02*
Y759397D01*
X113375Y758731D01*
X115375D01*
Y761396D01*
X116707D02*
Y758731D01*
Y760064D01*
X117374Y760730D01*
X118040Y761396D01*
X118707D01*
X120706D02*
Y758731D01*
Y760064D01*
X121373Y760730D01*
X122039Y761396D01*
X122705D01*
X126704Y758731D02*
X125371D01*
X124705Y759397D01*
Y760730D01*
X125371Y761396D01*
X126704D01*
X127371Y760730D01*
Y760064D01*
X124705D01*
X128704Y758731D02*
Y761396D01*
X130703D01*
X131369Y760730D01*
Y758731D01*
X133369Y762063D02*
Y761396D01*
X132702D01*
X134035D01*
X133369D01*
Y759397D01*
X134035Y758731D01*
X140033D02*
X142033D01*
X142699Y759397D01*
X142033Y760064D01*
X140700D01*
X140033Y760730D01*
X140700Y761396D01*
X142699D01*
X146031Y758731D02*
X144698D01*
X144032Y759397D01*
Y760730D01*
X144698Y761396D01*
X146031D01*
X146698Y760730D01*
Y760064D01*
X144032D01*
X148031Y758731D02*
Y761396D01*
X150030D01*
X150696Y760730D01*
Y758731D01*
X152029D02*
X154029D01*
X154695Y759397D01*
X154029Y760064D01*
X152696D01*
X152029Y760730D01*
X152696Y761396D01*
X154695D01*
X156694Y758731D02*
X158027D01*
X158694Y759397D01*
Y760730D01*
X158027Y761396D01*
X156694D01*
X156028Y760730D01*
Y759397D01*
X156694Y758731D01*
X160027Y761396D02*
Y758731D01*
Y760064D01*
X160693Y760730D01*
X161360Y761396D01*
X162026D01*
X170690Y758731D02*
X168024D01*
X170690Y761396D01*
Y762063D01*
X170023Y762729D01*
X168690D01*
X168024Y762063D01*
X244122Y761396D02*
X242123D01*
X241457Y760730D01*
Y759397D01*
X242123Y758731D01*
X244122D01*
X245455Y761396D02*
Y759397D01*
X246122Y758731D01*
X248121D01*
Y761396D01*
X249454D02*
Y758731D01*
Y760064D01*
X250120Y760730D01*
X250787Y761396D01*
X251453D01*
X253453D02*
Y758731D01*
Y760064D01*
X254119Y760730D01*
X254785Y761396D01*
X255452D01*
X259451Y758731D02*
X258118D01*
X257451Y759397D01*
Y760730D01*
X258118Y761396D01*
X259451D01*
X260117Y760730D01*
Y760064D01*
X257451D01*
X261450Y758731D02*
Y761396D01*
X263449D01*
X264116Y760730D01*
Y758731D01*
X266115Y762063D02*
Y761396D01*
X265449D01*
X266782D01*
X266115D01*
Y759397D01*
X266782Y758731D01*
X272780D02*
X274779D01*
X275445Y759397D01*
X274779Y760064D01*
X273446D01*
X272780Y760730D01*
X273446Y761396D01*
X275445D01*
X278778Y758731D02*
X277445D01*
X276778Y759397D01*
Y760730D01*
X277445Y761396D01*
X278778D01*
X279444Y760730D01*
Y760064D01*
X276778D01*
X280777Y758731D02*
Y761396D01*
X282776D01*
X283443Y760730D01*
Y758731D01*
X284776D02*
X286775D01*
X287442Y759397D01*
X286775Y760064D01*
X285442D01*
X284776Y760730D01*
X285442Y761396D01*
X287442D01*
X289441Y758731D02*
X290774D01*
X291440Y759397D01*
Y760730D01*
X290774Y761396D01*
X289441D01*
X288775Y760730D01*
Y759397D01*
X289441Y758731D01*
X292773Y761396D02*
Y758731D01*
Y760064D01*
X293440Y760730D01*
X294106Y761396D01*
X294772D01*
X300771Y758731D02*
X302104D01*
X301437D01*
Y762729D01*
X300771Y762063D01*
X206644Y679513D02*
X205977Y680179D01*
X204644D01*
X203978Y679513D01*
Y676847D01*
X204644Y676181D01*
X205977D01*
X206644Y676847D01*
X210642Y680179D02*
X209309Y679513D01*
X207976Y678180D01*
Y676847D01*
X208643Y676181D01*
X209976D01*
X210642Y676847D01*
Y677514D01*
X209976Y678180D01*
X207976D01*
X255874Y679513D02*
X255207Y680179D01*
X253874D01*
X253208Y679513D01*
Y676847D01*
X253874Y676181D01*
X255207D01*
X255874Y676847D01*
X259872Y680179D02*
X257206D01*
Y678180D01*
X258539Y678847D01*
X259206D01*
X259872Y678180D01*
Y676847D01*
X259206Y676181D01*
X257873D01*
X257206Y676847D01*
X230474Y528383D02*
X229807Y529049D01*
X228474D01*
X227808Y528383D01*
Y525717D01*
X228474Y525051D01*
X229807D01*
X230474Y525717D01*
X233806Y525051D02*
Y529049D01*
X231806Y527050D01*
X234472D01*
X155544Y434403D02*
X154877Y435069D01*
X153544D01*
X152878Y434403D01*
Y431737D01*
X153544Y431071D01*
X154877D01*
X155544Y431737D01*
X156876Y434403D02*
X157543Y435069D01*
X158876D01*
X159542Y434403D01*
Y433736D01*
X158876Y433070D01*
X158209D01*
X158876D01*
X159542Y432404D01*
Y431737D01*
X158876Y431071D01*
X157543D01*
X156876Y431737D01*
X107051Y510592D02*
X109717D01*
X111049Y509259D01*
X109717Y507926D01*
X107051D01*
X109050D01*
Y510592D01*
X107051Y506593D02*
X109717Y503927D01*
X111049Y502594D02*
X107051D01*
Y500595D01*
X107717Y499928D01*
X110383D01*
X111049Y500595D01*
Y502594D01*
X257144Y515683D02*
X256477Y516349D01*
X255144D01*
X254478Y515683D01*
Y513017D01*
X255144Y512351D01*
X256477D01*
X257144Y513017D01*
X258476Y515683D02*
X259143Y516349D01*
X260476D01*
X261142Y515683D01*
Y515017D01*
X260476Y514350D01*
X261142Y513684D01*
Y513017D01*
X260476Y512351D01*
X259143D01*
X258476Y513017D01*
Y513684D01*
X259143Y514350D01*
X258476Y515017D01*
Y515683D01*
X259143Y514350D02*
X260476D01*
X168244Y515683D02*
X167577Y516349D01*
X166244D01*
X165578Y515683D01*
Y513017D01*
X166244Y512351D01*
X167577D01*
X168244Y513017D01*
X169576Y516349D02*
X172242D01*
Y515683D01*
X169576Y513017D01*
Y512351D01*
X211983Y500921D02*
X213316D01*
X212649D01*
Y504919D01*
X211983Y504253D01*
X217981Y504919D02*
X216648Y504253D01*
X215315Y502920D01*
Y501587D01*
X215982Y500921D01*
X217315D01*
X217981Y501587D01*
Y502254D01*
X217315Y502920D01*
X215315D01*
X219314Y500921D02*
Y504919D01*
X220647Y503587D01*
X221980Y504919D01*
Y500921D01*
X223313Y504919D02*
Y500921D01*
Y502920D01*
X225978D01*
Y504919D01*
Y500921D01*
X227311Y503587D02*
X229977D01*
X227311Y500921D01*
X229977D01*
D12*
X190030Y549040D02*
G03*
X190030Y549040I-2000J0D01*
G01*
D13*
X87660Y241010D02*
X161660D01*
X87660Y183510D02*
Y241010D01*
Y183510D02*
X161660D01*
Y241010D01*
X110110Y279220D02*
Y294820D01*
X126110Y279220D02*
Y294820D01*
X196600Y251480D02*
X258600D01*
X196600D02*
Y317480D01*
X258600D01*
X149480Y617800D02*
Y633400D01*
X165480Y617800D02*
Y633400D01*
X42200Y328030D02*
X99700D01*
Y254030D02*
Y328030D01*
X42200Y254030D02*
X99700D01*
X42200D02*
Y328030D01*
X190380Y237600D02*
X200780D01*
X190380Y219600D02*
X200780D01*
X98600Y552280D02*
Y626280D01*
X41100D02*
X98600D01*
X41100Y552280D02*
Y626280D01*
Y552280D02*
X98600D01*
X188330Y773720D02*
Y831220D01*
X89330D02*
X188330D01*
X89330Y773720D02*
Y831220D01*
Y773720D02*
X188330D01*
X348350Y180970D02*
Y238470D01*
X274350Y180970D02*
X348350D01*
X274350D02*
Y238470D01*
X348350D01*
X334300Y786500D02*
X391800D01*
X334300Y662500D02*
Y786500D01*
X391800Y662500D02*
Y786500D01*
X334300Y662500D02*
X391800D01*
X41270Y642650D02*
X98770D01*
X41270D02*
Y716650D01*
X98770D01*
Y642650D02*
Y716650D01*
X218870Y772450D02*
X317870D01*
X218870D02*
Y829950D01*
X317870D01*
Y772450D02*
Y829950D01*
X42370Y460840D02*
X99870D01*
X42370D02*
Y534840D01*
X99870D01*
Y460840D02*
Y534840D01*
X334300Y391990D02*
Y515990D01*
X391800D01*
Y391990D02*
Y515990D01*
X334300Y391990D02*
X391800D01*
X99870Y348010D02*
Y447010D01*
X42370Y348010D02*
X99870D01*
X42370D02*
Y447010D01*
X99870D01*
X334300Y525810D02*
Y649810D01*
X391800D01*
Y525810D02*
Y649810D01*
X334300Y525810D02*
X391800D01*
D14*
X142240Y298060D02*
D03*
M02*
