G04*
G04 #@! TF.GenerationSoftware,Altium Limited,Altium Designer,24.1.2 (44)*
G04*
G04 Layer_Color=255*
%FSLAX44Y44*%
%MOMM*%
G71*
G04*
G04 #@! TF.SameCoordinates,8B991FCA-0915-420C-AD92-161D74BCA782*
G04*
G04*
G04 #@! TF.FilePolarity,Positive*
G04*
G01*
G75*
%ADD53R,1.5750X1.5750*%
%ADD54C,1.5750*%
%ADD55R,1.5750X1.5750*%
%ADD56C,1.7100*%
%ADD57R,1.7100X1.7100*%
%ADD58R,1.5080X1.5080*%
%ADD59C,1.5080*%
%ADD60C,3.5000*%
%ADD61R,1.5080X1.5080*%
D53*
X137160Y207010D02*
D03*
X323850Y204470D02*
D03*
D54*
X112160Y207010D02*
D03*
X76200Y278530D02*
D03*
X64600Y601780D02*
D03*
X298850Y204470D02*
D03*
X64770Y692150D02*
D03*
X65870Y510340D02*
D03*
D55*
X76200Y303530D02*
D03*
X64600Y576780D02*
D03*
X64770Y667150D02*
D03*
X65870Y485340D02*
D03*
D56*
X378460Y358140D02*
D03*
X353060D02*
D03*
X378460Y332740D02*
D03*
X353060D02*
D03*
X378460Y307340D02*
D03*
D57*
X353060D02*
D03*
D58*
X113830Y807720D02*
D03*
X243370Y806450D02*
D03*
D59*
X138830Y807720D02*
D03*
X163830D02*
D03*
X368300Y737000D02*
D03*
Y687000D02*
D03*
Y712000D02*
D03*
X293370Y806450D02*
D03*
X268370D02*
D03*
X368300Y441490D02*
D03*
Y416490D02*
D03*
Y466490D02*
D03*
X65870Y422510D02*
D03*
Y397510D02*
D03*
X368300Y575310D02*
D03*
Y550310D02*
D03*
Y600310D02*
D03*
D60*
X377190Y190500D02*
D03*
X54610Y193040D02*
D03*
X374650Y812800D02*
D03*
X54610D02*
D03*
D61*
X368300Y762000D02*
D03*
Y491490D02*
D03*
X65870Y372510D02*
D03*
X368300Y625310D02*
D03*
M02*
