G04*
G04 #@! TF.GenerationSoftware,Altium Limited,Altium Designer,24.1.2 (44)*
G04*
G04 Layer_Color=8421504*
%FSLAX44Y44*%
%MOMM*%
G71*
G04*
G04 #@! TF.SameCoordinates,8B991FCA-0915-420C-AD92-161D74BCA782*
G04*
G04*
G04 #@! TF.FilePolarity,Positive*
G04*
G01*
G75*
%ADD15R,1.5000X1.2500*%
%ADD16R,1.3000X1.1000*%
G04:AMPARAMS|DCode=17|XSize=2.33mm|YSize=0.98mm|CornerRadius=0.245mm|HoleSize=0mm|Usage=FLASHONLY|Rotation=0.000|XOffset=0mm|YOffset=0mm|HoleType=Round|Shape=RoundedRectangle|*
%AMROUNDEDRECTD17*
21,1,2.3300,0.4900,0,0,0.0*
21,1,1.8400,0.9800,0,0,0.0*
1,1,0.4900,0.9200,-0.2450*
1,1,0.4900,-0.9200,-0.2450*
1,1,0.4900,-0.9200,0.2450*
1,1,0.4900,0.9200,0.2450*
%
%ADD17ROUNDEDRECTD17*%
%ADD18R,0.7500X0.6500*%
%ADD19R,1.1500X1.8000*%
%ADD20R,1.7000X1.1000*%
%ADD21R,1.2100X1.8200*%
%ADD22R,1.0000X0.7500*%
%ADD23R,0.6000X1.5000*%
%ADD24R,1.5000X0.6000*%
%ADD25R,1.0200X1.8200*%
%ADD26R,1.1000X1.7000*%
G36*
X267200Y296580D02*
X253200D01*
Y309580D01*
X267200D01*
Y296580D01*
D02*
G37*
G36*
X247600D02*
X233600D01*
Y309580D01*
X247600D01*
Y296580D01*
D02*
G37*
G36*
X228000D02*
X214000D01*
Y309580D01*
X228000D01*
Y296580D01*
D02*
G37*
G36*
X267200Y277980D02*
X253200D01*
Y290980D01*
X267200D01*
Y277980D01*
D02*
G37*
G36*
X247600D02*
X233600D01*
Y290980D01*
X247600D01*
Y277980D01*
D02*
G37*
G36*
X228000D02*
X214000D01*
Y290980D01*
X228000D01*
Y277980D01*
D02*
G37*
G36*
X267200Y259380D02*
X253200D01*
Y272380D01*
X267200D01*
Y259380D01*
D02*
G37*
G36*
X247600D02*
X233600D01*
Y272380D01*
X247600D01*
Y259380D01*
D02*
G37*
G36*
X228000D02*
X214000D01*
Y272380D01*
X228000D01*
Y259380D01*
D02*
G37*
D15*
X118110Y269770D02*
D03*
Y304270D02*
D03*
X157480Y608350D02*
D03*
Y642850D02*
D03*
D16*
X142240Y289560D02*
D03*
Y268560D02*
D03*
D17*
X173500Y261680D02*
D03*
Y307280D02*
D03*
D18*
X214480Y493950D02*
D03*
X227480D02*
D03*
Y483950D02*
D03*
X214480D02*
D03*
D19*
X274080Y492760D02*
D03*
X244080D02*
D03*
X157720D02*
D03*
X187720D02*
D03*
X178280Y340360D02*
D03*
X208280D02*
D03*
D20*
X157480Y420670D02*
D03*
Y394670D02*
D03*
D21*
X181080Y228600D02*
D03*
X210080D02*
D03*
D22*
X254790Y386380D02*
D03*
X194790D02*
D03*
X254790Y423880D02*
D03*
X194790D02*
D03*
D23*
X200030Y552540D02*
D03*
X208030D02*
D03*
X216030D02*
D03*
X224030D02*
D03*
X232030D02*
D03*
X240030D02*
D03*
X248030D02*
D03*
X256030D02*
D03*
Y637540D02*
D03*
X248030D02*
D03*
X240030D02*
D03*
X232030D02*
D03*
X224030D02*
D03*
X216030D02*
D03*
X208030D02*
D03*
X200030D02*
D03*
D24*
X270530Y567040D02*
D03*
Y575040D02*
D03*
Y583040D02*
D03*
Y591040D02*
D03*
Y599040D02*
D03*
Y607040D02*
D03*
Y615040D02*
D03*
Y623040D02*
D03*
X185530D02*
D03*
Y615040D02*
D03*
Y607040D02*
D03*
Y599040D02*
D03*
Y591040D02*
D03*
Y583040D02*
D03*
Y575040D02*
D03*
Y567040D02*
D03*
D25*
X191740Y527050D02*
D03*
X219740D02*
D03*
X242540Y664210D02*
D03*
X270540D02*
D03*
D26*
X194010D02*
D03*
X220010D02*
D03*
M02*
