M48
;Layer_Color=9474304
;FILE_FORMAT=4:4
METRIC,LZ
;TYPE=PLATED
T01F00S00C0.5000
T02F00S00C1.0000
T03F00S00C1.0500
T04F00S00C1.1400
T05F00S00C3.2000
%
T01
X0031623Y0032004
X0018034Y0041148
X0020701Y0046609
X00243158Y00474472
X0026797Y0053975
X00281432Y00555498
X00248332Y0056985
X0024881Y00601997
X0025225Y0061516
X00233356Y00620706
X0022002Y0060991
X00203068Y0061486
X0020574Y0060071
X0020701Y0058293
X00200062Y00566955
X00179324Y00546862
X0014478Y0052578
X0018542Y0063119
X00183456Y00648394
X00182626Y00670052
X0012827Y0066929
X002667Y006858
T02
X0006587Y0037251
Y0039751
Y0042251
X003683Y0041649
Y0044149
Y0046649
Y0049149
Y0055031
Y0057531
Y0060031
Y0062531
Y00687
Y00712
Y00737
Y00762
X0029337Y0080645
X0026837
X0024337
X0016383Y0080772
X0013883
X0011383
T03
X0011216Y0020701
X0013716
X000762Y0027853
Y0030353
X0029885Y0020447
X0032385
X0006587Y0048534
Y0051034
X000646Y0057678
Y0060178
X0006477Y0066715
Y0069215
T04
X0035306Y0030734
Y0033274
Y0035814
X0037846
Y0033274
Y0030734
T05
X0005461Y0019304
X0037719Y001905
X0037465Y008128
X0005461
M30
