G04*
G04 #@! TF.GenerationSoftware,Altium Limited,Altium Designer,24.1.2 (44)*
G04*
G04 Layer_Physical_Order=1*
G04 Layer_Color=255*
%FSLAX44Y44*%
%MOMM*%
G71*
G04*
G04 #@! TF.SameCoordinates,8B991FCA-0915-420C-AD92-161D74BCA782*
G04*
G04*
G04 #@! TF.FilePolarity,Positive*
G04*
G01*
G75*
%ADD15R,1.5000X1.2500*%
%ADD16R,1.3000X1.1000*%
G04:AMPARAMS|DCode=17|XSize=2.33mm|YSize=0.98mm|CornerRadius=0.245mm|HoleSize=0mm|Usage=FLASHONLY|Rotation=0.000|XOffset=0mm|YOffset=0mm|HoleType=Round|Shape=RoundedRectangle|*
%AMROUNDEDRECTD17*
21,1,2.3300,0.4900,0,0,0.0*
21,1,1.8400,0.9800,0,0,0.0*
1,1,0.4900,0.9200,-0.2450*
1,1,0.4900,-0.9200,-0.2450*
1,1,0.4900,-0.9200,0.2450*
1,1,0.4900,0.9200,0.2450*
%
%ADD17ROUNDEDRECTD17*%
%ADD18R,0.7500X0.6500*%
%ADD19R,1.1500X1.8000*%
%ADD20R,1.7000X1.1000*%
%ADD21R,1.2100X1.8200*%
%ADD22R,1.0000X0.7500*%
%ADD23R,0.6000X1.5000*%
%ADD24R,1.5000X0.6000*%
%ADD25R,1.0200X1.8200*%
%ADD26R,1.1000X1.7000*%
%ADD50C,0.3000*%
%ADD51R,5.8600X5.5700*%
%ADD52C,0.2540*%
%ADD53R,1.5750X1.5750*%
%ADD54C,1.5750*%
%ADD55R,1.5750X1.5750*%
%ADD56C,1.7100*%
%ADD57R,1.7100X1.7100*%
%ADD58R,1.5080X1.5080*%
%ADD59C,1.5080*%
%ADD60C,3.5000*%
%ADD61R,1.5080X1.5080*%
%ADD62C,1.0000*%
D15*
X118110Y269770D02*
D03*
Y304270D02*
D03*
X157480Y608350D02*
D03*
Y642850D02*
D03*
D16*
X142240Y289560D02*
D03*
Y268560D02*
D03*
D17*
X173500Y261680D02*
D03*
Y307280D02*
D03*
D18*
X214480Y493950D02*
D03*
X227480D02*
D03*
Y483950D02*
D03*
X214480D02*
D03*
D19*
X274080Y492760D02*
D03*
X244080D02*
D03*
X157720D02*
D03*
X187720D02*
D03*
X178280Y340360D02*
D03*
X208280D02*
D03*
D20*
X157480Y420670D02*
D03*
Y394670D02*
D03*
D21*
X181080Y228600D02*
D03*
X210080D02*
D03*
D22*
X254790Y386380D02*
D03*
X194790D02*
D03*
X254790Y423880D02*
D03*
X194790D02*
D03*
D23*
X200030Y552540D02*
D03*
X208030D02*
D03*
X216030D02*
D03*
X224030D02*
D03*
X232030D02*
D03*
X240030D02*
D03*
X248030D02*
D03*
X256030D02*
D03*
Y637540D02*
D03*
X248030D02*
D03*
X240030D02*
D03*
X232030D02*
D03*
X224030D02*
D03*
X216030D02*
D03*
X208030D02*
D03*
X200030D02*
D03*
D24*
X270530Y567040D02*
D03*
Y575040D02*
D03*
Y583040D02*
D03*
Y591040D02*
D03*
Y599040D02*
D03*
Y607040D02*
D03*
Y615040D02*
D03*
Y623040D02*
D03*
X185530D02*
D03*
Y615040D02*
D03*
Y607040D02*
D03*
Y599040D02*
D03*
Y591040D02*
D03*
Y583040D02*
D03*
Y575040D02*
D03*
Y567040D02*
D03*
D25*
X191740Y527050D02*
D03*
X219740D02*
D03*
X242540Y664210D02*
D03*
X270540D02*
D03*
D26*
X194010D02*
D03*
X220010D02*
D03*
D50*
X383169Y777836D02*
G03*
X383141Y777865I-2121J-2121D01*
G01*
X237490Y282820D02*
Y286140D01*
X234070Y289560D02*
X237490Y286140D01*
X209550Y314080D02*
X234070Y289560D01*
X241000Y306370D02*
X255270Y292100D01*
X234070Y289560D02*
X238760D01*
X142240D02*
X234070D01*
X238760D02*
X241300Y287020D01*
X49530Y339090D02*
X64770Y354330D01*
X49530Y246380D02*
X88900Y207010D01*
X49530Y246380D02*
Y339090D01*
X88900Y207010D02*
X112160D01*
X64770Y354330D02*
X219710D01*
X194645Y466090D02*
X207010D01*
X167975Y492760D02*
X194645Y466090D01*
X161290Y492760D02*
X167975D01*
X208280Y419100D02*
Y464820D01*
X207010Y466090D02*
X208280Y464820D01*
X191740Y527050D02*
X195340Y530650D01*
Y535700D01*
X201148Y541508D01*
X212493D01*
X228060Y483870D02*
X236119Y475811D01*
X227330Y483870D02*
X228060D01*
X241819Y475811D02*
X243158Y474472D01*
X259042D02*
X273520Y488950D01*
X236119Y475811D02*
X241819D01*
X243158Y474472D02*
X259042D01*
X273520Y488950D02*
X274320D01*
X216030Y552540D02*
Y563892D01*
X157720Y492760D02*
X161290D01*
X200155Y520293D02*
X214480Y505968D01*
X191740Y523893D02*
Y527050D01*
X195340Y520293D02*
X200155D01*
X191740Y523893D02*
X195340Y520293D01*
X182626Y670052D02*
X194010D01*
X161290Y492760D02*
Y500380D01*
X195245Y509270D02*
X197002Y507513D01*
X214480Y493950D02*
Y505968D01*
X214562Y543577D02*
Y551072D01*
X198290Y388630D02*
Y389090D01*
X170180Y509270D02*
X195245D01*
X161480Y398670D02*
X187850D01*
X197002Y507513D02*
X209050Y495465D01*
X187850Y398670D02*
X208280Y419100D01*
X224030Y617966D02*
X229512Y612484D01*
X212493Y541508D02*
X214562Y543577D01*
X157480Y394670D02*
X161480Y398670D01*
X194790Y386380D02*
X196040D01*
X161290Y500380D02*
X170180Y509270D01*
X217498Y554008D02*
Y561503D01*
X219567Y563572D02*
X228493D01*
X212965Y495465D02*
X214480Y493950D01*
X230562Y554008D02*
X232030Y552540D01*
X208280Y399080D02*
Y419100D01*
X214562Y551072D02*
X216030Y552540D01*
X230562Y554008D02*
Y561503D01*
X216030Y552540D02*
X217498Y554008D01*
X197002Y507513D02*
Y507513D01*
X217498Y561503D02*
X219567Y563572D01*
X228493D02*
X230562Y561503D01*
X198290Y389090D02*
X208280Y399080D01*
X216030Y563892D02*
X229512Y577374D01*
Y612484D01*
X209050Y495465D02*
X212965D01*
X196040Y386380D02*
X198290Y388630D01*
X224030Y617966D02*
Y637540D01*
X219710Y354330D02*
X241000Y333040D01*
Y306370D02*
Y333040D01*
X208040Y334010D02*
X209550Y332500D01*
Y314080D02*
Y332500D01*
X127654Y669906D02*
X128270Y669290D01*
X127654Y669906D02*
Y814853D01*
X209550Y233680D02*
Y253430D01*
X212800Y258130D02*
X237490Y282820D01*
X212800Y256680D02*
Y258130D01*
X209550Y253430D02*
X212800Y256680D01*
X242540Y664210D02*
Y668210D01*
Y662178D02*
Y664210D01*
X258791Y684461D02*
X265361D01*
X266700Y685800D01*
X127654Y814853D02*
X131593Y818792D01*
X145967D01*
X152758Y812001D01*
X375913Y784901D02*
X383141Y777865D01*
X170991Y784901D02*
X375913D01*
X152758Y803134D02*
X170991Y784901D01*
X152758Y803134D02*
Y812001D01*
X383169Y777836D02*
X384048Y776957D01*
Y566058D02*
Y776957D01*
X194010Y664210D02*
Y670052D01*
X242540Y668210D02*
X258791Y684461D01*
X368300Y550310D02*
X383944Y534665D01*
Y432134D02*
Y534665D01*
X368300Y416490D02*
X383944Y432134D01*
X379476Y561486D02*
Y675824D01*
X368300Y687000D02*
X379476Y675824D01*
X368300Y416490D02*
X378460Y406330D01*
Y358140D02*
Y406330D01*
X368300Y550310D02*
X379476Y561486D01*
X384048Y566058D01*
D51*
X240600Y284480D02*
D03*
D52*
X198300Y640092D02*
X200030Y638362D01*
X174399Y633298D02*
X181193Y640092D01*
X198300D01*
X200030Y637540D02*
Y638362D01*
X183456Y648394D02*
X212346D01*
X214332Y646408D01*
X140440Y269770D02*
X142240Y267970D01*
X118110Y269770D02*
X140440D01*
X114300Y303530D02*
X128270D01*
X162361D01*
X173500Y307340D02*
X173990D01*
X166171D02*
X173500D01*
Y332330D01*
Y307280D02*
Y307340D01*
Y332330D02*
X179070Y337900D01*
Y339090D01*
X162361Y303530D02*
X166171Y307340D01*
X76200Y303530D02*
X114300D01*
X145535Y525025D02*
X169425D01*
X144780Y525780D02*
X145535Y525025D01*
X169425D02*
X191262Y546862D01*
X256030Y523000D02*
Y552540D01*
X227410Y493950D02*
X227480D01*
X227330Y494030D02*
X227410Y493950D01*
X242889D02*
X244080Y492760D01*
X227480Y493950D02*
X242889D01*
X223570Y530880D02*
Y535908D01*
X219740Y527050D02*
X223570Y530880D01*
X224030Y536368D02*
Y543778D01*
X223570Y535908D02*
X224030Y536368D01*
X209197Y553707D02*
Y563850D01*
X208030Y624496D02*
X211370Y621155D01*
Y607539D02*
Y621155D01*
X221447Y603584D02*
Y608482D01*
X208030Y552540D02*
X209197Y553707D01*
X222971Y577624D02*
Y602060D01*
X209197Y563850D02*
X222971Y577624D01*
X205740Y600710D02*
Y601909D01*
X211370Y607539D01*
X221447Y603584D02*
X222971Y602060D01*
X220020Y609910D02*
X221447Y608482D01*
X183850Y220010D02*
Y233680D01*
X185620Y614950D02*
X202978D01*
X203068Y614860D01*
X185530Y615040D02*
X185620Y614950D01*
X233356Y620706D02*
Y622724D01*
X238332Y627701D01*
X191262Y546862D02*
Y567040D01*
X224790Y543778D02*
Y547370D01*
X226830Y541738D02*
X236398D01*
X238332Y543672D01*
X224790Y543778D02*
X226830Y541738D01*
X238332Y543672D02*
Y548212D01*
X240030Y549910D01*
X248181Y569699D02*
X248332Y569850D01*
X248030Y552540D02*
X248181Y552691D01*
X240030Y552540D02*
Y581699D01*
X235365Y586365D02*
X240030Y581699D01*
X248181Y552691D02*
Y569699D01*
X214480Y477520D02*
X225862Y466138D01*
X288338D01*
X214480Y477520D02*
Y483950D01*
X198533D02*
X214480D01*
X189484Y493000D02*
X198533Y483950D01*
X193040Y423880D02*
Y424380D01*
X176230Y440690D02*
X190560Y426360D01*
X129540Y487380D02*
X176230Y440690D01*
X163830Y423880D02*
Y424180D01*
Y420588D02*
Y423880D01*
X178913Y412907D02*
X180340Y411480D01*
X160990Y424180D02*
X163830D01*
X164710Y419708D02*
X168302D01*
X163830Y420588D02*
X164710Y419708D01*
X175103Y412907D02*
X178913D01*
X168302Y419708D02*
X175103Y412907D01*
X191060Y426360D02*
X193040Y424380D01*
X129540Y487380D02*
Y584200D01*
X190560Y426360D02*
X191060D01*
X163830Y423880D02*
X193040D01*
X157480Y420670D02*
X160990Y424180D01*
X288338Y466138D02*
X297180Y474980D01*
X103886Y428244D02*
Y644144D01*
Y428244D02*
X152908Y379222D01*
X225552D01*
X219964Y367030D02*
X306324Y453390D01*
X310896Y423672D02*
Y574294D01*
X225552Y379222D02*
X301752Y455422D01*
X316230Y320040D02*
Y450244D01*
X287239Y615040D02*
X320040Y582239D01*
Y454054D02*
Y582239D01*
X316230Y450244D02*
X320040Y454054D01*
X247626Y360402D02*
X310896Y423672D01*
X306324Y453390D02*
Y564896D01*
X301752Y455422D02*
Y518473D01*
X297180Y474980D02*
Y510540D01*
X177800Y575040D02*
X185530D01*
X174498Y551688D02*
Y571738D01*
X177800Y575040D01*
X129540Y584200D02*
X151210Y605870D01*
X168402Y605144D02*
X174506Y599040D01*
X159980Y609600D02*
X163710Y605870D01*
X157480Y609600D02*
X159980D01*
X174506Y599040D02*
X185530D01*
X174342Y592738D02*
X183232D01*
X184150Y591820D01*
X168402Y605144D02*
Y615950D01*
X163710Y603370D02*
Y605870D01*
Y603370D02*
X174342Y592738D01*
X153750Y605870D02*
X157480Y609600D01*
X151210Y605870D02*
X153750D01*
X157480Y420670D02*
X160528Y420860D01*
X74450Y366240D02*
X80288Y360402D01*
X247626D01*
X152400Y367030D02*
X219964D01*
X36830Y482600D02*
X152400Y367030D01*
X248030Y637540D02*
Y643890D01*
X247650D02*
Y645090D01*
X244398Y648342D02*
X247650Y645090D01*
X235662Y648342D02*
X244398D01*
X233728Y646408D02*
X235662Y648342D01*
X233728Y639238D02*
Y646408D01*
X232030Y637540D02*
X233728Y639238D01*
X232030Y637540D02*
Y643890D01*
X231140D02*
Y650080D01*
X220010Y661210D02*
Y664210D01*
Y661210D02*
X231140Y650080D01*
X138430Y635076D02*
X144780Y628726D01*
X138430Y635076D02*
Y807720D01*
X200046Y552556D02*
Y566940D01*
X200062Y566955D01*
X200030Y552540D02*
X200046Y552556D01*
X185530Y567040D02*
X191262D01*
X227480Y493950D02*
Y499110D01*
X286150Y599040D02*
X310896Y574294D01*
X280352Y590868D02*
X306324Y564896D01*
X273130Y547095D02*
X301752Y518473D01*
X267970Y539750D02*
X297180Y510540D01*
X270540Y660420D02*
Y664210D01*
X274370Y656590D02*
X337020D01*
X357378Y636232D01*
X270540Y660420D02*
X274370Y656590D01*
X357378Y636232D02*
Y751078D01*
X270540Y651764D02*
Y660420D01*
X36830Y482600D02*
Y758190D01*
X64770Y667150D02*
X80880D01*
X103886Y644144D01*
X36830Y758190D02*
X105854Y827214D01*
X213360Y190500D02*
X309880D01*
X183850Y220010D02*
X213360Y190500D01*
X176080Y261680D02*
X179620Y258140D01*
X173500Y261680D02*
X176080D01*
X179620Y236940D02*
Y258140D01*
Y236940D02*
X182880Y233680D01*
X309880Y190500D02*
X323850Y204470D01*
X324050Y204640D02*
X378460Y259050D01*
Y307340D01*
X72140Y366240D02*
X74450D01*
X66040Y372340D02*
X72140Y366240D01*
X105854Y827214D02*
X144336D01*
X163830Y807720D01*
X113030Y625602D02*
Y807720D01*
Y625602D02*
X119380Y619252D01*
X270702Y590868D02*
X280352D01*
X270530Y599040D02*
X286150D01*
X270530Y591040D02*
X270702Y590868D01*
X270530Y575040D02*
X281432D01*
Y555498D02*
Y575040D01*
X290090Y623040D02*
X330200Y582930D01*
X270530Y623040D02*
X290090D01*
X330200Y330200D02*
Y582930D01*
X299720Y637540D02*
X340534Y596726D01*
X256030Y637540D02*
X299720D01*
X340534Y345266D02*
Y596726D01*
X330200Y330200D02*
X353060Y307340D01*
X340534Y345266D02*
X353060Y332740D01*
X270530Y615040D02*
X287239D01*
X285242Y778002D02*
X373380D01*
X379222Y772160D01*
Y747922D02*
Y772160D01*
X239937Y596819D02*
Y604865D01*
X248810Y601997D02*
X249686D01*
X254739Y607050D01*
X239937Y604865D02*
X250232Y615160D01*
X247891Y622541D02*
Y637401D01*
X250232Y615160D02*
X252250D01*
X235365Y610015D02*
X247891Y622541D01*
X235365Y586365D02*
Y610015D01*
X238332Y627701D02*
Y635842D01*
X254739Y607050D02*
X270520D01*
X270530Y607040D01*
X239937Y596819D02*
X253715Y583040D01*
X238332Y635842D02*
X240030Y637540D01*
X247891Y637401D02*
X248030Y637540D01*
X273130Y547095D02*
Y560985D01*
X185530Y583040D02*
X206900D01*
X207010Y582930D01*
X208030Y624496D02*
Y637540D01*
X185420Y623150D02*
Y631190D01*
Y623150D02*
X185530Y623040D01*
X214332Y639238D02*
Y646408D01*
Y639238D02*
X216030Y637540D01*
X170521Y674392D02*
X174484Y678354D01*
X165354Y641600D02*
X170521Y646767D01*
Y674392D01*
X146678Y633298D02*
Y680720D01*
X158870Y692912D02*
X200152D01*
X146678Y680720D02*
X158870Y692912D01*
X146678Y633298D02*
X174399D01*
X200152Y692912D02*
X285242Y778002D01*
X357378Y751078D02*
X368300Y762000D01*
X365760Y320040D02*
X378460Y307340D01*
X365760Y320040D02*
Y378460D01*
X357378Y386842D02*
X365760Y378460D01*
X357378Y386842D02*
Y480568D01*
X368300Y491490D01*
X253715Y583040D02*
X270530D01*
X119380Y619252D02*
X165100D01*
X168402Y615950D01*
X157480Y641600D02*
X165354D01*
X217296Y678354D02*
X220010Y675640D01*
Y664210D02*
Y675640D01*
X270530Y567040D02*
X273130Y560985D01*
X174498Y551688D02*
X179324Y546862D01*
X368300Y737000D02*
X379222Y747922D01*
X227480Y499110D02*
X251370Y523000D01*
X144780Y628726D02*
X165902D01*
X173990Y620638D01*
Y609600D02*
Y620638D01*
Y609600D02*
X176550Y607040D01*
X185530D01*
X254000Y651764D02*
X270540D01*
X248030Y645160D02*
X254000Y651764D01*
X357378Y502412D02*
X368300Y491490D01*
X357378Y502412D02*
Y614388D01*
X368300Y625310D01*
X251370Y523000D02*
X256030D01*
X174484Y678354D02*
X217296D01*
X357378Y636232D02*
X368300Y625310D01*
D53*
X137160Y207010D02*
D03*
X323850Y204470D02*
D03*
D54*
X112160Y207010D02*
D03*
X76200Y278530D02*
D03*
X64600Y601780D02*
D03*
X298850Y204470D02*
D03*
X64770Y692150D02*
D03*
X65870Y510340D02*
D03*
D55*
X76200Y303530D02*
D03*
X64600Y576780D02*
D03*
X64770Y667150D02*
D03*
X65870Y485340D02*
D03*
D56*
X378460Y358140D02*
D03*
X353060D02*
D03*
X378460Y332740D02*
D03*
X353060D02*
D03*
X378460Y307340D02*
D03*
D57*
X353060D02*
D03*
D58*
X113830Y807720D02*
D03*
X243370Y806450D02*
D03*
D59*
X138830Y807720D02*
D03*
X163830D02*
D03*
X368300Y737000D02*
D03*
Y687000D02*
D03*
Y712000D02*
D03*
X293370Y806450D02*
D03*
X268370D02*
D03*
X368300Y441490D02*
D03*
Y416490D02*
D03*
Y466490D02*
D03*
X65870Y422510D02*
D03*
Y397510D02*
D03*
X368300Y575310D02*
D03*
Y550310D02*
D03*
Y600310D02*
D03*
D60*
X377190Y190500D02*
D03*
X54610Y193040D02*
D03*
X374650Y812800D02*
D03*
X54610D02*
D03*
D61*
X368300Y762000D02*
D03*
Y491490D02*
D03*
X65870Y372510D02*
D03*
X368300Y625310D02*
D03*
D62*
X183456Y648394D02*
D03*
X207010Y466090D02*
D03*
X144780Y525780D02*
D03*
X243158Y474472D02*
D03*
X205740Y600710D02*
D03*
X220020Y609910D02*
D03*
X203068Y614860D02*
D03*
X233356Y620706D02*
D03*
X248332Y569850D02*
D03*
X180340Y411480D02*
D03*
X128270Y669290D02*
D03*
X200062Y566955D02*
D03*
X316230Y320040D02*
D03*
X266700Y685800D02*
D03*
X248810Y601997D02*
D03*
X252250Y615160D02*
D03*
X267970Y539750D02*
D03*
X207010Y582930D02*
D03*
X185420Y631190D02*
D03*
X182626Y670052D02*
D03*
X281432Y555498D02*
D03*
X179324Y546862D02*
D03*
M02*
