M48
;Layer_Color=9474304
;FILE_FORMAT=4:4
METRIC,LZ
;TYPE=PLATED
T1F00S00C0.7000
T2F00S00C0.7100
T3F00S00C0.8000
T4F00S00C0.8500
T5F00S00C0.9000
T6F00S00C0.9900
T7F00S00C1.0000
T8F00S00C1.0200
T9F00S00C1.0400
T10F00S00C1.1000
T11F00S00C1.3000
T12F00S00C3.2000
%
T01
X0047117Y0069696
Y0074576
X0052959Y0073954
X0052832Y0070699
Y0065699
X0052959Y0078954
T02
X0082931Y0051054
Y0053594
X0047752Y0089027
Y0091567
T03
X0074168Y0074843
Y0079843
T04
X0052451Y0084908
Y0093908
T05
X0056769Y0062103
Y0064643
Y0067183
Y0069723
Y0072263
Y0074803
Y0077343
X0064389
Y0074803
Y0072263
Y0069723
Y0067183
Y0064643
Y0062103
X0030099Y0090417
Y0092917
Y0095417
Y0097917
X0056769Y0095123
Y0092583
Y0090043
Y0087503
Y0084963
Y0082423
Y0079883
X0064389
Y0082423
Y0084963
Y0087503
Y0090043
Y0092583
Y0095123
X0068326Y0114681
Y0118181
X0048895Y0118082
Y0114582
X0088773Y0097964
Y0095464
Y0092964
Y0090464
X0060499Y0137033
X0057999
X0055499
X0052999
T06
X0045391Y0100747
Y0105247
X0051891
Y0100747
T07
X0034544Y01162
X0042164
X0060579Y0116332
Y0118872
Y0113792
X0075692Y0117094
X0083312
T08
X0089662Y0050673
Y0053213
Y0055753
Y0058293
Y0060833
Y0063373
X0028956Y0058928
Y0056388
Y0053848
Y0051308
T09
X0028829Y0037973
X0031369
X0087122Y0037592
X0089662
Y0040132
X0087122
Y0042672
Y0045212
X0089662
Y0042672
X0031369Y0043053
X0028829
Y0040513
X0031369
Y0045593
X0028829
T10
X0041656Y002921
X0044196
X0046736
X0049276
X0051816
X0054356
X0063881Y0029083
X0066421
X0068961
X0071501
X0074041
X0076581
X0089789Y0135509
Y0138049
T11
X0029591Y0030099
X0033091
X0085753Y0030307
X0089253
X0087757Y0126873
Y0130373
X0030988Y0129611
Y0126111
T12
X0025527Y0024384
X0094107Y0024765
X009398Y0141224
X0025908
M30
