G04*
G04 #@! TF.GenerationSoftware,Altium Limited,Altium Designer,23.1.1 (15)*
G04*
G04 Layer_Color=8388736*
%FSLAX44Y44*%
%MOMM*%
G71*
G04*
G04 #@! TF.SameCoordinates,CE7A5FB5-0843-4AAF-81C9-3556B418EFC3*
G04*
G04*
G04 #@! TF.FilePolarity,Negative*
G04*
G01*
G75*
%ADD17C,3.7032*%
%ADD18C,1.4132*%
G04:AMPARAMS|DCode=19|XSize=2.1532mm|YSize=2.1532mm|CornerRadius=0.5891mm|HoleSize=0mm|Usage=FLASHONLY|Rotation=0.000|XOffset=0mm|YOffset=0mm|HoleType=Round|Shape=RoundedRectangle|*
%AMROUNDEDRECTD19*
21,1,2.1532,0.9750,0,0,0.0*
21,1,0.9750,2.1532,0,0,0.0*
1,1,1.1782,0.4875,-0.4875*
1,1,1.1782,-0.4875,-0.4875*
1,1,1.1782,-0.4875,0.4875*
1,1,1.1782,0.4875,0.4875*
%
%ADD19ROUNDEDRECTD19*%
%ADD20C,2.1532*%
%ADD21R,1.7032X1.7032*%
%ADD22C,1.7032*%
%ADD23R,1.7832X1.7832*%
%ADD24C,1.7832*%
%ADD25R,1.7012X1.7012*%
%ADD26C,1.7012*%
%ADD27R,1.5732X1.5732*%
%ADD28C,1.5732*%
G04:AMPARAMS|DCode=29|XSize=2.1532mm|YSize=2.1532mm|CornerRadius=0.5891mm|HoleSize=0mm|Usage=FLASHONLY|Rotation=90.000|XOffset=0mm|YOffset=0mm|HoleType=Round|Shape=RoundedRectangle|*
%AMROUNDEDRECTD29*
21,1,2.1532,0.9750,0,0,90.0*
21,1,0.9750,2.1532,0,0,90.0*
1,1,1.1782,0.4875,0.4875*
1,1,1.1782,0.4875,-0.4875*
1,1,1.1782,-0.4875,-0.4875*
1,1,1.1782,-0.4875,0.4875*
%
%ADD29ROUNDEDRECTD29*%
%ADD30C,1.8032*%
%ADD31R,1.8032X1.8032*%
G04:AMPARAMS|DCode=32|XSize=1.8032mm|YSize=1.8032mm|CornerRadius=0.5016mm|HoleSize=0mm|Usage=FLASHONLY|Rotation=270.000|XOffset=0mm|YOffset=0mm|HoleType=Round|Shape=RoundedRectangle|*
%AMROUNDEDRECTD32*
21,1,1.8032,0.8000,0,0,270.0*
21,1,0.8000,1.8032,0,0,270.0*
1,1,1.0032,-0.4000,-0.4000*
1,1,1.0032,-0.4000,0.4000*
1,1,1.0032,0.4000,0.4000*
1,1,1.0032,0.4000,-0.4000*
%
%ADD32ROUNDEDRECTD32*%
%ADD33R,1.6032X1.6032*%
%ADD34C,1.6032*%
%ADD35R,1.4032X1.4032*%
%ADD36C,1.4032*%
%ADD37R,1.5532X1.5532*%
%ADD38C,1.5532*%
G04:AMPARAMS|DCode=39|XSize=1.8032mm|YSize=1.8032mm|CornerRadius=0.5016mm|HoleSize=0mm|Usage=FLASHONLY|Rotation=180.000|XOffset=0mm|YOffset=0mm|HoleType=Round|Shape=RoundedRectangle|*
%AMROUNDEDRECTD39*
21,1,1.8032,0.8000,0,0,180.0*
21,1,0.8000,1.8032,0,0,180.0*
1,1,1.0032,-0.4000,0.4000*
1,1,1.0032,0.4000,0.4000*
1,1,1.0032,0.4000,-0.4000*
1,1,1.0032,-0.4000,-0.4000*
%
%ADD39ROUNDEDRECTD39*%
%ADD40C,1.7532*%
%ADD41R,1.7532X1.7532*%
%ADD42R,1.4000X1.4000*%
%ADD43C,1.4000*%
%ADD44R,1.5700X1.5700*%
%ADD45C,1.5700*%
%ADD46R,1.4000X1.4000*%
%ADD47C,1.2000*%
%ADD48R,1.2000X1.2000*%
%ADD49R,1.3000X1.3000*%
%ADD50C,1.3000*%
D17*
X255270Y243840D02*
D03*
X941070Y247650D02*
D03*
X939800Y1412240D02*
D03*
X259080D02*
D03*
D18*
X829310Y510540D02*
D03*
Y535940D02*
D03*
X477520Y890270D02*
D03*
Y915670D02*
D03*
D19*
X857530Y303070D02*
D03*
X295910Y300990D02*
D03*
D20*
X892530Y303070D02*
D03*
X877570Y1303730D02*
D03*
X309880Y1261110D02*
D03*
X330910Y300990D02*
D03*
D21*
X567690Y951230D02*
D03*
D22*
Y925830D02*
D03*
Y900430D02*
D03*
Y875030D02*
D03*
Y849630D02*
D03*
Y824230D02*
D03*
Y798830D02*
D03*
Y773430D02*
D03*
Y748030D02*
D03*
Y722630D02*
D03*
Y697230D02*
D03*
Y671830D02*
D03*
Y646430D02*
D03*
Y621030D02*
D03*
X643890Y951230D02*
D03*
Y925830D02*
D03*
Y900430D02*
D03*
Y875030D02*
D03*
Y849630D02*
D03*
Y824230D02*
D03*
Y798830D02*
D03*
Y773430D02*
D03*
Y748030D02*
D03*
Y722630D02*
D03*
Y697230D02*
D03*
Y671830D02*
D03*
Y646430D02*
D03*
Y621030D02*
D03*
D23*
X756920Y1170940D02*
D03*
X345440Y1162000D02*
D03*
D24*
X833120Y1170940D02*
D03*
X421640Y1162000D02*
D03*
D25*
X518910Y1007470D02*
D03*
D26*
X453910D02*
D03*
X518910Y1052470D02*
D03*
X453910D02*
D03*
D27*
X896620Y506730D02*
D03*
D28*
Y532130D02*
D03*
Y557530D02*
D03*
Y582930D02*
D03*
Y608330D02*
D03*
Y633730D02*
D03*
D29*
X877570Y1268730D02*
D03*
X309880Y1296110D02*
D03*
D30*
X605790Y1188720D02*
D03*
Y1163320D02*
D03*
X897890Y1355090D02*
D03*
X689610Y290830D02*
D03*
X740410D02*
D03*
X715010D02*
D03*
X664210D02*
D03*
X638810D02*
D03*
X492760Y292100D02*
D03*
X441960D02*
D03*
X467360D02*
D03*
X518160D02*
D03*
X543560D02*
D03*
D31*
X605790Y1137920D02*
D03*
D32*
X897890Y1380490D02*
D03*
D33*
X488950Y1145820D02*
D03*
X683260Y1181810D02*
D03*
D34*
X488950Y1180820D02*
D03*
X683260Y1146810D02*
D03*
D35*
X471170Y696960D02*
D03*
D36*
Y745760D02*
D03*
D37*
X524510Y849080D02*
D03*
D38*
Y939080D02*
D03*
D39*
X765810Y290830D02*
D03*
X416560Y292100D02*
D03*
D40*
X871220Y375920D02*
D03*
Y401320D02*
D03*
Y426720D02*
D03*
Y452120D02*
D03*
X896620Y375920D02*
D03*
Y401320D02*
D03*
Y426720D02*
D03*
X288290Y405130D02*
D03*
Y430530D02*
D03*
Y455930D02*
D03*
X313690Y379730D02*
D03*
Y405130D02*
D03*
Y430530D02*
D03*
Y455930D02*
D03*
D41*
X896620Y452120D02*
D03*
X288290Y379730D02*
D03*
D42*
X887730Y979640D02*
D03*
X300990Y904170D02*
D03*
D43*
X887730Y954640D02*
D03*
Y929640D02*
D03*
Y904640D02*
D03*
X300990Y929170D02*
D03*
Y954170D02*
D03*
Y979170D02*
D03*
X604990Y1370330D02*
D03*
X579990D02*
D03*
X554990D02*
D03*
D44*
X289560Y513080D02*
D03*
D45*
Y538480D02*
D03*
Y563880D02*
D03*
Y589280D02*
D03*
D46*
X529990Y1370330D02*
D03*
D47*
X529590Y739540D02*
D03*
X528320Y656990D02*
D03*
D48*
X529590Y789540D02*
D03*
X528320Y706990D02*
D03*
D49*
X741680Y798430D02*
D03*
D50*
Y748430D02*
D03*
M02*
