G04*
G04 #@! TF.GenerationSoftware,Altium Limited,Altium Designer,23.1.1 (15)*
G04*
G04 Layer_Physical_Order=2*
G04 Layer_Color=16711680*
%FSLAX44Y44*%
%MOMM*%
G71*
G04*
G04 #@! TF.SameCoordinates,903AE006-7F47-48BF-86F7-E966476BCC6D*
G04*
G04*
G04 #@! TF.FilePolarity,Positive*
G04*
G01*
G75*
%ADD42R,1.4000X1.4000*%
%ADD43C,1.4000*%
%ADD44R,1.5700X1.5700*%
%ADD45C,1.5700*%
%ADD46R,1.4000X1.4000*%
%ADD47C,1.2000*%
%ADD48R,1.2000X1.2000*%
%ADD49R,1.3000X1.3000*%
%ADD50C,1.3000*%
%ADD51C,0.8000*%
%ADD52C,3.5000*%
%ADD53C,1.2100*%
G04:AMPARAMS|DCode=54|XSize=1.95mm|YSize=1.95mm|CornerRadius=0.4875mm|HoleSize=0mm|Usage=FLASHONLY|Rotation=0.000|XOffset=0mm|YOffset=0mm|HoleType=Round|Shape=RoundedRectangle|*
%AMROUNDEDRECTD54*
21,1,1.9500,0.9750,0,0,0.0*
21,1,0.9750,1.9500,0,0,0.0*
1,1,0.9750,0.4875,-0.4875*
1,1,0.9750,-0.4875,-0.4875*
1,1,0.9750,-0.4875,0.4875*
1,1,0.9750,0.4875,0.4875*
%
%ADD54ROUNDEDRECTD54*%
%ADD55C,1.9500*%
%ADD56R,1.5000X1.5000*%
%ADD57C,1.5000*%
%ADD58R,1.5800X1.5800*%
%ADD59C,1.5800*%
%ADD60R,1.4980X1.4980*%
%ADD61C,1.4980*%
%ADD62R,1.3700X1.3700*%
%ADD63C,1.3700*%
G04:AMPARAMS|DCode=64|XSize=1.95mm|YSize=1.95mm|CornerRadius=0.4875mm|HoleSize=0mm|Usage=FLASHONLY|Rotation=90.000|XOffset=0mm|YOffset=0mm|HoleType=Round|Shape=RoundedRectangle|*
%AMROUNDEDRECTD64*
21,1,1.9500,0.9750,0,0,90.0*
21,1,0.9750,1.9500,0,0,90.0*
1,1,0.9750,0.4875,0.4875*
1,1,0.9750,0.4875,-0.4875*
1,1,0.9750,-0.4875,-0.4875*
1,1,0.9750,-0.4875,0.4875*
%
%ADD64ROUNDEDRECTD64*%
%ADD65C,1.6000*%
%ADD66R,1.6000X1.6000*%
G04:AMPARAMS|DCode=67|XSize=1.6mm|YSize=1.6mm|CornerRadius=0.4mm|HoleSize=0mm|Usage=FLASHONLY|Rotation=270.000|XOffset=0mm|YOffset=0mm|HoleType=Round|Shape=RoundedRectangle|*
%AMROUNDEDRECTD67*
21,1,1.6000,0.8000,0,0,270.0*
21,1,0.8000,1.6000,0,0,270.0*
1,1,0.8000,-0.4000,-0.4000*
1,1,0.8000,-0.4000,0.4000*
1,1,0.8000,0.4000,0.4000*
1,1,0.8000,0.4000,-0.4000*
%
%ADD67ROUNDEDRECTD67*%
%ADD68R,1.3500X1.3500*%
%ADD69C,1.3500*%
G04:AMPARAMS|DCode=70|XSize=1.6mm|YSize=1.6mm|CornerRadius=0.4mm|HoleSize=0mm|Usage=FLASHONLY|Rotation=180.000|XOffset=0mm|YOffset=0mm|HoleType=Round|Shape=RoundedRectangle|*
%AMROUNDEDRECTD70*
21,1,1.6000,0.8000,0,0,180.0*
21,1,0.8000,1.6000,0,0,180.0*
1,1,0.8000,-0.4000,0.4000*
1,1,0.8000,0.4000,0.4000*
1,1,0.8000,0.4000,-0.4000*
1,1,0.8000,-0.4000,-0.4000*
%
%ADD70ROUNDEDRECTD70*%
%ADD71C,1.5500*%
%ADD72R,1.5500X1.5500*%
G36*
X922950Y545699D02*
X921777Y545211D01*
X908470Y558518D01*
Y559090D01*
X907662Y562104D01*
X906102Y564806D01*
X903896Y567012D01*
X901194Y568572D01*
X898180Y569380D01*
X895060D01*
X892046Y568572D01*
X890796Y567850D01*
X889696Y568485D01*
Y571975D01*
X890796Y572610D01*
X892046Y571888D01*
X895060Y571080D01*
X898180D01*
X901194Y571888D01*
X903896Y573448D01*
X906102Y575654D01*
X907662Y578356D01*
X908470Y581370D01*
Y584490D01*
X907662Y587504D01*
X906102Y590206D01*
X903896Y592412D01*
X901194Y593972D01*
X898180Y594780D01*
X895060D01*
X892046Y593972D01*
X890796Y593250D01*
X889696Y593885D01*
Y597375D01*
X890796Y598010D01*
X892046Y597288D01*
X895060Y596480D01*
X898180D01*
X901194Y597288D01*
X903896Y598848D01*
X906102Y601054D01*
X907662Y603756D01*
X908470Y606770D01*
Y609890D01*
X907662Y612904D01*
X906102Y615606D01*
X903896Y617812D01*
X901194Y619372D01*
X898180Y620180D01*
X895060D01*
X892046Y619372D01*
X890796Y618650D01*
X889696Y619285D01*
Y625736D01*
X890156Y625927D01*
X890966Y626152D01*
X892996Y624980D01*
X895350Y624349D01*
Y633730D01*
Y643111D01*
X892996Y642480D01*
X890966Y641308D01*
X890156Y641533D01*
X889696Y641724D01*
Y841044D01*
X910151Y861499D01*
X911593Y863379D01*
X912500Y865568D01*
X912810Y867918D01*
Y1147826D01*
X912500Y1150175D01*
X911593Y1152365D01*
X910151Y1154245D01*
X910151Y1154245D01*
X870019Y1194377D01*
X868139Y1195819D01*
X865949Y1196726D01*
X863600Y1197036D01*
X816102D01*
X813753Y1196726D01*
X811563Y1195819D01*
X809683Y1194377D01*
X776274Y1160968D01*
X769820D01*
Y1171002D01*
X858470Y1259652D01*
X863747D01*
X864069Y1258875D01*
X865652Y1256812D01*
X867715Y1255229D01*
X870117Y1254234D01*
X872695Y1253895D01*
X882445D01*
X885023Y1254234D01*
X887425Y1255229D01*
X889488Y1256812D01*
X891071Y1258875D01*
X892066Y1261277D01*
X892405Y1263855D01*
Y1273605D01*
X892066Y1276183D01*
X891071Y1278585D01*
X889488Y1280648D01*
X887425Y1282231D01*
X885023Y1283226D01*
X882445Y1283565D01*
X872695D01*
X870117Y1283226D01*
X867715Y1282231D01*
X865652Y1280648D01*
X864069Y1278585D01*
X863747Y1277808D01*
X854710D01*
X852361Y1277498D01*
X850171Y1276591D01*
X848291Y1275149D01*
X756982Y1183840D01*
X744020D01*
Y1164047D01*
X742847Y1163561D01*
X677741Y1228667D01*
X675861Y1230109D01*
X673671Y1231016D01*
X671322Y1231326D01*
X590754D01*
X561528Y1260552D01*
Y1360172D01*
X561633Y1360309D01*
X562358Y1360728D01*
X564592Y1362962D01*
X566172Y1365698D01*
X566833Y1368163D01*
X568148D01*
X568808Y1365698D01*
X570388Y1362962D01*
X572622Y1360728D01*
X575358Y1359148D01*
X578410Y1358330D01*
X581570D01*
X584622Y1359148D01*
X587358Y1360728D01*
X589593Y1362962D01*
X591172Y1365698D01*
X591833Y1368162D01*
X593148D01*
X593808Y1365698D01*
X595387Y1362962D01*
X597622Y1360728D01*
X600358Y1359148D01*
X603410Y1358330D01*
X606570D01*
X609622Y1359148D01*
X612358Y1360728D01*
X614592Y1362962D01*
X616172Y1365698D01*
X616990Y1368750D01*
Y1369492D01*
X641770Y1394272D01*
X871270D01*
X884812Y1380730D01*
Y1376490D01*
X885122Y1374140D01*
X886029Y1371951D01*
X887471Y1370071D01*
X889351Y1368629D01*
X891541Y1367722D01*
X893890Y1367412D01*
X901890D01*
X904240Y1367722D01*
X906429Y1368629D01*
X908309Y1370071D01*
X909751Y1371951D01*
X910658Y1374140D01*
X910968Y1376490D01*
Y1384490D01*
X910658Y1386839D01*
X909751Y1389029D01*
X908309Y1390909D01*
X906429Y1392351D01*
X904240Y1393258D01*
X901890Y1393568D01*
X897650D01*
X896661Y1394557D01*
X897147Y1395730D01*
X919480D01*
X922950Y545699D01*
D02*
G37*
G36*
X553979Y1383503D02*
X553493Y1382330D01*
X553410D01*
X550358Y1381512D01*
X547622Y1379932D01*
X545388Y1377698D01*
X543808Y1374962D01*
X542990Y1371910D01*
Y1368750D01*
X543726Y1366004D01*
X543682Y1365897D01*
X543682Y1365896D01*
X543681Y1365895D01*
X543527Y1364719D01*
X543372Y1363547D01*
Y1256792D01*
X543682Y1254443D01*
X544589Y1252253D01*
X546031Y1250373D01*
X580575Y1215829D01*
X580575Y1215829D01*
X582455Y1214387D01*
X584645Y1213480D01*
X586994Y1213170D01*
X667562D01*
X685749Y1194984D01*
X685263Y1193810D01*
X671260D01*
Y1190888D01*
X618668D01*
X617904Y1193738D01*
X616193Y1196702D01*
X613772Y1199123D01*
X610808Y1200834D01*
X607501Y1201720D01*
X604078D01*
X600772Y1200834D01*
X597808Y1199123D01*
X595387Y1196702D01*
X593676Y1193738D01*
X592790Y1190432D01*
Y1187009D01*
X593676Y1183702D01*
X595387Y1180738D01*
X597808Y1178317D01*
X600772Y1176606D01*
X604078Y1175720D01*
X605578D01*
X606071Y1175130D01*
X605477Y1173860D01*
X604402D01*
X601722Y1173142D01*
X600433Y1172398D01*
X510210D01*
X497477Y1185131D01*
X496584Y1186678D01*
X494808Y1188454D01*
X493261Y1189347D01*
X415079Y1267529D01*
X413199Y1268971D01*
X411009Y1269878D01*
X408660Y1270188D01*
X318183D01*
X317426Y1270944D01*
X314624Y1272562D01*
X311498Y1273400D01*
X311150D01*
Y1261110D01*
Y1248820D01*
X311498D01*
X314624Y1249658D01*
X317426Y1251276D01*
X318183Y1252032D01*
X404900D01*
X480423Y1176509D01*
X481316Y1174962D01*
X483092Y1173186D01*
X484639Y1172293D01*
X497939Y1158993D01*
X497453Y1157820D01*
X476950D01*
Y1154898D01*
X441580D01*
X434540Y1161938D01*
Y1163699D01*
X433661Y1166979D01*
X431963Y1169921D01*
X429561Y1172323D01*
X426619Y1174021D01*
X423338Y1174900D01*
X419942D01*
X416661Y1174021D01*
X413719Y1172323D01*
X411317Y1169921D01*
X409619Y1166979D01*
X408740Y1163699D01*
Y1160302D01*
X409619Y1157021D01*
X411317Y1154080D01*
X413719Y1151678D01*
X416661Y1149979D01*
X419942Y1149100D01*
X421702D01*
X431401Y1139401D01*
X433282Y1137959D01*
X435471Y1137052D01*
X437820Y1136742D01*
X476950D01*
Y1133820D01*
X500950D01*
Y1136742D01*
X592790D01*
Y1124920D01*
X618790D01*
Y1150920D01*
X606107D01*
X605657Y1151510D01*
X606285Y1152780D01*
X607178D01*
X609858Y1153498D01*
X611147Y1154242D01*
X662990D01*
X674733Y1142499D01*
X675626Y1140952D01*
X677402Y1139176D01*
X679578Y1137920D01*
X681990Y1137274D01*
Y1146810D01*
X683260D01*
Y1148080D01*
X692796D01*
X692150Y1150492D01*
X690894Y1152668D01*
X689118Y1154444D01*
X687571Y1155337D01*
X674368Y1168540D01*
X674894Y1169810D01*
X695260D01*
Y1183813D01*
X696433Y1184299D01*
X735261Y1145471D01*
X735261Y1145471D01*
X737141Y1144028D01*
X739331Y1143122D01*
X741680Y1142812D01*
X741680Y1142812D01*
X780034D01*
X782383Y1143122D01*
X784573Y1144028D01*
X786453Y1145471D01*
X819862Y1178880D01*
X821342D01*
X822076Y1177610D01*
X821099Y1175919D01*
X820220Y1172638D01*
Y1170878D01*
X751890Y1102548D01*
X417730D01*
X358340Y1161938D01*
Y1174900D01*
X332540D01*
Y1149100D01*
X345502D01*
X407551Y1087051D01*
X409431Y1085609D01*
X411621Y1084702D01*
X413970Y1084392D01*
X755650D01*
X757999Y1084702D01*
X760189Y1085609D01*
X762069Y1087051D01*
X833058Y1158040D01*
X834818D01*
X838099Y1158919D01*
X841041Y1160618D01*
X843443Y1163019D01*
X845141Y1165961D01*
X846020Y1169242D01*
Y1172638D01*
X845141Y1175919D01*
X844165Y1177610D01*
X844898Y1178880D01*
X859840D01*
X894654Y1144066D01*
Y989180D01*
X889000D01*
Y979640D01*
Y970100D01*
X894654D01*
Y965769D01*
X893555Y965134D01*
X892362Y965822D01*
X889310Y966640D01*
X886150D01*
X883098Y965822D01*
X880362Y964243D01*
X878128Y962008D01*
X876548Y959272D01*
X875730Y956220D01*
Y953060D01*
X876548Y950008D01*
X878128Y947272D01*
X880362Y945038D01*
X883098Y943458D01*
X885563Y942797D01*
Y941483D01*
X883098Y940822D01*
X880362Y939242D01*
X878128Y937008D01*
X876548Y934272D01*
X875730Y931220D01*
Y931137D01*
X874557Y930651D01*
X819619Y985589D01*
X817739Y987031D01*
X815549Y987938D01*
X813200Y988248D01*
X308883D01*
X308358Y988772D01*
X305622Y990352D01*
X302570Y991170D01*
X299410D01*
X296358Y990352D01*
X293622Y988772D01*
X291388Y986538D01*
X289808Y983802D01*
X288990Y980750D01*
Y977590D01*
X289808Y974538D01*
X291388Y971802D01*
X293622Y969568D01*
X296358Y967988D01*
X298823Y967327D01*
Y966012D01*
X296358Y965352D01*
X293622Y963772D01*
X291388Y961538D01*
X289808Y958802D01*
X288990Y955750D01*
Y955007D01*
X278569Y944587D01*
X277127Y942707D01*
X276220Y940517D01*
X275910Y938168D01*
Y887984D01*
X276220Y885635D01*
X277127Y883445D01*
X278569Y881565D01*
X420793Y739341D01*
X422673Y737899D01*
X424862Y736992D01*
X427212Y736683D01*
X464893D01*
X466924Y735510D01*
X469722Y734760D01*
X472618D01*
X475416Y735510D01*
X477447Y736683D01*
X518968D01*
X519340Y735294D01*
X520384Y733486D01*
X519650Y732216D01*
X370834D01*
X368485Y731906D01*
X366296Y731000D01*
X364416Y729557D01*
X269143Y634285D01*
X267970Y634771D01*
Y1365112D01*
X295860Y1393002D01*
X544480D01*
X553979Y1383503D01*
D02*
G37*
G36*
X572929Y964903D02*
X572443Y963730D01*
X555190D01*
Y960308D01*
X536660D01*
X534310Y959998D01*
X532121Y959091D01*
X530241Y957649D01*
X523422Y950830D01*
X522963D01*
X519975Y950029D01*
X517295Y948483D01*
X516971Y948158D01*
X500930D01*
X498581Y947849D01*
X496391Y946942D01*
X494511Y945499D01*
X475610Y926598D01*
X473255Y925967D01*
X470735Y924512D01*
X468678Y922455D01*
X467223Y919935D01*
X466470Y917125D01*
Y914215D01*
X467223Y911405D01*
X468678Y908885D01*
X470735Y906828D01*
X473255Y905373D01*
X476065Y904620D01*
X478975D01*
X481785Y905373D01*
X484305Y906828D01*
X486362Y908885D01*
X487817Y911405D01*
X488448Y913760D01*
X504690Y930003D01*
X516971D01*
X517295Y929678D01*
X519975Y928131D01*
X522963Y927330D01*
X526057D01*
X529045Y928131D01*
X531725Y929678D01*
X533912Y931865D01*
X535459Y934545D01*
X536260Y937533D01*
Y937992D01*
X540420Y942152D01*
X555190D01*
Y938730D01*
X562630D01*
X562865Y937478D01*
X560015Y935833D01*
X557687Y933505D01*
X556042Y930655D01*
X555190Y927476D01*
Y924184D01*
X556042Y921005D01*
X557687Y918155D01*
X560015Y915827D01*
X562865Y914182D01*
X564337Y913787D01*
Y912473D01*
X562865Y912078D01*
X560015Y910433D01*
X557687Y908105D01*
X556042Y905255D01*
X555190Y902076D01*
Y898784D01*
X556042Y895605D01*
X557687Y892755D01*
X560015Y890427D01*
X562865Y888782D01*
X564337Y888387D01*
Y887073D01*
X562865Y886678D01*
X560015Y885033D01*
X557687Y882705D01*
X556042Y879855D01*
X555190Y876676D01*
Y873384D01*
X556042Y870205D01*
X557687Y867355D01*
X560015Y865027D01*
X562865Y863382D01*
X564337Y862987D01*
Y861673D01*
X562865Y861278D01*
X560015Y859632D01*
X557687Y857305D01*
X556042Y854455D01*
X555190Y851276D01*
Y847984D01*
X556042Y844805D01*
X557687Y841955D01*
X560015Y839628D01*
X562865Y837982D01*
X564337Y837587D01*
Y836273D01*
X562865Y835878D01*
X560015Y834232D01*
X557687Y831905D01*
X556042Y829055D01*
X555190Y825876D01*
Y822584D01*
X556042Y819405D01*
X557687Y816555D01*
X560015Y814228D01*
X562865Y812582D01*
X564337Y812187D01*
Y810873D01*
X562865Y810478D01*
X560015Y808832D01*
X557687Y806505D01*
X556042Y803655D01*
X555190Y800476D01*
Y797184D01*
X556042Y794005D01*
X557687Y791155D01*
X560015Y788828D01*
X562865Y787182D01*
X566044Y786330D01*
X569336D01*
X572515Y787182D01*
X575365Y788828D01*
X577692Y791155D01*
X579338Y794005D01*
X580190Y797184D01*
Y798492D01*
X587157Y805459D01*
X588330Y804973D01*
Y686004D01*
X581291Y678965D01*
X580252Y677611D01*
X578820Y677624D01*
X578760Y677656D01*
X577692Y679505D01*
X575365Y681833D01*
X572515Y683478D01*
X571043Y683873D01*
Y685187D01*
X572515Y685582D01*
X575365Y687227D01*
X577692Y689555D01*
X579338Y692405D01*
X580190Y695584D01*
Y698876D01*
X579338Y702055D01*
X577692Y704905D01*
X575365Y707233D01*
X572515Y708878D01*
X571043Y709273D01*
Y710587D01*
X572515Y710982D01*
X575365Y712627D01*
X577692Y714955D01*
X579338Y717805D01*
X580190Y720984D01*
Y724276D01*
X579338Y727455D01*
X577692Y730305D01*
X575365Y732633D01*
X572515Y734278D01*
X571043Y734673D01*
Y735987D01*
X572515Y736382D01*
X575365Y738027D01*
X577692Y740355D01*
X579338Y743205D01*
X580190Y746384D01*
Y749676D01*
X579338Y752855D01*
X577692Y755705D01*
X575365Y758033D01*
X572515Y759678D01*
X569336Y760530D01*
X566044D01*
X562865Y759678D01*
X560015Y758033D01*
X557687Y755705D01*
X556042Y752855D01*
X555190Y749676D01*
Y748617D01*
X535867D01*
X533836Y749790D01*
X531038Y750540D01*
X530962D01*
X529323Y752179D01*
X527443Y753622D01*
X525253Y754529D01*
X522904Y754838D01*
X477447D01*
X475416Y756011D01*
X472618Y756760D01*
X469722D01*
X466924Y756011D01*
X464893Y754838D01*
X430972D01*
X294066Y891744D01*
Y894630D01*
X297692D01*
X308471Y883851D01*
X310351Y882409D01*
X312540Y881502D01*
X314890Y881192D01*
X477520D01*
X479869Y881502D01*
X482059Y882409D01*
X483939Y883851D01*
X485382Y885731D01*
X486288Y887921D01*
X486598Y890270D01*
X486288Y892619D01*
X485382Y894809D01*
X483939Y896689D01*
X482059Y898131D01*
X479869Y899038D01*
X477520Y899348D01*
X318650D01*
X310530Y907468D01*
Y913710D01*
X302260D01*
Y904170D01*
X299720D01*
Y913710D01*
X294066D01*
Y918042D01*
X295166Y918677D01*
X296358Y917988D01*
X299410Y917170D01*
X302570D01*
X305622Y917988D01*
X308358Y919568D01*
X310592Y921802D01*
X312172Y924538D01*
X312990Y927590D01*
Y930750D01*
X312172Y933802D01*
X310592Y936538D01*
X308358Y938773D01*
X305622Y940352D01*
X303158Y941012D01*
Y942327D01*
X305622Y942988D01*
X308358Y944567D01*
X310592Y946802D01*
X312172Y949538D01*
X312990Y952590D01*
Y955750D01*
X312172Y958802D01*
X310592Y961538D01*
X308358Y963772D01*
X305622Y965352D01*
X303157Y966012D01*
Y967327D01*
X305622Y967988D01*
X308358Y969568D01*
X308883Y970092D01*
X567740D01*
X572929Y964903D01*
D02*
G37*
G36*
X854522Y759510D02*
Y513368D01*
X854832Y511019D01*
X855739Y508829D01*
X857181Y506949D01*
X863380Y500750D01*
X863531Y500554D01*
X885218Y478866D01*
X885415Y478715D01*
X897554Y466576D01*
X897097Y465237D01*
X896427Y465151D01*
X883227Y478351D01*
X881347Y479794D01*
X879157Y480700D01*
X876808Y481010D01*
X796748D01*
X656390Y621368D01*
Y622676D01*
X655538Y625855D01*
X653893Y628705D01*
X651565Y631032D01*
X648715Y632678D01*
X647243Y633073D01*
Y634387D01*
X648715Y634782D01*
X651565Y636427D01*
X653893Y638755D01*
X655538Y641605D01*
X656390Y644784D01*
Y648076D01*
X655538Y651255D01*
X653893Y654105D01*
X651565Y656432D01*
X648715Y658078D01*
X647243Y658473D01*
Y659787D01*
X648715Y660182D01*
X651565Y661827D01*
X653893Y664155D01*
X655538Y667005D01*
X656390Y670184D01*
Y673476D01*
X655538Y676655D01*
X653893Y679505D01*
X651565Y681833D01*
X648715Y683478D01*
X647243Y683873D01*
Y685187D01*
X648715Y685582D01*
X651565Y687227D01*
X653893Y689555D01*
X655538Y692405D01*
X656390Y695584D01*
Y698876D01*
X655538Y702055D01*
X653893Y704905D01*
X651565Y707233D01*
X648715Y708878D01*
X647243Y709273D01*
Y710587D01*
X648715Y710982D01*
X651565Y712627D01*
X653893Y714955D01*
X655538Y717805D01*
X656390Y720984D01*
Y724276D01*
X655538Y727455D01*
X653893Y730305D01*
X651565Y732633D01*
X648715Y734278D01*
X647243Y734673D01*
Y735987D01*
X648715Y736382D01*
X651565Y738027D01*
X652490Y738952D01*
X692658D01*
X695007Y739262D01*
X695226Y739352D01*
X734494D01*
X734619Y739228D01*
X737241Y737713D01*
X740166Y736930D01*
X743194D01*
X746119Y737713D01*
X748741Y739228D01*
X750882Y741369D01*
X752396Y743991D01*
X753180Y746916D01*
Y749944D01*
X752396Y752869D01*
X750882Y755491D01*
X748741Y757632D01*
X746119Y759146D01*
X743194Y759930D01*
X740166D01*
X737241Y759146D01*
X734619Y757632D01*
X734494Y757507D01*
X693058D01*
X693058Y757507D01*
X690708Y757198D01*
X690490Y757108D01*
X652490D01*
X651565Y758033D01*
X648715Y759678D01*
X647243Y760073D01*
Y761387D01*
X648715Y761782D01*
X651565Y763428D01*
X653893Y765755D01*
X655538Y768605D01*
X656390Y771784D01*
Y775076D01*
X655538Y778255D01*
X653893Y781105D01*
X651565Y783432D01*
X648715Y785078D01*
X645536Y785930D01*
X642244D01*
X639065Y785078D01*
X637557Y784208D01*
X636458Y784843D01*
Y790404D01*
X637631Y790890D01*
X637725Y790796D01*
X640015Y789474D01*
X642568Y788790D01*
X642620D01*
Y798830D01*
Y808870D01*
X642568D01*
X640015Y808186D01*
X637725Y806864D01*
X637631Y806770D01*
X636458Y807256D01*
Y812817D01*
X637557Y813452D01*
X639065Y812582D01*
X642244Y811730D01*
X645536D01*
X648715Y812582D01*
X651565Y814228D01*
X652490Y815152D01*
X798880D01*
X854522Y759510D01*
D02*
G37*
G36*
X519780Y708260D02*
X528320D01*
X536860D01*
Y713799D01*
X538130Y713952D01*
X555190Y696892D01*
Y695584D01*
X556042Y692405D01*
X557687Y689555D01*
X560015Y687227D01*
X562865Y685582D01*
X564337Y685187D01*
Y683873D01*
X562865Y683478D01*
X560015Y681833D01*
X557687Y679505D01*
X556042Y676655D01*
X555190Y673476D01*
Y670184D01*
X556042Y667005D01*
X557687Y664155D01*
X560015Y661827D01*
X562865Y660182D01*
X564337Y659787D01*
Y658473D01*
X562865Y658078D01*
X560015Y656432D01*
X557687Y654105D01*
X556042Y651255D01*
X555190Y648076D01*
Y644784D01*
X556042Y641605D01*
X557687Y638755D01*
X560015Y636427D01*
X562865Y634782D01*
X564337Y634387D01*
Y633073D01*
X562865Y632678D01*
X560015Y631032D01*
X557687Y628705D01*
X556042Y625855D01*
X555190Y622676D01*
Y619384D01*
X556042Y616205D01*
X556912Y614697D01*
X556277Y613598D01*
X554940D01*
X538549Y629989D01*
X536669Y631432D01*
X534479Y632338D01*
X532130Y632648D01*
X294978D01*
X294452Y633918D01*
X374594Y714060D01*
X519780D01*
Y708260D01*
D02*
G37*
G36*
X605302Y592075D02*
Y580690D01*
X605611Y578341D01*
X606518Y576151D01*
X607961Y574271D01*
X761931Y420301D01*
X763811Y418858D01*
X766001Y417952D01*
X768350Y417642D01*
X862266D01*
X863391Y416517D01*
X866299Y414839D01*
X866985Y414655D01*
Y413385D01*
X866299Y413201D01*
X863391Y411522D01*
X861018Y409149D01*
X859339Y406241D01*
X858470Y402999D01*
Y399641D01*
X859339Y396399D01*
X861018Y393491D01*
X863391Y391118D01*
X866299Y389439D01*
X869541Y388570D01*
X872899D01*
X876141Y389439D01*
X879049Y391118D01*
X881423Y393491D01*
X883101Y396399D01*
X883285Y397085D01*
X884555D01*
X884739Y396399D01*
X886417Y393491D01*
X888791Y391118D01*
X891699Y389439D01*
X892385Y389255D01*
Y387985D01*
X891699Y387801D01*
X888791Y386123D01*
X886417Y383749D01*
X884739Y380841D01*
X883870Y377599D01*
Y374241D01*
X884739Y370999D01*
X886417Y368091D01*
X888791Y365718D01*
X891699Y364039D01*
X894941Y363170D01*
X896532D01*
X902274Y357428D01*
Y315826D01*
X901004Y315148D01*
X899517Y316141D01*
X898295Y316647D01*
X898191Y316899D01*
X898191Y316899D01*
X898191Y316899D01*
X897295Y318067D01*
X896749Y318779D01*
X887289Y328239D01*
X887289Y328239D01*
X887289Y328239D01*
X885409Y329682D01*
X884062Y330240D01*
X883220Y330589D01*
X883220Y330589D01*
X883219Y330589D01*
X882237Y330718D01*
X880870Y330898D01*
X880870Y330898D01*
X880870Y330898D01*
X767847D01*
X767070Y330796D01*
X766477Y331999D01*
X801320Y366842D01*
X866363D01*
X867248Y366331D01*
X869865Y365630D01*
X869950D01*
Y375920D01*
Y386210D01*
X869865D01*
X867248Y385509D01*
X866363Y384998D01*
X797560D01*
X797560Y384998D01*
X795211Y384688D01*
X793021Y383782D01*
X791141Y382339D01*
X713740Y304938D01*
X693489Y325189D01*
X691609Y326632D01*
X689419Y327538D01*
X687070Y327848D01*
X494030D01*
X491680Y327538D01*
X489491Y326632D01*
X487611Y325189D01*
X467360Y304938D01*
X339517Y432780D01*
Y437468D01*
X339208Y439818D01*
X338301Y442007D01*
X336859Y443887D01*
X323980Y456766D01*
Y457285D01*
X323279Y459902D01*
X321924Y462248D01*
X320008Y464164D01*
X317662Y465519D01*
X315045Y466220D01*
X314960D01*
Y455930D01*
X313690D01*
Y454660D01*
X303400D01*
Y454575D01*
X304101Y451958D01*
X305456Y449612D01*
X307372Y447696D01*
X307378Y447692D01*
X310939Y444131D01*
X310610Y442905D01*
X308769Y442411D01*
X305861Y440732D01*
X303487Y438359D01*
X301809Y435451D01*
X301625Y434765D01*
X300355D01*
X300171Y435451D01*
X298493Y438359D01*
X296119Y440732D01*
X293211Y442411D01*
X292525Y442595D01*
Y443865D01*
X293211Y444049D01*
X296119Y445728D01*
X298493Y448101D01*
X300171Y451009D01*
X301040Y454251D01*
Y457609D01*
X300171Y460851D01*
X298493Y463759D01*
X296119Y466133D01*
X293211Y467811D01*
X289969Y468680D01*
X286611D01*
X283369Y467811D01*
X281703Y466850D01*
X280604Y467485D01*
Y500230D01*
X302410D01*
Y525930D01*
X280604D01*
Y530947D01*
X281874Y531473D01*
X283180Y530166D01*
X285550Y528798D01*
X288192Y528090D01*
X288290D01*
Y538480D01*
Y548870D01*
X288192D01*
X285550Y548162D01*
X283180Y546794D01*
X281874Y545487D01*
X280604Y546013D01*
Y547613D01*
X280294Y549962D01*
X279387Y552152D01*
X277945Y554032D01*
X277945Y554032D01*
X268787Y563190D01*
Y570156D01*
X269960Y570642D01*
X276710Y563892D01*
Y562188D01*
X277586Y558920D01*
X279277Y555990D01*
X281670Y553597D01*
X284600Y551906D01*
X287868Y551030D01*
X291252D01*
X294520Y551906D01*
X297450Y553597D01*
X299842Y555990D01*
X301534Y558920D01*
X302410Y562188D01*
Y565572D01*
X301534Y568840D01*
X299842Y571770D01*
X297760Y573852D01*
X298199Y575122D01*
X582930D01*
X585279Y575432D01*
X587469Y576339D01*
X589349Y577781D01*
X604129Y592561D01*
X605302Y592075D01*
D02*
G37*
G36*
X468630Y281560D02*
X468748D01*
X471428Y282278D01*
X473832Y283666D01*
X475794Y285628D01*
X477182Y288032D01*
X477567Y289469D01*
X478590Y290492D01*
X479870Y289977D01*
X480646Y287082D01*
X482357Y284118D01*
X484778Y281697D01*
X487742Y279986D01*
X491049Y279100D01*
X492922D01*
X501929Y270093D01*
X501443Y268920D01*
X307036D01*
X291071Y284885D01*
X291597Y286155D01*
X297908D01*
X309303Y274759D01*
X309303Y274759D01*
X311183Y273316D01*
X313372Y272410D01*
X315722Y272100D01*
X315722Y272100D01*
X405638D01*
X407987Y272410D01*
X410177Y273316D01*
X412057Y274759D01*
X416320Y279022D01*
X420560D01*
X422910Y279332D01*
X425099Y280239D01*
X426979Y281681D01*
X428421Y283561D01*
X429253Y285569D01*
X429864Y285754D01*
X430610Y285758D01*
X431557Y284118D01*
X433978Y281697D01*
X436942Y279986D01*
X440248Y279100D01*
X443671D01*
X446978Y279986D01*
X449942Y281697D01*
X452363Y284118D01*
X454074Y287082D01*
X454850Y289977D01*
X456130Y290492D01*
X457153Y289469D01*
X457538Y288032D01*
X458926Y285628D01*
X460888Y283666D01*
X463292Y282278D01*
X465972Y281560D01*
X466090D01*
Y292100D01*
X468630D01*
Y281560D01*
D02*
G37*
%LPC*%
G36*
X899278Y1365630D02*
X899160D01*
Y1356360D01*
X908430D01*
Y1356478D01*
X907712Y1359158D01*
X906324Y1361562D01*
X904362Y1363524D01*
X901958Y1364912D01*
X899278Y1365630D01*
D02*
G37*
G36*
X896620D02*
X896502D01*
X893822Y1364912D01*
X891418Y1363524D01*
X889456Y1361562D01*
X888068Y1359158D01*
X887350Y1356478D01*
Y1356360D01*
X896620D01*
Y1365630D01*
D02*
G37*
G36*
X908430Y1353820D02*
X899160D01*
Y1344550D01*
X899278D01*
X901958Y1345268D01*
X904362Y1346656D01*
X906324Y1348618D01*
X907712Y1351022D01*
X908430Y1353702D01*
Y1353820D01*
D02*
G37*
G36*
X896620D02*
X887350D01*
Y1353702D01*
X888068Y1351022D01*
X889456Y1348618D01*
X891418Y1346656D01*
X893822Y1345268D01*
X896502Y1344550D01*
X896620D01*
Y1353820D01*
D02*
G37*
G36*
X879188Y1316020D02*
X878840D01*
Y1305000D01*
X889860D01*
Y1305348D01*
X889023Y1308474D01*
X887404Y1311276D01*
X885116Y1313565D01*
X882314Y1315183D01*
X879188Y1316020D01*
D02*
G37*
G36*
X876300D02*
X875952D01*
X872826Y1315183D01*
X870024Y1313565D01*
X867736Y1311276D01*
X866117Y1308474D01*
X865280Y1305348D01*
Y1305000D01*
X876300D01*
Y1316020D01*
D02*
G37*
G36*
X889860Y1302460D02*
X878840D01*
Y1291440D01*
X879188D01*
X882314Y1292278D01*
X885116Y1293896D01*
X887404Y1296184D01*
X889023Y1298986D01*
X889860Y1302112D01*
Y1302460D01*
D02*
G37*
G36*
X876300D02*
X865280D01*
Y1302112D01*
X866117Y1298986D01*
X867736Y1296184D01*
X870024Y1293896D01*
X872826Y1292278D01*
X875952Y1291440D01*
X876300D01*
Y1302460D01*
D02*
G37*
G36*
X897890Y643111D02*
Y635000D01*
X906001D01*
X905370Y637354D01*
X904134Y639496D01*
X902386Y641244D01*
X900244Y642480D01*
X897890Y643111D01*
D02*
G37*
G36*
X906001Y632460D02*
X897890D01*
Y624349D01*
X900244Y624980D01*
X902386Y626216D01*
X904134Y627964D01*
X905370Y630106D01*
X906001Y632460D01*
D02*
G37*
G36*
X539530Y1379870D02*
X531260D01*
Y1371600D01*
X539530D01*
Y1379870D01*
D02*
G37*
G36*
X528720D02*
X520450D01*
Y1371600D01*
X528720D01*
Y1379870D01*
D02*
G37*
G36*
X539530Y1369060D02*
X531260D01*
Y1360790D01*
X539530D01*
Y1369060D01*
D02*
G37*
G36*
X528720D02*
X520450D01*
Y1360790D01*
X528720D01*
Y1369060D01*
D02*
G37*
G36*
X314755Y1310945D02*
X305005D01*
X302427Y1310606D01*
X300025Y1309611D01*
X297962Y1308028D01*
X296379Y1305965D01*
X295384Y1303563D01*
X295045Y1300985D01*
Y1291235D01*
X295384Y1288657D01*
X296379Y1286255D01*
X297962Y1284192D01*
X300025Y1282609D01*
X302427Y1281614D01*
X305005Y1281275D01*
X314755D01*
X317333Y1281614D01*
X319735Y1282609D01*
X321798Y1284192D01*
X323381Y1286255D01*
X324376Y1288657D01*
X324715Y1291235D01*
Y1300985D01*
X324376Y1303563D01*
X323381Y1305965D01*
X321798Y1308028D01*
X319735Y1309611D01*
X317333Y1310606D01*
X314755Y1310945D01*
D02*
G37*
G36*
X308610Y1273400D02*
X308262D01*
X305136Y1272562D01*
X302334Y1270944D01*
X300046Y1268656D01*
X298428Y1265854D01*
X297590Y1262728D01*
Y1262380D01*
X308610D01*
Y1273400D01*
D02*
G37*
G36*
Y1259840D02*
X297590D01*
Y1259492D01*
X298428Y1256366D01*
X300046Y1253564D01*
X302334Y1251276D01*
X305136Y1249658D01*
X308262Y1248820D01*
X308610D01*
Y1259840D01*
D02*
G37*
G36*
X692796Y1145540D02*
X684530D01*
Y1137274D01*
X686942Y1137920D01*
X689118Y1139176D01*
X690894Y1140952D01*
X692150Y1143128D01*
X692796Y1145540D01*
D02*
G37*
G36*
X455231Y1062500D02*
X455180D01*
Y1053740D01*
X463940D01*
Y1053790D01*
X463257Y1056341D01*
X461936Y1058628D01*
X460069Y1060496D01*
X457782Y1061816D01*
X455231Y1062500D01*
D02*
G37*
G36*
X452640D02*
X452590D01*
X450039Y1061816D01*
X447752Y1060496D01*
X445884Y1058628D01*
X444564Y1056341D01*
X443880Y1053790D01*
Y1053740D01*
X452640D01*
Y1062500D01*
D02*
G37*
G36*
X463940Y1051200D02*
X455180D01*
Y1042440D01*
X455231D01*
X457782Y1043123D01*
X460069Y1044444D01*
X461936Y1046311D01*
X463257Y1048598D01*
X463940Y1051149D01*
Y1051200D01*
D02*
G37*
G36*
X452640D02*
X443880D01*
Y1051149D01*
X444564Y1048598D01*
X445884Y1046311D01*
X447752Y1044444D01*
X450039Y1043123D01*
X452590Y1042440D01*
X452640D01*
Y1051200D01*
D02*
G37*
G36*
X520554Y1064960D02*
X517266D01*
X514089Y1064109D01*
X511241Y1062464D01*
X508915Y1060139D01*
X507271Y1057291D01*
X506420Y1054114D01*
Y1050826D01*
X507271Y1047649D01*
X508915Y1044801D01*
X511241Y1042475D01*
X514089Y1040831D01*
X517266Y1039980D01*
X520554D01*
X523731Y1040831D01*
X526579Y1042475D01*
X528904Y1044801D01*
X530549Y1047649D01*
X531400Y1050826D01*
Y1054114D01*
X530549Y1057291D01*
X528904Y1060139D01*
X526579Y1062464D01*
X523731Y1064109D01*
X520554Y1064960D01*
D02*
G37*
G36*
X531400Y1019960D02*
X506420D01*
Y994980D01*
X531400D01*
Y1019960D01*
D02*
G37*
G36*
X455555D02*
X452266D01*
X449089Y1019109D01*
X446241Y1017465D01*
X443916Y1015139D01*
X442271Y1012291D01*
X441420Y1009115D01*
Y1005826D01*
X442271Y1002649D01*
X443916Y999801D01*
X446241Y997476D01*
X449089Y995831D01*
X452266Y994980D01*
X455555D01*
X458731Y995831D01*
X461579Y997476D01*
X463905Y999801D01*
X465549Y1002649D01*
X466400Y1005826D01*
Y1009115D01*
X465549Y1012291D01*
X463905Y1015139D01*
X461579Y1017465D01*
X458731Y1019109D01*
X455555Y1019960D01*
D02*
G37*
G36*
X886460Y989180D02*
X878190D01*
Y980910D01*
X886460D01*
Y989180D01*
D02*
G37*
G36*
Y978370D02*
X878190D01*
Y970100D01*
X886460D01*
Y978370D01*
D02*
G37*
G36*
X536260Y860830D02*
X512760D01*
Y837330D01*
X536260D01*
Y860830D01*
D02*
G37*
G36*
X569012Y783470D02*
X568960D01*
Y774700D01*
X577730D01*
Y774752D01*
X577046Y777305D01*
X575724Y779595D01*
X573855Y781464D01*
X571565Y782786D01*
X569012Y783470D01*
D02*
G37*
G36*
X577730Y772160D02*
X568960D01*
Y763390D01*
X569012D01*
X571565Y764074D01*
X573855Y765396D01*
X575724Y767265D01*
X577046Y769555D01*
X577730Y772108D01*
Y772160D01*
D02*
G37*
G36*
X529590Y798618D02*
X527241Y798308D01*
X526689Y798080D01*
X521050D01*
Y792441D01*
X520822Y791890D01*
X520512Y789540D01*
X520822Y787191D01*
X521050Y786639D01*
Y781000D01*
X525292D01*
X539281Y767011D01*
X541161Y765568D01*
X543351Y764662D01*
X545700Y764352D01*
X563333D01*
X563815Y764074D01*
X566368Y763390D01*
X566420D01*
Y773430D01*
Y783470D01*
X566368D01*
X563815Y782786D01*
X563333Y782508D01*
X549460D01*
X538130Y793838D01*
Y798080D01*
X532491D01*
X531939Y798308D01*
X529590Y798618D01*
D02*
G37*
G36*
X645212Y808870D02*
X645160D01*
Y798830D01*
Y788790D01*
X645212D01*
X647765Y789474D01*
X648247Y789752D01*
X690490D01*
X690708Y789662D01*
X693058Y789352D01*
X693058Y789353D01*
X741680D01*
X741966Y789390D01*
X750720D01*
Y798144D01*
X750758Y798430D01*
X750720Y798716D01*
Y807470D01*
X741966D01*
X741680Y807508D01*
X695226D01*
X695007Y807598D01*
X692658Y807908D01*
X648247D01*
X647765Y808186D01*
X645212Y808870D01*
D02*
G37*
G36*
X830765Y546990D02*
X827855D01*
X825045Y546237D01*
X822525Y544782D01*
X820468Y542725D01*
X819013Y540205D01*
X818260Y537395D01*
Y534485D01*
X819013Y531675D01*
X820468Y529155D01*
X822525Y527098D01*
X825045Y525643D01*
X827855Y524890D01*
X830765D01*
X833575Y525643D01*
X836095Y527098D01*
X838152Y529155D01*
X839607Y531675D01*
X840360Y534485D01*
Y537395D01*
X839607Y540205D01*
X838152Y542725D01*
X836095Y544782D01*
X833575Y546237D01*
X830765Y546990D01*
D02*
G37*
G36*
Y521590D02*
X827855D01*
X825045Y520837D01*
X822525Y519382D01*
X820468Y517325D01*
X819013Y514805D01*
X818260Y511995D01*
Y509085D01*
X819013Y506275D01*
X820468Y503755D01*
X822525Y501698D01*
X825045Y500243D01*
X827855Y499490D01*
X830765D01*
X833575Y500243D01*
X836095Y501698D01*
X838152Y503755D01*
X839607Y506275D01*
X840360Y509085D01*
Y511995D01*
X839607Y514805D01*
X838152Y517325D01*
X836095Y519382D01*
X833575Y520837D01*
X830765Y521590D01*
D02*
G37*
G36*
X536860Y705720D02*
X529590D01*
Y698450D01*
X536860D01*
Y705720D01*
D02*
G37*
G36*
X527050D02*
X519780D01*
Y698450D01*
X527050D01*
Y705720D01*
D02*
G37*
G36*
X482170Y707960D02*
X460170D01*
Y685960D01*
X469332D01*
X504722Y650571D01*
X506602Y649128D01*
X508791Y648222D01*
X511141Y647912D01*
X522043D01*
X524074Y646739D01*
X526872Y645990D01*
X529768D01*
X532566Y646739D01*
X535074Y648188D01*
X537122Y650236D01*
X538570Y652744D01*
X539320Y655542D01*
Y658438D01*
X538570Y661236D01*
X537122Y663744D01*
X535074Y665792D01*
X532566Y667240D01*
X529768Y667990D01*
X526872D01*
X524074Y667240D01*
X522043Y666067D01*
X514901D01*
X482170Y698798D01*
Y707960D01*
D02*
G37*
G36*
X290928Y548870D02*
X290830D01*
Y539750D01*
X299950D01*
Y539848D01*
X299242Y542490D01*
X297874Y544860D01*
X295940Y546794D01*
X293570Y548162D01*
X290928Y548870D01*
D02*
G37*
G36*
X299950Y537210D02*
X290830D01*
Y528090D01*
X290928D01*
X293570Y528798D01*
X295940Y530166D01*
X297874Y532100D01*
X299242Y534470D01*
X299950Y537112D01*
Y537210D01*
D02*
G37*
G36*
X312420Y466220D02*
X312335D01*
X309718Y465519D01*
X307372Y464164D01*
X305456Y462248D01*
X304101Y459902D01*
X303400Y457285D01*
Y457200D01*
X312420D01*
Y466220D01*
D02*
G37*
G36*
X872575Y386210D02*
X872490D01*
Y377190D01*
X881510D01*
Y377275D01*
X880809Y379892D01*
X879454Y382238D01*
X877538Y384154D01*
X875192Y385509D01*
X872575Y386210D01*
D02*
G37*
G36*
X881510Y374650D02*
X872490D01*
Y365630D01*
X872575D01*
X875192Y366331D01*
X877538Y367686D01*
X879454Y369602D01*
X880809Y371948D01*
X881510Y374565D01*
Y374650D01*
D02*
G37*
%LPD*%
D42*
X488950Y1145820D02*
D03*
X683260Y1181810D02*
D03*
X887730Y979640D02*
D03*
X300990Y904170D02*
D03*
D43*
X488950Y1180820D02*
D03*
X683260Y1146810D02*
D03*
X887730Y954640D02*
D03*
Y929640D02*
D03*
Y904640D02*
D03*
X300990Y929170D02*
D03*
Y954170D02*
D03*
Y979170D02*
D03*
X604990Y1370330D02*
D03*
X579990D02*
D03*
X554990D02*
D03*
D44*
X289560Y513080D02*
D03*
D45*
Y538480D02*
D03*
Y563880D02*
D03*
Y589280D02*
D03*
D46*
X529990Y1370330D02*
D03*
D47*
X471170Y745760D02*
D03*
X529590Y739540D02*
D03*
X528320Y656990D02*
D03*
D48*
X471170Y696960D02*
D03*
X529590Y789540D02*
D03*
X528320Y706990D02*
D03*
D49*
X741680Y798430D02*
D03*
D50*
Y748430D02*
D03*
D51*
X437820Y1145820D02*
X597890D01*
X427212Y745760D02*
X522904D01*
X529124Y739540D02*
X559200D01*
X614380Y580690D02*
X768350Y426720D01*
X614380Y580690D02*
Y639295D01*
X768350Y426720D02*
X871220D01*
X553842Y1364940D02*
Y1369182D01*
X552450Y1363547D02*
X553842Y1364940D01*
X552450Y1256792D02*
X586994Y1222248D01*
X553842Y1369182D02*
X554990Y1370330D01*
X552450Y1256792D02*
Y1363547D01*
X643890Y824230D02*
X802640D01*
X863600Y513368D02*
Y763270D01*
X802640Y824230D02*
X863600Y763270D01*
X467360Y292100D02*
X494030Y318770D01*
X687070D02*
X715010Y290830D01*
X494030Y318770D02*
X687070D01*
X330440Y429020D02*
X467360Y292100D01*
X344880Y314960D02*
X420085D01*
X330910Y300990D02*
X344880Y314960D01*
X420085D02*
X441960Y293085D01*
Y292100D02*
Y293085D01*
X330440Y429020D02*
Y437468D01*
X313690Y454218D02*
Y455930D01*
Y454218D02*
X330440Y437468D01*
X767847Y321820D02*
X880870D01*
X890329Y305271D02*
X892530Y303070D01*
X890329Y305271D02*
Y312361D01*
X880870Y321820D02*
X890329Y312361D01*
X744410Y298384D02*
X767847Y321820D01*
X740410Y292995D02*
X744410Y296995D01*
Y298384D01*
X740410Y290830D02*
Y292995D01*
X719010Y297370D02*
X797560Y375920D01*
X715010Y290830D02*
Y292995D01*
X719010Y296995D01*
Y297370D01*
X797560Y375920D02*
X871220D01*
X863600Y513368D02*
X869950Y507018D01*
X880618Y548132D02*
Y844804D01*
X903732Y867918D01*
X880618Y548132D02*
X896620Y532130D01*
X869950Y506972D02*
Y507018D01*
X891637Y485285D02*
X891683D01*
X913370Y463598D01*
X896620Y426934D02*
X905056Y435370D01*
X869950Y506972D02*
X891637Y485285D01*
X905056Y435370D02*
X908098D01*
X896620Y426720D02*
Y426934D01*
X913370Y440642D02*
Y463598D01*
X908098Y435370D02*
X913370Y440642D01*
X926370Y281210D02*
Y527780D01*
X600710Y601980D02*
Y659546D01*
X583023Y604520D02*
X587710Y609206D01*
X600710Y659546D02*
X612394Y671229D01*
X582930Y584200D02*
X600710Y601980D01*
X587710Y609206D02*
Y672546D01*
X551180Y604520D02*
X583023D01*
X587710Y672546D02*
X597408Y682244D01*
X627380Y602431D02*
X777691Y452120D01*
X614380Y639295D02*
X627380Y652295D01*
Y602431D02*
Y629920D01*
X643890Y646430D01*
X289560Y589280D02*
X291644D01*
X296724Y584200D01*
X582930D01*
X532130Y623570D02*
X551180Y604520D01*
X272710Y602402D02*
X293878Y623570D01*
X532130D01*
X272710Y580730D02*
Y602402D01*
Y580730D02*
X289560Y563880D01*
X559200Y739540D02*
X567690Y748030D01*
X522904Y745760D02*
X529124Y739540D01*
X597890Y1145820D02*
X605790Y1137920D01*
X780034Y1151890D02*
X816102Y1187958D01*
X671322Y1222248D02*
X741680Y1151890D01*
X780034D01*
X586994Y1222248D02*
X671322D01*
X604990Y1370330D02*
X638010Y1403350D01*
X875030D02*
X897890Y1380490D01*
X638010Y1403350D02*
X875030D01*
X258318Y1368298D02*
X292100Y1402080D01*
X548240D02*
X579990Y1370330D01*
X292100Y1402080D02*
X548240D01*
X258318Y648439D02*
Y1368298D01*
X421640Y1162000D02*
X437820Y1145820D01*
X845290Y290830D02*
X857530Y303070D01*
X765810Y290830D02*
X845290D01*
X896620Y375920D02*
X911352Y361188D01*
Y292354D02*
Y361188D01*
X892810Y273812D02*
X911352Y292354D01*
X706628Y273812D02*
X892810D01*
X689610Y290830D02*
X706628Y273812D01*
X408660Y1261110D02*
X488950Y1180820D01*
X309880Y1261110D02*
X408660D01*
X813200Y979170D02*
X887730Y904640D01*
X300990Y979170D02*
X571500D01*
X584200Y966470D01*
Y815340D02*
Y966470D01*
X567690Y798830D02*
X584200Y815340D01*
X524510Y939080D02*
X536660Y951230D01*
X567690D01*
X903732Y867918D02*
Y1147826D01*
X863600Y1187958D02*
X903732Y1147826D01*
X816102Y1187958D02*
X863600D01*
X643890Y621030D02*
X792988Y471932D01*
X876808D01*
X896620Y452120D01*
X541782Y723138D02*
X567690Y697230D01*
X370834Y723138D02*
X541782D01*
X259709Y612013D02*
X370834Y723138D01*
X259709Y559429D02*
Y612013D01*
Y559429D02*
X271526Y547613D01*
Y396494D02*
Y547613D01*
Y396494D02*
X288290Y379730D01*
X597408Y682244D02*
Y904748D01*
X643890Y951230D01*
X612394Y671229D02*
Y894334D01*
X643890Y925830D01*
X777691Y452120D02*
X871220D01*
X477520Y915670D02*
X500930Y939080D01*
X524510D01*
X854710Y1268730D02*
X877570D01*
X756920Y1170940D02*
X854710Y1268730D01*
X345440Y1162000D02*
X413970Y1093470D01*
X755650D01*
X833120Y1170940D01*
X471170Y696960D02*
X511141Y656990D01*
X528320D01*
X405638Y281178D02*
X416560Y292100D01*
X315722Y281178D02*
X405638D01*
X295910Y300990D02*
X315722Y281178D01*
X627380Y833120D02*
X643890Y849630D01*
X627380Y652295D02*
Y833120D01*
X643890Y798830D02*
X692658D01*
X693058Y798430D01*
X741680D01*
X529590Y789540D02*
X545700Y773430D01*
X567690D01*
X300990Y904170D02*
X314890Y890270D01*
X477520D01*
X666750Y1163320D02*
X683260Y1146810D01*
X605790Y1163320D02*
X666750D01*
X488950Y1180820D02*
X506450Y1163320D01*
X605790D01*
X284988Y887984D02*
X427212Y745760D01*
X284988Y887984D02*
Y938168D01*
X300990Y954170D01*
X246709Y636830D02*
X258318Y648439D01*
X246709Y316409D02*
Y636830D01*
Y316409D02*
X303276Y259842D01*
X905002D01*
X926370Y281210D01*
X896620Y557530D02*
X926370Y527780D01*
X671830Y273050D02*
X689610Y290830D01*
X511810Y273050D02*
X671830D01*
X492760Y292100D02*
X511810Y273050D01*
X643890Y748030D02*
X692658D01*
X693058Y748430D01*
X741680D01*
X605790Y1188720D02*
X612700Y1181810D01*
X683260D01*
X571500Y979170D02*
X813200D01*
D52*
X255270Y243840D02*
D03*
X941070Y247650D02*
D03*
X939800Y1412240D02*
D03*
X259080D02*
D03*
D53*
X829310Y510540D02*
D03*
Y535940D02*
D03*
X477520Y890270D02*
D03*
Y915670D02*
D03*
D54*
X857530Y303070D02*
D03*
X295910Y300990D02*
D03*
D55*
X892530Y303070D02*
D03*
X877570Y1303730D02*
D03*
X309880Y1261110D02*
D03*
X330910Y300990D02*
D03*
D56*
X567690Y951230D02*
D03*
D57*
Y925830D02*
D03*
Y900430D02*
D03*
Y875030D02*
D03*
Y849630D02*
D03*
Y824230D02*
D03*
Y798830D02*
D03*
Y773430D02*
D03*
Y748030D02*
D03*
Y722630D02*
D03*
Y697230D02*
D03*
Y671830D02*
D03*
Y646430D02*
D03*
Y621030D02*
D03*
X643890Y951230D02*
D03*
Y925830D02*
D03*
Y900430D02*
D03*
Y875030D02*
D03*
Y849630D02*
D03*
Y824230D02*
D03*
Y798830D02*
D03*
Y773430D02*
D03*
Y748030D02*
D03*
Y722630D02*
D03*
Y697230D02*
D03*
Y671830D02*
D03*
Y646430D02*
D03*
Y621030D02*
D03*
D58*
X756920Y1170940D02*
D03*
X345440Y1162000D02*
D03*
D59*
X833120Y1170940D02*
D03*
X421640Y1162000D02*
D03*
D60*
X518910Y1007470D02*
D03*
D61*
X453910D02*
D03*
X518910Y1052470D02*
D03*
X453910D02*
D03*
D62*
X896620Y506730D02*
D03*
D63*
Y532130D02*
D03*
Y557530D02*
D03*
Y582930D02*
D03*
Y608330D02*
D03*
Y633730D02*
D03*
D64*
X877570Y1268730D02*
D03*
X309880Y1296110D02*
D03*
D65*
X605790Y1188720D02*
D03*
Y1163320D02*
D03*
X897890Y1355090D02*
D03*
X689610Y290830D02*
D03*
X740410D02*
D03*
X715010D02*
D03*
X664210D02*
D03*
X638810D02*
D03*
X492760Y292100D02*
D03*
X441960D02*
D03*
X467360D02*
D03*
X518160D02*
D03*
X543560D02*
D03*
D66*
X605790Y1137920D02*
D03*
D67*
X897890Y1380490D02*
D03*
D68*
X524510Y849080D02*
D03*
D69*
Y939080D02*
D03*
D70*
X765810Y290830D02*
D03*
X416560Y292100D02*
D03*
D71*
X871220Y375920D02*
D03*
Y401320D02*
D03*
Y426720D02*
D03*
Y452120D02*
D03*
X896620Y375920D02*
D03*
Y401320D02*
D03*
Y426720D02*
D03*
X288290Y405130D02*
D03*
Y430530D02*
D03*
Y455930D02*
D03*
X313690Y379730D02*
D03*
Y405130D02*
D03*
Y430530D02*
D03*
Y455930D02*
D03*
D72*
X896620Y452120D02*
D03*
X288290Y379730D02*
D03*
M02*
