G04*
G04 #@! TF.GenerationSoftware,Altium Limited,Altium Designer,23.1.1 (15)*
G04*
G04 Layer_Color=255*
%FSLAX44Y44*%
%MOMM*%
G71*
G04*
G04 #@! TF.SameCoordinates,903AE006-7F47-48BF-86F7-E966476BCC6D*
G04*
G04*
G04 #@! TF.FilePolarity,Positive*
G04*
G01*
G75*
%ADD42R,1.4000X1.4000*%
%ADD43C,1.4000*%
%ADD44R,1.5700X1.5700*%
%ADD45C,1.5700*%
%ADD46R,1.4000X1.4000*%
%ADD47C,1.2000*%
%ADD48R,1.2000X1.2000*%
%ADD49R,1.3000X1.3000*%
%ADD50C,1.3000*%
%ADD52C,3.5000*%
%ADD53C,1.2100*%
G04:AMPARAMS|DCode=54|XSize=1.95mm|YSize=1.95mm|CornerRadius=0.4875mm|HoleSize=0mm|Usage=FLASHONLY|Rotation=0.000|XOffset=0mm|YOffset=0mm|HoleType=Round|Shape=RoundedRectangle|*
%AMROUNDEDRECTD54*
21,1,1.9500,0.9750,0,0,0.0*
21,1,0.9750,1.9500,0,0,0.0*
1,1,0.9750,0.4875,-0.4875*
1,1,0.9750,-0.4875,-0.4875*
1,1,0.9750,-0.4875,0.4875*
1,1,0.9750,0.4875,0.4875*
%
%ADD54ROUNDEDRECTD54*%
%ADD55C,1.9500*%
%ADD56R,1.5000X1.5000*%
%ADD57C,1.5000*%
%ADD58R,1.5800X1.5800*%
%ADD59C,1.5800*%
%ADD60R,1.4980X1.4980*%
%ADD61C,1.4980*%
%ADD62R,1.3700X1.3700*%
%ADD63C,1.3700*%
G04:AMPARAMS|DCode=64|XSize=1.95mm|YSize=1.95mm|CornerRadius=0.4875mm|HoleSize=0mm|Usage=FLASHONLY|Rotation=90.000|XOffset=0mm|YOffset=0mm|HoleType=Round|Shape=RoundedRectangle|*
%AMROUNDEDRECTD64*
21,1,1.9500,0.9750,0,0,90.0*
21,1,0.9750,1.9500,0,0,90.0*
1,1,0.9750,0.4875,0.4875*
1,1,0.9750,0.4875,-0.4875*
1,1,0.9750,-0.4875,-0.4875*
1,1,0.9750,-0.4875,0.4875*
%
%ADD64ROUNDEDRECTD64*%
%ADD65C,1.6000*%
%ADD66R,1.6000X1.6000*%
G04:AMPARAMS|DCode=67|XSize=1.6mm|YSize=1.6mm|CornerRadius=0.4mm|HoleSize=0mm|Usage=FLASHONLY|Rotation=270.000|XOffset=0mm|YOffset=0mm|HoleType=Round|Shape=RoundedRectangle|*
%AMROUNDEDRECTD67*
21,1,1.6000,0.8000,0,0,270.0*
21,1,0.8000,1.6000,0,0,270.0*
1,1,0.8000,-0.4000,-0.4000*
1,1,0.8000,-0.4000,0.4000*
1,1,0.8000,0.4000,0.4000*
1,1,0.8000,0.4000,-0.4000*
%
%ADD67ROUNDEDRECTD67*%
%ADD68R,1.3500X1.3500*%
%ADD69C,1.3500*%
G04:AMPARAMS|DCode=70|XSize=1.6mm|YSize=1.6mm|CornerRadius=0.4mm|HoleSize=0mm|Usage=FLASHONLY|Rotation=180.000|XOffset=0mm|YOffset=0mm|HoleType=Round|Shape=RoundedRectangle|*
%AMROUNDEDRECTD70*
21,1,1.6000,0.8000,0,0,180.0*
21,1,0.8000,1.6000,0,0,180.0*
1,1,0.8000,-0.4000,0.4000*
1,1,0.8000,0.4000,0.4000*
1,1,0.8000,0.4000,-0.4000*
1,1,0.8000,-0.4000,-0.4000*
%
%ADD70ROUNDEDRECTD70*%
%ADD71C,1.5500*%
%ADD72R,1.5500X1.5500*%
D42*
X488950Y1145820D02*
D03*
X683260Y1181810D02*
D03*
X887730Y979640D02*
D03*
X300990Y904170D02*
D03*
D43*
X488950Y1180820D02*
D03*
X683260Y1146810D02*
D03*
X887730Y954640D02*
D03*
Y929640D02*
D03*
Y904640D02*
D03*
X300990Y929170D02*
D03*
Y954170D02*
D03*
Y979170D02*
D03*
X604990Y1370330D02*
D03*
X579990D02*
D03*
X554990D02*
D03*
D44*
X289560Y513080D02*
D03*
D45*
Y538480D02*
D03*
Y563880D02*
D03*
Y589280D02*
D03*
D46*
X529990Y1370330D02*
D03*
D47*
X471170Y745760D02*
D03*
X529590Y739540D02*
D03*
X528320Y656990D02*
D03*
D48*
X471170Y696960D02*
D03*
X529590Y789540D02*
D03*
X528320Y706990D02*
D03*
D49*
X741680Y798430D02*
D03*
D50*
Y748430D02*
D03*
D52*
X255270Y243840D02*
D03*
X941070Y247650D02*
D03*
X939800Y1412240D02*
D03*
X259080D02*
D03*
D53*
X829310Y510540D02*
D03*
Y535940D02*
D03*
X477520Y890270D02*
D03*
Y915670D02*
D03*
D54*
X857530Y303070D02*
D03*
X295910Y300990D02*
D03*
D55*
X892530Y303070D02*
D03*
X877570Y1303730D02*
D03*
X309880Y1261110D02*
D03*
X330910Y300990D02*
D03*
D56*
X567690Y951230D02*
D03*
D57*
Y925830D02*
D03*
Y900430D02*
D03*
Y875030D02*
D03*
Y849630D02*
D03*
Y824230D02*
D03*
Y798830D02*
D03*
Y773430D02*
D03*
Y748030D02*
D03*
Y722630D02*
D03*
Y697230D02*
D03*
Y671830D02*
D03*
Y646430D02*
D03*
Y621030D02*
D03*
X643890Y951230D02*
D03*
Y925830D02*
D03*
Y900430D02*
D03*
Y875030D02*
D03*
Y849630D02*
D03*
Y824230D02*
D03*
Y798830D02*
D03*
Y773430D02*
D03*
Y748030D02*
D03*
Y722630D02*
D03*
Y697230D02*
D03*
Y671830D02*
D03*
Y646430D02*
D03*
Y621030D02*
D03*
D58*
X756920Y1170940D02*
D03*
X345440Y1162000D02*
D03*
D59*
X833120Y1170940D02*
D03*
X421640Y1162000D02*
D03*
D60*
X518910Y1007470D02*
D03*
D61*
X453910D02*
D03*
X518910Y1052470D02*
D03*
X453910D02*
D03*
D62*
X896620Y506730D02*
D03*
D63*
Y532130D02*
D03*
Y557530D02*
D03*
Y582930D02*
D03*
Y608330D02*
D03*
Y633730D02*
D03*
D64*
X877570Y1268730D02*
D03*
X309880Y1296110D02*
D03*
D65*
X605790Y1188720D02*
D03*
Y1163320D02*
D03*
X897890Y1355090D02*
D03*
X689610Y290830D02*
D03*
X740410D02*
D03*
X715010D02*
D03*
X664210D02*
D03*
X638810D02*
D03*
X492760Y292100D02*
D03*
X441960D02*
D03*
X467360D02*
D03*
X518160D02*
D03*
X543560D02*
D03*
D66*
X605790Y1137920D02*
D03*
D67*
X897890Y1380490D02*
D03*
D68*
X524510Y849080D02*
D03*
D69*
Y939080D02*
D03*
D70*
X765810Y290830D02*
D03*
X416560Y292100D02*
D03*
D71*
X871220Y375920D02*
D03*
Y401320D02*
D03*
Y426720D02*
D03*
Y452120D02*
D03*
X896620Y375920D02*
D03*
Y401320D02*
D03*
Y426720D02*
D03*
X288290Y405130D02*
D03*
Y430530D02*
D03*
Y455930D02*
D03*
X313690Y379730D02*
D03*
Y405130D02*
D03*
Y430530D02*
D03*
Y455930D02*
D03*
D72*
X896620Y452120D02*
D03*
X288290Y379730D02*
D03*
M02*
