G04*
G04 #@! TF.GenerationSoftware,Altium Limited,Altium Designer,23.1.1 (15)*
G04*
G04 Layer_Color=16711935*
%FSLAX44Y44*%
%MOMM*%
G71*
G04*
G04 #@! TF.SameCoordinates,903AE006-7F47-48BF-86F7-E966476BCC6D*
G04*
G04*
G04 #@! TF.FilePolarity,Positive*
G04*
G01*
G75*
%ADD10C,0.2000*%
%ADD13C,0.1270*%
%ADD14C,0.4000*%
%ADD15C,0.1500*%
%ADD16C,0.1000*%
D10*
X738020Y1170940D02*
G03*
X738020Y1170940I-1000J0D01*
G01*
X897620Y484980D02*
G03*
X897620Y484980I-1000J0D01*
G01*
X326540Y1162000D02*
G03*
X326540Y1162000I-1000J0D01*
G01*
X813410Y497840D02*
Y548640D01*
X845210D01*
Y497840D02*
Y548640D01*
X813410Y497840D02*
X845210D01*
X461620Y877570D02*
Y928370D01*
X493420D01*
Y877570D02*
Y928370D01*
X461620Y877570D02*
X493420D01*
X853730Y880140D02*
X911230D01*
Y1004140D01*
X853730D02*
X911230D01*
X853730Y880140D02*
Y1004140D01*
X276360Y497880D02*
Y604480D01*
X302760D01*
Y497880D02*
Y604480D01*
X276360Y497880D02*
X302760D01*
X277490Y1003670D02*
X334990D01*
X277490Y879670D02*
Y1003670D01*
Y879670D02*
X334990D01*
Y1003670D01*
X505490Y1336330D02*
X629490D01*
X505490D02*
Y1393830D01*
X629490D01*
Y1336330D02*
Y1393830D01*
X517090Y784540D02*
X542090D01*
X517090Y744540D02*
Y784540D01*
Y744540D02*
X542090D01*
Y784540D01*
X515820Y701990D02*
X540820D01*
X515820Y661990D02*
Y701990D01*
Y661990D02*
X540820D01*
Y701990D01*
D13*
X503910Y1029970D02*
G03*
X503910Y1029970I-17500J0D01*
G01*
X745520Y1190740D02*
X844520D01*
Y1151140D02*
Y1190740D01*
X745520Y1151140D02*
X844520D01*
X745520D02*
Y1190740D01*
X516360Y1000020D02*
Y1059920D01*
X456460D02*
X516360D01*
X456460Y1000020D02*
Y1059920D01*
Y1000020D02*
X516360D01*
X334040Y1181800D02*
X433040D01*
Y1142200D02*
Y1181800D01*
X334040Y1142200D02*
X433040D01*
X334040D02*
Y1181800D01*
D14*
X520910Y1007470D02*
G03*
X520910Y1007470I-2000J0D01*
G01*
D15*
X794180Y773430D02*
G03*
X794180Y773430I-52500J0D01*
G01*
D16*
X583790Y953630D02*
G03*
X583790Y953630I-5000J0D01*
G01*
X528950Y1163320D02*
G03*
X528950Y1163320I-40000J0D01*
G01*
X723260Y1164310D02*
G03*
X723260Y1164310I-40000J0D01*
G01*
X447919Y672861D02*
G03*
X456169Y664611I8250J0D01*
G01*
X486169Y664611D02*
G03*
X494419Y672861I0J8250D01*
G01*
Y769861D02*
G03*
X486169Y778111I-8250J0D01*
G01*
X456169Y778111D02*
G03*
X447919Y769861I0J-8250D01*
G01*
X452669Y675611D02*
G03*
X457169Y671111I4500J0D01*
G01*
X485169D02*
G03*
X489669Y675611I0J4500D01*
G01*
Y767111D02*
G03*
X485169Y771611I-4500J0D01*
G01*
X457169D02*
G03*
X452669Y767111I0J-4500D01*
G01*
X840030Y279870D02*
Y332270D01*
Y337270D02*
Y343070D01*
X836030Y331520D02*
Y338020D01*
X840030Y337270D01*
X836030Y331520D02*
X840030Y332270D01*
Y269070D02*
Y274870D01*
X836030Y280620D02*
X840030Y279870D01*
X836030Y274120D02*
X840030Y274870D01*
X836030Y274120D02*
Y280620D01*
X910030Y269070D02*
Y343070D01*
X840030Y269070D02*
X910030D01*
X840030Y343070D02*
X910030D01*
X569790Y609630D02*
Y962630D01*
X641790Y609630D02*
Y962630D01*
X569790D02*
X641790D01*
X569790Y609630D02*
X641790D01*
X884570Y491480D02*
X908670D01*
X884570D02*
Y648980D01*
X908670D01*
Y491480D02*
Y648980D01*
Y491480D02*
Y648980D01*
X848370Y1251230D02*
X900770D01*
X837570D02*
X843370D01*
X842620Y1247230D02*
X849120D01*
X842620D02*
X843370Y1251230D01*
X848370D02*
X849120Y1247230D01*
X905770Y1251230D02*
X911570D01*
X900020Y1247230D02*
X900770Y1251230D01*
X905770D02*
X906520Y1247230D01*
X900020D02*
X906520D01*
X837570Y1321230D02*
X911570D01*
Y1251230D02*
Y1321230D01*
X837570Y1251230D02*
Y1321230D01*
X592690Y1112320D02*
Y1214320D01*
X579190D02*
X626190D01*
X579190Y1112320D02*
X626190D01*
X579190D02*
Y1214320D01*
X626190Y1112320D02*
Y1214320D01*
X349880Y1243610D02*
Y1313610D01*
X275880Y1243610D02*
Y1313610D01*
Y1243610D02*
X349880D01*
X280930Y1317610D02*
X287430D01*
X280930D02*
X281680Y1313610D01*
X286680D02*
X287430Y1317610D01*
X275880Y1313610D02*
X281680D01*
X338330Y1317610D02*
X339080Y1313610D01*
X344080D02*
X344830Y1317610D01*
X338330D02*
X344830D01*
X344080Y1313610D02*
X349880D01*
X286680D02*
X339080D01*
X494419Y672861D02*
Y769861D01*
X447919Y672861D02*
Y769861D01*
X489669Y675610D02*
Y767110D01*
X452669Y675610D02*
Y767110D01*
X457169Y771611D02*
X485169D01*
X456169Y778111D02*
X486169D01*
X457169Y671111D02*
X485169D01*
X456169Y664611D02*
X486169D01*
X512510Y862580D02*
X536510D01*
X512510D02*
Y925580D01*
X536510Y862580D02*
Y925580D01*
X512510D02*
X536510D01*
X859170Y467370D02*
X908670D01*
X859170Y360670D02*
Y467370D01*
Y360670D02*
X908670D01*
Y467370D01*
X276240Y364480D02*
Y471180D01*
X325740D01*
Y364480D02*
Y471180D01*
X276240Y364480D02*
X325740D01*
X278410Y277790D02*
Y330190D01*
Y335190D02*
Y340990D01*
X274410Y329440D02*
Y335940D01*
X278410Y335190D01*
X274410Y329440D02*
X278410Y330190D01*
Y266990D02*
Y272790D01*
X274410Y278540D02*
X278410Y277790D01*
X274410Y272040D02*
X278410Y272790D01*
X274410Y272040D02*
Y278540D01*
X348410Y266990D02*
Y340990D01*
X278410Y266990D02*
X348410D01*
X278410Y340990D02*
X348410D01*
M02*
