G04*
G04 #@! TF.GenerationSoftware,Altium Limited,Altium Designer,23.1.1 (15)*
G04*
G04 Layer_Color=32768*
%FSLAX44Y44*%
%MOMM*%
G71*
G04*
G04 #@! TF.SameCoordinates,903AE006-7F47-48BF-86F7-E966476BCC6D*
G04*
G04*
G04 #@! TF.FilePolarity,Positive*
G04*
G01*
G75*
%ADD10C,0.2000*%
%ADD16C,0.1000*%
%ADD74C,0.0500*%
D10*
X741680Y719930D02*
G03*
X741680Y826930I0J53500D01*
G01*
D02*
G03*
X741680Y719930I0J-53500D01*
G01*
X852730Y879140D02*
X912230D01*
Y1005140D01*
X852730D02*
X912230D01*
X852730Y879140D02*
Y1005140D01*
X275360Y496880D02*
Y605480D01*
X303760D01*
Y496880D02*
Y605480D01*
X275360Y496880D02*
X303760D01*
X276490Y1004670D02*
X335990D01*
X276490Y878670D02*
Y1004670D01*
Y878670D02*
X335990D01*
Y1004670D01*
X504490Y1335330D02*
X630490D01*
X504490D02*
Y1394830D01*
X630490D01*
Y1335330D02*
Y1394830D01*
X516090Y796540D02*
X543090D01*
X516090Y732540D02*
Y796540D01*
Y732540D02*
X543090D01*
Y796540D01*
X514820Y713990D02*
X541820D01*
X514820Y649990D02*
Y713990D01*
Y649990D02*
X541820D01*
Y713990D01*
D16*
X600790Y786130D02*
X610790D01*
X605790Y781130D02*
Y791130D01*
Y1158320D02*
Y1168320D01*
X600790Y1163320D02*
X610790D01*
X483950D02*
X493950D01*
X488950Y1158320D02*
Y1168320D01*
X683260Y1159310D02*
Y1169310D01*
X678260Y1164310D02*
X688260D01*
X471170Y716360D02*
Y726360D01*
X466170Y721360D02*
X476170D01*
X519510Y894080D02*
X529510D01*
X524510Y889080D02*
Y899080D01*
D74*
X529950Y1163320D02*
G03*
X529950Y1163320I-41000J0D01*
G01*
X724260Y1164310D02*
G03*
X724260Y1164310I-41000J0D01*
G01*
X487161Y663797D02*
G03*
X495420Y672860I-500J8750D01*
G01*
X446920Y673047D02*
G03*
X455170Y663797I8750J-500D01*
G01*
Y779110D02*
G03*
X446920Y769860I500J-8750D01*
G01*
X495420Y770047D02*
G03*
X487161Y779110I-8759J313D01*
G01*
X834030Y345070D02*
X912030D01*
Y267070D02*
Y345070D01*
X834030Y267070D02*
X912030D01*
X834030D02*
Y345070D01*
X743020Y1193240D02*
X847020D01*
X743020Y1148640D02*
Y1193240D01*
Y1148640D02*
X847020D01*
Y1193240D01*
X443910Y997470D02*
X528910D01*
X443910D02*
Y1062420D01*
X528910D01*
Y997470D02*
Y1062420D01*
X882070Y488980D02*
X911170D01*
X882070D02*
Y651480D01*
X911170D01*
Y488980D02*
Y651480D01*
X331540Y1184300D02*
X435540D01*
X331540Y1139700D02*
Y1184300D01*
Y1139700D02*
X435540D01*
Y1184300D01*
X835570Y1245230D02*
Y1323230D01*
X913570D01*
Y1245230D02*
Y1323230D01*
X835570Y1245230D02*
X913570D01*
X576690Y1216820D02*
X628690D01*
X576690Y1109820D02*
X628690D01*
X576690D02*
Y1216820D01*
X628690Y1109820D02*
Y1216820D01*
X882440Y1396690D02*
X913340D01*
X882440Y1338890D02*
Y1396690D01*
Y1338890D02*
X913340D01*
Y1396690D01*
X273880Y1319610D02*
X351880D01*
X273880Y1241610D02*
Y1319610D01*
Y1241610D02*
X351880D01*
Y1319610D01*
X455170Y663797D02*
X487161D01*
X455170Y779110D02*
X487161D01*
X495420Y672860D02*
Y769860D01*
X446920Y672860D02*
Y769860D01*
X511510Y946830D02*
X537510D01*
X511510Y841330D02*
Y946830D01*
X537510Y841330D02*
Y946830D01*
X511510Y841330D02*
X537510D01*
X782010Y275380D02*
Y306280D01*
X622610D02*
X782010D01*
X622610Y275380D02*
Y306280D01*
Y275380D02*
X782010D01*
X400360Y276650D02*
Y307550D01*
Y276650D02*
X559760D01*
Y307550D01*
X400360D02*
X559760D01*
X856920Y469620D02*
X910920D01*
X856920Y358420D02*
Y469620D01*
Y358420D02*
X910920D01*
Y469620D01*
X273990Y362230D02*
Y473430D01*
X327990D01*
Y362230D02*
Y473430D01*
X273990Y362230D02*
X327990D01*
X272410Y342990D02*
X350410D01*
Y264990D02*
Y342990D01*
X272410Y264990D02*
X350410D01*
X272410D02*
Y342990D01*
M02*
