G04*
G04 #@! TF.GenerationSoftware,Altium Limited,Altium Designer,24.1.2 (44)*
G04*
G04 Layer_Color=8388736*
%FSLAX44Y44*%
%MOMM*%
G71*
G04*
G04 #@! TF.SameCoordinates,39C99C51-67B2-4763-82E7-AA0615DA2B54*
G04*
G04*
G04 #@! TF.FilePolarity,Negative*
G04*
G01*
G75*
%ADD26R,10.5732X8.7632*%
%ADD27R,1.2232X3.9432*%
%ADD28R,1.2132X1.5832*%
%ADD29R,1.3532X1.6032*%
%ADD30R,1.0032X1.0032*%
%ADD31R,1.5032X1.3032*%
%ADD32R,1.0032X1.0032*%
%ADD33O,0.8032X2.1532*%
%ADD34O,2.1532X0.8032*%
%ADD35R,1.5832X1.2132*%
G04:AMPARAMS|DCode=36|XSize=2.1532mm|YSize=2.1532mm|CornerRadius=0.5891mm|HoleSize=0mm|Usage=FLASHONLY|Rotation=90.000|XOffset=0mm|YOffset=0mm|HoleType=Round|Shape=RoundedRectangle|*
%AMROUNDEDRECTD36*
21,1,2.1532,0.9750,0,0,90.0*
21,1,0.9750,2.1532,0,0,90.0*
1,1,1.1782,0.4875,0.4875*
1,1,1.1782,0.4875,-0.4875*
1,1,1.1782,-0.4875,-0.4875*
1,1,1.1782,-0.4875,0.4875*
%
%ADD36ROUNDEDRECTD36*%
%ADD37C,2.1532*%
%ADD38R,1.4000X1.4000*%
%ADD39C,1.4000*%
%ADD40R,1.5700X1.5700*%
%ADD41C,1.5700*%
%ADD42C,1.7532*%
%ADD43R,1.7532X1.7532*%
%ADD44C,1.5732*%
%ADD45R,1.5732X1.5732*%
%ADD46C,1.7012*%
%ADD47R,1.7012X1.7012*%
%ADD48C,1.7832*%
%ADD49R,1.7832X1.7832*%
%ADD50C,1.8032*%
G04:AMPARAMS|DCode=51|XSize=1.8032mm|YSize=1.8032mm|CornerRadius=0.5016mm|HoleSize=0mm|Usage=FLASHONLY|Rotation=270.000|XOffset=0mm|YOffset=0mm|HoleType=Round|Shape=RoundedRectangle|*
%AMROUNDEDRECTD51*
21,1,1.8032,0.8000,0,0,270.0*
21,1,0.8000,1.8032,0,0,270.0*
1,1,1.0032,-0.4000,-0.4000*
1,1,1.0032,-0.4000,0.4000*
1,1,1.0032,0.4000,0.4000*
1,1,1.0032,0.4000,-0.4000*
%
%ADD51ROUNDEDRECTD51*%
%ADD52R,1.4000X1.4000*%
%ADD53C,3.7032*%
%ADD54R,1.2032X1.2032*%
%ADD55C,1.2032*%
%ADD56R,1.7832X1.7832*%
%ADD57C,1.4732*%
D26*
X567690Y869320D02*
D03*
D27*
X542290Y973420D02*
D03*
X593090D02*
D03*
D28*
X469950Y951230D02*
D03*
X488950D02*
D03*
D29*
X634620Y670130D02*
D03*
Y648130D02*
D03*
X650620D02*
D03*
Y670130D02*
D03*
D30*
X652780Y976630D02*
D03*
X637780D02*
D03*
X490100Y974344D02*
D03*
X475100D02*
D03*
D31*
X478790Y916010D02*
D03*
Y895010D02*
D03*
D32*
X567690Y725050D02*
D03*
Y710050D02*
D03*
X585470Y709930D02*
D03*
Y724930D02*
D03*
X608330Y666990D02*
D03*
Y681990D02*
D03*
Y636270D02*
D03*
Y651270D02*
D03*
X466090Y631310D02*
D03*
Y646310D02*
D03*
X608330Y603490D02*
D03*
Y618490D02*
D03*
X466090Y614560D02*
D03*
Y599560D02*
D03*
D33*
X565890Y586470D02*
D03*
X557890D02*
D03*
X549890D02*
D03*
X541890D02*
D03*
X533890D02*
D03*
X525890D02*
D03*
X517890D02*
D03*
X509890D02*
D03*
Y671470D02*
D03*
X517890D02*
D03*
X525890D02*
D03*
X533890D02*
D03*
X541890D02*
D03*
X549890D02*
D03*
X557890D02*
D03*
X565890D02*
D03*
D34*
X495390Y600970D02*
D03*
Y608970D02*
D03*
Y616970D02*
D03*
Y624970D02*
D03*
Y632970D02*
D03*
Y640970D02*
D03*
Y648970D02*
D03*
Y656970D02*
D03*
X580390D02*
D03*
Y648970D02*
D03*
Y640970D02*
D03*
Y632970D02*
D03*
Y624970D02*
D03*
Y616970D02*
D03*
Y608970D02*
D03*
Y600970D02*
D03*
D35*
X491490Y513690D02*
D03*
Y494690D02*
D03*
D36*
X829310Y672630D02*
D03*
X302220Y828910D02*
D03*
Y717150D02*
D03*
X811530Y967740D02*
D03*
X303530Y999960D02*
D03*
X829310Y783590D02*
D03*
D37*
Y722630D02*
D03*
X302220Y778910D02*
D03*
Y667150D02*
D03*
X811530Y1017740D02*
D03*
X303530Y949960D02*
D03*
X829310Y833590D02*
D03*
D38*
X603920Y415120D02*
D03*
D39*
X578920D02*
D03*
X553920D02*
D03*
X528920D02*
D03*
X728980Y662070D02*
D03*
Y687070D02*
D03*
Y712070D02*
D03*
X398780Y686600D02*
D03*
Y711600D02*
D03*
Y736600D02*
D03*
D40*
X552450Y266700D02*
D03*
D41*
X527050D02*
D03*
X501650D02*
D03*
X476250D02*
D03*
D42*
X281940Y304800D02*
D03*
Y330200D02*
D03*
Y355600D02*
D03*
X307340Y279400D02*
D03*
Y304800D02*
D03*
Y330200D02*
D03*
Y355600D02*
D03*
X850900Y358140D02*
D03*
Y332740D02*
D03*
Y307340D02*
D03*
Y281940D02*
D03*
X825500Y358140D02*
D03*
Y332740D02*
D03*
Y307340D02*
D03*
D43*
X281940Y279400D02*
D03*
X825500Y281940D02*
D03*
D44*
X494030Y1023620D02*
D03*
X519430D02*
D03*
X544830D02*
D03*
X570230D02*
D03*
X595630D02*
D03*
D45*
X621030D02*
D03*
D46*
X583680Y496930D02*
D03*
X518680D02*
D03*
X583680Y541930D02*
D03*
D47*
X518680D02*
D03*
D48*
X781050Y895350D02*
D03*
X350520Y896620D02*
D03*
X392430Y1012190D02*
D03*
D49*
X857250Y895350D02*
D03*
X274320Y896620D02*
D03*
D50*
X285750Y490220D02*
D03*
Y515620D02*
D03*
Y566420D02*
D03*
Y591820D02*
D03*
Y541020D02*
D03*
X855980Y490220D02*
D03*
Y515620D02*
D03*
Y566420D02*
D03*
Y591820D02*
D03*
Y541020D02*
D03*
D51*
X285750Y617220D02*
D03*
X855980D02*
D03*
D52*
X728980Y737070D02*
D03*
X398780Y661600D02*
D03*
D53*
X883590Y246446D02*
D03*
X251460Y242570D02*
D03*
X884860Y1073216D02*
D03*
X252730Y1073150D02*
D03*
D54*
X538480Y736600D02*
D03*
D55*
Y723900D02*
D03*
X525780Y736600D02*
D03*
Y723900D02*
D03*
X513080Y736600D02*
D03*
Y723900D02*
D03*
X397811Y424180D02*
D03*
X502629Y999781D02*
D03*
X365713Y641350D02*
D03*
X379937Y421640D02*
D03*
X369570Y402590D02*
D03*
X307340Y445770D02*
D03*
X492760Y229870D02*
D03*
X793750Y523240D02*
D03*
X614680Y508000D02*
D03*
X548640Y634492D02*
D03*
X512064Y604774D02*
D03*
X533890Y650222D02*
D03*
X542575Y490443D02*
D03*
X612996Y565360D02*
D03*
X455168Y623570D02*
D03*
X463042Y494690D02*
D03*
X547624Y688340D02*
D03*
X578151Y667004D02*
D03*
X650620Y633476D02*
D03*
X590550Y695960D02*
D03*
X559054Y687070D02*
D03*
X547624Y712724D02*
D03*
D56*
X392430Y935990D02*
D03*
D57*
X500000Y880000D02*
D03*
Y920001D02*
D03*
Y840000D02*
D03*
X640000Y960001D02*
D03*
Y880000D02*
D03*
Y840000D02*
D03*
X620000Y960001D02*
D03*
X630000Y940001D02*
D03*
Y860000D02*
D03*
Y820000D02*
D03*
X620000Y800000D02*
D03*
X610000Y940001D02*
D03*
X600000Y800000D02*
D03*
X590000Y940001D02*
D03*
X580000Y800000D02*
D03*
X570000Y940001D02*
D03*
X560000Y800000D02*
D03*
X550000Y940001D02*
D03*
X540000Y800000D02*
D03*
X530000Y940001D02*
D03*
X520000Y800000D02*
D03*
X500000D02*
D03*
M02*
