M48
;Layer_Color=9474304
;FILE_FORMAT=4:4
METRIC,LZ
;TYPE=PLATED
T01F00S00C0.5000
T02F00S00C0.7112
T03F00S00C0.7500
T04F00S00C0.9000
T05F00S00C0.9900
T06F00S00C1.0000
T07F00S00C1.0200
T08F00S00C1.0400
T09F00S00C1.1000
T10F00S00C1.3000
T11F00S00C3.2000
%
T01
X0049276Y0022987
X0079375Y0052324
X0061468Y00508
X00612996Y0056536
X0065062Y00633476
X0054864Y00634492
X0053389Y00650222
X00547624Y0068834
X00559054Y0068707
X00547624Y00712724
X0059055Y0069596
X00578151Y00667004
X00512064Y00604774
X00455168Y0062357
X00463042Y0049469
X00542575Y00490443
X00397811Y0042418
X00379937Y0042164
X0036957Y0040259
X0030734Y0044577
X00365713Y0064135
X00502629Y00999781
T02
X005Y008
X0052
X0054
X0056
X0058
X006
X0062
X0063Y0082
X0064Y0084
X0063Y0086
X0064Y0088
X0063Y00940001
X0061
X0059
X0057
X0055
X0053
X005Y00920001
Y0088
Y0084
X0062Y00960001
X0064
T03
X0051308Y007239
X0052578
X0053848
Y007366
X0052578
X0051308
T04
X0052892Y0041512
X0055392
X0057892
X0060392
X0072898Y0066207
Y0068707
Y0071207
Y0073707
X0039878Y007366
Y007116
Y006866
Y006616
T05
X0051868Y0049693
Y0054193
X0058368
Y0049693
T06
X0027432Y0089662
X0035052
X0039243Y0093599
Y0101219
X0078105Y0089535
X0085725
T07
X0047625Y002667
X0050165
X0052705
X0055245
X0054483Y0102362
X0051943
X0049403
X0057023
X0059563
X0062103
T08
X0028194Y002794
Y003048
Y003302
Y003556
X0030734
Y003302
Y003048
Y002794
X008255Y0028194
X008509
Y0030734
Y0033274
Y0035814
X008255
Y0033274
Y0030734
T09
X0085598Y0049022
Y0051562
Y0054102
Y0056642
Y0059182
Y0061722
X0028575
Y0059182
Y0056642
Y0054102
Y0051562
Y0049022
T10
X0082931Y0067263
Y0072263
Y0078359
X0030222Y0077891
Y0071715
Y0066715
Y0082891
X0030353Y0094996
Y0099996
X0081153Y0101774
Y0096774
X0082931Y0083359
T11
X0025146Y0024257
X0088359Y00246446
X0025273Y0107315
X0088486Y01073216
M30
