G04*
G04 #@! TF.GenerationSoftware,Altium Limited,Altium Designer,24.1.2 (44)*
G04*
G04 Layer_Physical_Order=1*
G04 Layer_Color=255*
%FSLAX44Y44*%
%MOMM*%
G71*
G04*
G04 #@! TF.SameCoordinates,39C99C51-67B2-4763-82E7-AA0615DA2B54*
G04*
G04*
G04 #@! TF.FilePolarity,Positive*
G04*
G01*
G75*
%ADD17R,1.0200X3.7400*%
%ADD18R,1.0100X1.3800*%
%ADD19R,1.1500X1.4000*%
%ADD20R,0.8000X0.8000*%
%ADD21R,1.3000X1.1000*%
%ADD22R,0.8000X0.8000*%
%ADD23O,0.6000X1.9500*%
%ADD24O,1.9500X0.6000*%
%ADD25R,1.3800X1.0100*%
%ADD38R,1.4000X1.4000*%
%ADD39C,1.4000*%
%ADD40R,1.5700X1.5700*%
%ADD41C,1.5700*%
%ADD52R,1.4000X1.4000*%
%ADD58R,10.3700X8.5600*%
%ADD59C,3.0000*%
%ADD60C,0.3810*%
%ADD61C,4.0000*%
G04:AMPARAMS|DCode=62|XSize=1.95mm|YSize=1.95mm|CornerRadius=0.4875mm|HoleSize=0mm|Usage=FLASHONLY|Rotation=90.000|XOffset=0mm|YOffset=0mm|HoleType=Round|Shape=RoundedRectangle|*
%AMROUNDEDRECTD62*
21,1,1.9500,0.9750,0,0,90.0*
21,1,0.9750,1.9500,0,0,90.0*
1,1,0.9750,0.4875,0.4875*
1,1,0.9750,0.4875,-0.4875*
1,1,0.9750,-0.4875,-0.4875*
1,1,0.9750,-0.4875,0.4875*
%
%ADD62ROUNDEDRECTD62*%
%ADD63C,1.9500*%
%ADD64C,1.5500*%
%ADD65R,1.5500X1.5500*%
%ADD66C,1.3700*%
%ADD67R,1.3700X1.3700*%
%ADD68C,1.4980*%
%ADD69R,1.4980X1.4980*%
%ADD70C,1.5800*%
%ADD71R,1.5800X1.5800*%
%ADD72C,1.6000*%
G04:AMPARAMS|DCode=73|XSize=1.6mm|YSize=1.6mm|CornerRadius=0.4mm|HoleSize=0mm|Usage=FLASHONLY|Rotation=270.000|XOffset=0mm|YOffset=0mm|HoleType=Round|Shape=RoundedRectangle|*
%AMROUNDEDRECTD73*
21,1,1.6000,0.8000,0,0,270.0*
21,1,0.8000,1.6000,0,0,270.0*
1,1,0.8000,-0.4000,-0.4000*
1,1,0.8000,-0.4000,0.4000*
1,1,0.8000,0.4000,0.4000*
1,1,0.8000,0.4000,-0.4000*
%
%ADD73ROUNDEDRECTD73*%
%ADD74C,3.5000*%
%ADD75R,1.0000X1.0000*%
%ADD76C,1.0000*%
%ADD77R,1.5800X1.5800*%
%ADD78C,1.2700*%
G36*
X880179Y1092200D02*
X879163Y1091998D01*
X875608Y1090526D01*
X872409Y1088388D01*
X869688Y1085667D01*
X867551Y1082468D01*
X866078Y1078914D01*
X865328Y1075140D01*
Y1071293D01*
X866078Y1067519D01*
X867551Y1063965D01*
X869688Y1060766D01*
X872409Y1058045D01*
X875608Y1055908D01*
X879163Y1054435D01*
X882936Y1053685D01*
X886784D01*
X890557Y1054435D01*
X894112Y1055908D01*
X897311Y1058045D01*
X899160Y1059894D01*
X900430Y1059368D01*
Y1055908D01*
Y1037245D01*
Y1027329D01*
Y1015682D01*
Y1002495D01*
Y991346D01*
Y979344D01*
Y972615D01*
Y960162D01*
Y951644D01*
Y943211D01*
Y930910D01*
Y915732D01*
X900430Y902090D01*
Y894042D01*
Y887402D01*
Y874907D01*
Y845372D01*
Y835141D01*
Y816778D01*
Y798392D01*
Y792205D01*
Y763255D01*
Y761311D01*
Y734060D01*
X832175D01*
X830861Y734412D01*
X827759D01*
X826445Y734060D01*
X777240D01*
X757124Y753537D01*
Y1022350D01*
X756819Y1023886D01*
X755948Y1025188D01*
X736898Y1044238D01*
X735596Y1045109D01*
X734060Y1045414D01*
X613410D01*
X611874Y1045109D01*
X610572Y1044238D01*
X598405Y1032072D01*
X596799Y1032502D01*
X594461D01*
X592202Y1031897D01*
X590176Y1030727D01*
X588523Y1029074D01*
X587353Y1027048D01*
X586748Y1024789D01*
Y1022451D01*
X587353Y1020192D01*
X588523Y1018166D01*
X590176Y1016513D01*
X592202Y1015343D01*
X594461Y1014738D01*
X596799D01*
X599058Y1015343D01*
X601084Y1016513D01*
X602737Y1018166D01*
X603907Y1020192D01*
X604512Y1022451D01*
Y1024789D01*
X604082Y1026395D01*
X615073Y1037386D01*
X732397D01*
X749096Y1020687D01*
Y762938D01*
X747926Y762443D01*
X747087Y763255D01*
X719528Y789940D01*
X639916D01*
X639430Y791113D01*
X665778Y817462D01*
X666649Y818764D01*
X666954Y820300D01*
Y999490D01*
X666649Y1001026D01*
X665778Y1002328D01*
X641648Y1026458D01*
X640346Y1027329D01*
X638810Y1027634D01*
X629912D01*
Y1032502D01*
X612148D01*
Y1014738D01*
X629912D01*
Y1019606D01*
X637147D01*
X658926Y997827D01*
Y983170D01*
X655320D01*
Y976630D01*
X652780D01*
Y974090D01*
X646240D01*
Y970090D01*
X648766D01*
Y932573D01*
X623253Y907060D01*
X622080Y907546D01*
Y914660D01*
X570230D01*
Y871860D01*
X622080D01*
Y897139D01*
X623023D01*
X624560Y897445D01*
X625862Y898315D01*
X655618Y928072D01*
X656489Y929374D01*
X656794Y930910D01*
Y970090D01*
X658926D01*
Y821963D01*
X626903Y789940D01*
X431104D01*
X384914Y745193D01*
X383744Y745689D01*
Y770497D01*
X451148Y837902D01*
X452019Y839204D01*
X452324Y840740D01*
Y1021957D01*
X467753Y1037386D01*
X480885D01*
X481411Y1036116D01*
X472262Y1026966D01*
X471391Y1025664D01*
X471086Y1024128D01*
Y980376D01*
X469068D01*
Y968312D01*
X471086D01*
Y960162D01*
X462868D01*
Y942298D01*
X474460D01*
X474946Y941125D01*
X465284Y931462D01*
X464413Y930160D01*
X464108Y928624D01*
Y898144D01*
X464413Y896608D01*
X465284Y895306D01*
X468417Y892172D01*
X469720Y891302D01*
X470258Y891195D01*
Y887478D01*
X487322D01*
Y900679D01*
X488592Y901635D01*
X489290Y901496D01*
X513300D01*
Y871860D01*
X565150D01*
Y914660D01*
X513300D01*
Y909524D01*
X490953D01*
X487830Y912647D01*
Y913470D01*
X478790D01*
Y916010D01*
X476250D01*
Y924050D01*
X472136D01*
Y926961D01*
X487473Y942298D01*
X496032D01*
X496366Y941166D01*
Y939263D01*
X481330Y924227D01*
Y918550D01*
X487830D01*
Y919373D01*
X503218Y934761D01*
X504089Y936064D01*
X504394Y937600D01*
Y959238D01*
X504089Y960774D01*
X503218Y962076D01*
X496640Y968655D01*
Y971804D01*
X490100D01*
X483560D01*
Y967804D01*
X486510D01*
X487262Y966680D01*
X492606Y961335D01*
X492120Y960162D01*
X481868D01*
Y948047D01*
X478205Y944384D01*
X477032Y944870D01*
Y954485D01*
X477938Y955392D01*
X478809Y956694D01*
X479114Y958230D01*
Y968312D01*
X481132D01*
Y980376D01*
X479114D01*
Y1022465D01*
X483991Y1027343D01*
X485130Y1026685D01*
X484989Y1026160D01*
X494030D01*
X503071D01*
X502780Y1027244D01*
X501696Y1029123D01*
X502159Y1030393D01*
X511982D01*
X512468Y1029219D01*
X512323Y1029074D01*
X511153Y1027048D01*
X510548Y1024789D01*
Y1022451D01*
X511153Y1020192D01*
X512323Y1018166D01*
X513976Y1016513D01*
X516002Y1015343D01*
X518261Y1014738D01*
X520599D01*
X522858Y1015343D01*
X524884Y1016513D01*
X526537Y1018166D01*
X527707Y1020192D01*
X528312Y1022451D01*
Y1024789D01*
X527707Y1027048D01*
X526537Y1029074D01*
X526392Y1029219D01*
X526878Y1030393D01*
X532380D01*
X536378Y1026395D01*
X535948Y1024789D01*
Y1022451D01*
X536553Y1020192D01*
X537723Y1018166D01*
X538276Y1017613D01*
Y997204D01*
Y994152D01*
X535158D01*
Y954797D01*
X524080D01*
X506934Y971943D01*
Y994146D01*
X506947Y994154D01*
X508256Y995463D01*
X509182Y997066D01*
X509661Y998855D01*
Y1000706D01*
X509182Y1002495D01*
X508256Y1004098D01*
X506947Y1005408D01*
X505344Y1006333D01*
X503555Y1006813D01*
X501704D01*
X499915Y1006333D01*
X498312Y1005408D01*
X497002Y1004098D01*
X496077Y1002495D01*
X495597Y1000706D01*
Y998855D01*
X496077Y997066D01*
X497002Y995463D01*
X498312Y994154D01*
X498906Y993811D01*
Y970280D01*
X499211Y968744D01*
X500082Y967442D01*
X519579Y947944D01*
X520881Y947074D01*
X522417Y946769D01*
X583753D01*
X585289Y947074D01*
X586591Y947944D01*
X591335Y952688D01*
X600222D01*
Y969406D01*
X634570D01*
X636106Y969711D01*
X637408Y970582D01*
X637425Y970598D01*
X643812D01*
Y982662D01*
X631748D01*
Y977434D01*
X600222D01*
Y994152D01*
X585958D01*
Y958665D01*
X582090Y954797D01*
X549422D01*
Y994152D01*
X546304D01*
Y995541D01*
X547668Y996906D01*
X548539Y998208D01*
X548844Y999744D01*
Y1015682D01*
X550284Y1016513D01*
X551937Y1018166D01*
X553107Y1020192D01*
X553712Y1022451D01*
Y1024789D01*
X553107Y1027048D01*
X551937Y1029074D01*
X550284Y1030727D01*
X548258Y1031897D01*
X545999Y1032502D01*
X543661D01*
X542055Y1032072D01*
X538011Y1036116D01*
X538537Y1037386D01*
X558407D01*
X564065Y1031728D01*
X564776Y1030727D01*
X563123Y1029074D01*
X561953Y1027048D01*
X561348Y1024789D01*
Y1022451D01*
X561953Y1020192D01*
X563123Y1018166D01*
X564776Y1016513D01*
X566802Y1015343D01*
X569061Y1014738D01*
X571399D01*
X573658Y1015343D01*
X575684Y1016513D01*
X577337Y1018166D01*
X578507Y1020192D01*
X579112Y1022451D01*
Y1024789D01*
X578507Y1027048D01*
X577337Y1029074D01*
X575684Y1030727D01*
X573658Y1031897D01*
X572979Y1032079D01*
Y1032505D01*
X572674Y1034041D01*
X571804Y1035343D01*
X562908Y1044238D01*
X561606Y1045109D01*
X560070Y1045414D01*
X466090D01*
X464554Y1045109D01*
X463252Y1044238D01*
X445472Y1026458D01*
X444601Y1025156D01*
X444296Y1023620D01*
Y842403D01*
X376892Y774998D01*
X376021Y773696D01*
X375716Y772160D01*
Y736283D01*
X372110Y732790D01*
X344374D01*
Y790770D01*
X344069Y792306D01*
X343198Y793608D01*
X314364Y822443D01*
X314574Y824035D01*
Y826370D01*
X304760D01*
Y816556D01*
X307095D01*
X308687Y816766D01*
X336346Y789107D01*
Y732790D01*
X309091D01*
X308769Y732962D01*
X305559Y733936D01*
X302220Y734265D01*
X298881Y733936D01*
X295671Y732962D01*
X295349Y732790D01*
X232410D01*
Y1068678D01*
X233680Y1068803D01*
X233949Y1067453D01*
X235421Y1063898D01*
X237558Y1060699D01*
X240279Y1057979D01*
X243478Y1055841D01*
X247033Y1054369D01*
X250806Y1053618D01*
X254654D01*
X258427Y1054369D01*
X261982Y1055841D01*
X265181Y1057979D01*
X267901Y1060699D01*
X270039Y1063898D01*
X271511Y1067453D01*
X272262Y1071226D01*
Y1075074D01*
X271511Y1078847D01*
X270039Y1082402D01*
X267901Y1085601D01*
X265181Y1088322D01*
X261982Y1090459D01*
X258427Y1091931D01*
X257077Y1092200D01*
X257202Y1093470D01*
X880053D01*
X880179Y1092200D01*
D02*
G37*
%LPC*%
G36*
X814070Y1029783D02*
Y1020280D01*
X823573D01*
X822982Y1022484D01*
X821364Y1025286D01*
X819076Y1027574D01*
X816274Y1029192D01*
X814070Y1029783D01*
D02*
G37*
G36*
X808990D02*
X806786Y1029192D01*
X803984Y1027574D01*
X801696Y1025286D01*
X800078Y1022484D01*
X799487Y1020280D01*
X808990D01*
Y1029783D01*
D02*
G37*
G36*
X823573Y1015200D02*
X814070D01*
Y1005697D01*
X816274Y1006287D01*
X819076Y1007906D01*
X821364Y1010194D01*
X822982Y1012996D01*
X823573Y1015200D01*
D02*
G37*
G36*
X808990D02*
X799487D01*
X800078Y1012996D01*
X801696Y1010194D01*
X803984Y1007906D01*
X806786Y1006287D01*
X808990Y1005697D01*
Y1015200D01*
D02*
G37*
G36*
X308405Y1012314D02*
X306070D01*
Y1002500D01*
X315884D01*
Y1004835D01*
X315629Y1006771D01*
X314882Y1008575D01*
X313693Y1010124D01*
X312145Y1011312D01*
X310341Y1012059D01*
X308405Y1012314D01*
D02*
G37*
G36*
X300990D02*
X298655D01*
X296719Y1012059D01*
X294916Y1011312D01*
X293367Y1010124D01*
X292178Y1008575D01*
X291431Y1006771D01*
X291176Y1004835D01*
Y1002500D01*
X300990D01*
Y1012314D01*
D02*
G37*
G36*
X393738Y1022122D02*
X391122D01*
X388596Y1021445D01*
X386332Y1020138D01*
X384482Y1018288D01*
X383175Y1016024D01*
X382498Y1013498D01*
Y1010882D01*
X383175Y1008356D01*
X384482Y1006092D01*
X386332Y1004242D01*
X388596Y1002935D01*
X391122Y1002258D01*
X393738D01*
X396264Y1002935D01*
X398528Y1004242D01*
X400378Y1006092D01*
X401685Y1008356D01*
X402362Y1010882D01*
Y1013498D01*
X401685Y1016024D01*
X400378Y1018288D01*
X398528Y1020138D01*
X396264Y1021445D01*
X393738Y1022122D01*
D02*
G37*
G36*
X315884Y997420D02*
X306070D01*
Y987606D01*
X308405D01*
X310341Y987861D01*
X312145Y988608D01*
X313693Y989797D01*
X314882Y991346D01*
X315629Y993150D01*
X315884Y995085D01*
Y997420D01*
D02*
G37*
G36*
X300990D02*
X291176D01*
Y995085D01*
X291431Y993150D01*
X292178Y991346D01*
X293367Y989797D01*
X294916Y988608D01*
X296719Y987861D01*
X298655Y987606D01*
X300990D01*
Y997420D01*
D02*
G37*
G36*
X650240Y983170D02*
X646240D01*
Y979170D01*
X650240D01*
Y983170D01*
D02*
G37*
G36*
X503071Y1021080D02*
X494030D01*
X484989D01*
X485280Y1019996D01*
X486320Y1018193D01*
X486086Y1017014D01*
Y980884D01*
X483560D01*
Y976884D01*
X490100D01*
X496640D01*
Y980884D01*
X494114D01*
Y1014230D01*
X495266D01*
X497654Y1014870D01*
X499796Y1016106D01*
X501544Y1017854D01*
X502780Y1019996D01*
X503071Y1021080D01*
D02*
G37*
G36*
X816405Y979582D02*
X806655D01*
X804852Y979344D01*
X803172Y978648D01*
X801729Y977541D01*
X800622Y976098D01*
X799926Y974418D01*
X799688Y972615D01*
Y962865D01*
X799926Y961062D01*
X800622Y959382D01*
X801729Y957939D01*
X803172Y956832D01*
X804852Y956136D01*
X806655Y955898D01*
X816405D01*
X818208Y956136D01*
X819888Y956832D01*
X821331Y957939D01*
X822438Y959382D01*
X823134Y961062D01*
X823372Y962865D01*
Y972615D01*
X823134Y974418D01*
X822438Y976098D01*
X821331Y977541D01*
X819888Y978648D01*
X818208Y979344D01*
X816405Y979582D01*
D02*
G37*
G36*
X867182Y905282D02*
X847318D01*
Y885418D01*
X867182D01*
Y905282D01*
D02*
G37*
G36*
X782358D02*
X779742D01*
X777216Y904605D01*
X774952Y903298D01*
X773102Y901448D01*
X771795Y899184D01*
X771118Y896658D01*
Y894042D01*
X771795Y891516D01*
X773102Y889252D01*
X774952Y887402D01*
X777216Y886095D01*
X779742Y885418D01*
X782358D01*
X784884Y886095D01*
X787148Y887402D01*
X788998Y889252D01*
X790305Y891516D01*
X790982Y894042D01*
Y896658D01*
X790305Y899184D01*
X788998Y901448D01*
X787148Y903298D01*
X784884Y904605D01*
X782358Y905282D01*
D02*
G37*
G36*
X303530Y972099D02*
X299211Y971673D01*
X295058Y970413D01*
X291231Y968368D01*
X287876Y965614D01*
X285122Y962260D01*
X283077Y958432D01*
X281817Y954279D01*
X281391Y949960D01*
Y943610D01*
X281817Y939291D01*
X283077Y935138D01*
X285122Y931311D01*
X287876Y927956D01*
X334866Y880966D01*
X338220Y878212D01*
X342048Y876167D01*
X346201Y874907D01*
X350520Y874481D01*
X367729D01*
X372048Y874907D01*
X376201Y876167D01*
X380028Y878212D01*
X383383Y880966D01*
X406814Y904397D01*
X409568Y907752D01*
X411613Y911579D01*
X412873Y915732D01*
X413299Y920051D01*
Y928887D01*
X414143Y931671D01*
X414569Y935990D01*
X414143Y940309D01*
X412883Y944462D01*
X410838Y948289D01*
X408084Y951644D01*
X404729Y954398D01*
X400902Y956443D01*
X396749Y957703D01*
X392430Y958129D01*
X388111Y957703D01*
X383958Y956443D01*
X380131Y954398D01*
X376776Y951644D01*
X375506Y950374D01*
X372752Y947020D01*
X370707Y943192D01*
X369447Y939039D01*
X369021Y934720D01*
Y929222D01*
X359124Y919324D01*
X325360Y953088D01*
X325243Y954279D01*
X323983Y958432D01*
X321938Y962260D01*
X319184Y965614D01*
X315830Y968368D01*
X312002Y970413D01*
X307849Y971673D01*
X303530Y972099D01*
D02*
G37*
G36*
X307095Y841264D02*
X304760D01*
Y831450D01*
X314574D01*
Y833785D01*
X314319Y835721D01*
X313572Y837525D01*
X312383Y839074D01*
X310834Y840262D01*
X309031Y841009D01*
X307095Y841264D01*
D02*
G37*
G36*
X622080Y866780D02*
X570230D01*
Y823980D01*
X622080D01*
Y866780D01*
D02*
G37*
G36*
X565150D02*
X513300D01*
Y823980D01*
X565150D01*
Y866780D01*
D02*
G37*
G36*
X830861Y845372D02*
X827759D01*
X824762Y844569D01*
X822076Y843018D01*
X819882Y840824D01*
X818331Y838138D01*
X817528Y835141D01*
Y832039D01*
X818331Y829042D01*
X819882Y826356D01*
X822076Y824162D01*
X824762Y822611D01*
X827759Y821808D01*
X830861D01*
X833858Y822611D01*
X836544Y824162D01*
X838738Y826356D01*
X840289Y829042D01*
X841092Y832039D01*
Y835141D01*
X840289Y838138D01*
X838738Y840824D01*
X836544Y843018D01*
X833858Y844569D01*
X830861Y845372D01*
D02*
G37*
G36*
X834185Y795944D02*
X831850D01*
Y786130D01*
X841664D01*
Y788465D01*
X841409Y790401D01*
X840662Y792205D01*
X839473Y793753D01*
X837924Y794942D01*
X836121Y795689D01*
X834185Y795944D01*
D02*
G37*
G36*
X826770D02*
X824435D01*
X822499Y795689D01*
X820695Y794942D01*
X819147Y793753D01*
X817958Y792205D01*
X817211Y790401D01*
X816956Y788465D01*
Y786130D01*
X826770D01*
Y795944D01*
D02*
G37*
G36*
X841664Y781050D02*
X831850D01*
Y771236D01*
X834185D01*
X836121Y771491D01*
X837924Y772238D01*
X839473Y773427D01*
X840662Y774976D01*
X841409Y776779D01*
X841664Y778715D01*
Y781050D01*
D02*
G37*
G36*
X826770D02*
X816956D01*
Y778715D01*
X817211Y776779D01*
X817958Y774976D01*
X819147Y773427D01*
X820695Y772238D01*
X822499Y771491D01*
X824435Y771236D01*
X826770D01*
Y781050D01*
D02*
G37*
G36*
X274320Y918759D02*
X270001Y918333D01*
X265848Y917073D01*
X262020Y915028D01*
X258666Y912274D01*
X254783Y908392D01*
X252030Y905037D01*
X249984Y901210D01*
X248725Y897057D01*
X248299Y892738D01*
Y810692D01*
X248725Y806373D01*
X249984Y802220D01*
X252030Y798392D01*
X254783Y795038D01*
X286565Y763255D01*
X289920Y760502D01*
X293748Y758456D01*
X297901Y757197D01*
X302220Y756771D01*
X306539Y757197D01*
X310692Y758456D01*
X314519Y760502D01*
X317874Y763255D01*
X320627Y766610D01*
X322673Y770438D01*
X323933Y774591D01*
X324358Y778910D01*
X323933Y783229D01*
X322673Y787382D01*
X320627Y791209D01*
X317874Y794564D01*
X297016Y815423D01*
X297678Y816556D01*
X299680D01*
Y828910D01*
Y841264D01*
X297345D01*
X295409Y841009D01*
X293846Y840362D01*
X292576Y840893D01*
Y884136D01*
X292728Y884321D01*
X294773Y888148D01*
X296033Y892301D01*
X296459Y896620D01*
X296033Y900939D01*
X294773Y905092D01*
X292728Y908920D01*
X289974Y912274D01*
X286619Y915028D01*
X282792Y917073D01*
X278639Y918333D01*
X274320Y918759D01*
D02*
G37*
%LPD*%
D17*
X542290Y973420D02*
D03*
X593090D02*
D03*
D18*
X469950Y951230D02*
D03*
X488950D02*
D03*
D19*
X634620Y670130D02*
D03*
Y648130D02*
D03*
X650620D02*
D03*
Y670130D02*
D03*
D20*
X652780Y976630D02*
D03*
X637780D02*
D03*
X490100Y974344D02*
D03*
X475100D02*
D03*
D21*
X478790Y916010D02*
D03*
Y895010D02*
D03*
D22*
X567690Y725050D02*
D03*
Y710050D02*
D03*
X585470Y709930D02*
D03*
Y724930D02*
D03*
X608330Y666990D02*
D03*
Y681990D02*
D03*
Y636270D02*
D03*
Y651270D02*
D03*
X466090Y631310D02*
D03*
Y646310D02*
D03*
X608330Y603490D02*
D03*
Y618490D02*
D03*
X466090Y614560D02*
D03*
Y599560D02*
D03*
D23*
X565890Y586470D02*
D03*
X557890D02*
D03*
X549890D02*
D03*
X541890D02*
D03*
X533890D02*
D03*
X525890D02*
D03*
X517890D02*
D03*
X509890D02*
D03*
Y671470D02*
D03*
X517890D02*
D03*
X525890D02*
D03*
X533890D02*
D03*
X541890D02*
D03*
X549890D02*
D03*
X557890D02*
D03*
X565890D02*
D03*
D24*
X495390Y600970D02*
D03*
Y608970D02*
D03*
Y616970D02*
D03*
Y624970D02*
D03*
Y632970D02*
D03*
Y640970D02*
D03*
Y648970D02*
D03*
Y656970D02*
D03*
X580390D02*
D03*
Y648970D02*
D03*
Y640970D02*
D03*
Y632970D02*
D03*
Y624970D02*
D03*
Y616970D02*
D03*
Y608970D02*
D03*
Y600970D02*
D03*
D25*
X491490Y513690D02*
D03*
Y494690D02*
D03*
D38*
X603920Y415120D02*
D03*
D39*
X578920D02*
D03*
X553920D02*
D03*
X528920D02*
D03*
X728980Y662070D02*
D03*
Y687070D02*
D03*
Y712070D02*
D03*
X398780Y686600D02*
D03*
Y711600D02*
D03*
Y736600D02*
D03*
D40*
X552450Y266700D02*
D03*
D41*
X527050D02*
D03*
X501650D02*
D03*
X476250D02*
D03*
D52*
X728980Y737070D02*
D03*
X398780Y661600D02*
D03*
D58*
X567690Y869320D02*
D03*
D59*
X829310Y672630D02*
X855980Y645960D01*
Y617220D02*
Y645960D01*
X275438Y627532D02*
Y690368D01*
Y627532D02*
X285750Y617220D01*
X275438Y690368D02*
X302220Y717150D01*
D60*
X568965Y1024885D02*
X570230Y1023620D01*
X568965Y1024885D02*
Y1032505D01*
X466090Y1041400D02*
X560070D01*
X568965Y1032505D01*
X448310Y1023620D02*
X466090Y1041400D01*
X734060D02*
X753110Y1022350D01*
X595630Y1023620D02*
X613410Y1041400D01*
X734060D01*
X379730Y772160D02*
X448310Y840740D01*
Y1023620D01*
X379730Y670478D02*
X379937Y670271D01*
Y421640D02*
Y670271D01*
X379730Y670478D02*
Y772160D01*
X387843Y697537D02*
Y741130D01*
X399823Y753110D01*
X432054D01*
X387843Y697537D02*
X398780Y686600D01*
X414020Y586740D02*
X484886D01*
X355600Y317500D02*
X408987Y370887D01*
X290830Y566420D02*
Y568202D01*
X495554Y597408D02*
Y600970D01*
X388874Y661600D02*
X398780D01*
X397811Y424180D02*
Y570531D01*
X388874Y373634D02*
Y661600D01*
X422402Y577342D02*
X509890D01*
X408987Y563927D02*
X422402Y577342D01*
X397811Y570531D02*
X414020Y586740D01*
X408987Y370887D02*
Y563927D01*
X370840Y355600D02*
X388874Y373634D01*
X495554Y597408D02*
Y600970D01*
X475100Y958230D02*
Y974344D01*
Y1024128D01*
X485379Y1034407D01*
X534043D01*
X542290Y997204D02*
Y1026160D01*
X502920Y970280D02*
Y999490D01*
X534043Y1034407D02*
X542290Y1026160D01*
X502629Y999781D02*
X502920Y999490D01*
X365713Y639675D02*
Y641350D01*
X368808Y403352D02*
X369570Y402590D01*
X365713Y639675D02*
X368808Y636580D01*
Y403352D02*
Y636580D01*
X495300Y656970D02*
Y737362D01*
X470790Y656970D02*
X495390D01*
X578920Y405838D02*
Y415535D01*
X565890Y667004D02*
X578151D01*
X596640Y600970D02*
X624724Y572886D01*
X625817Y571793D01*
X272288Y355600D02*
Y523748D01*
X463296Y648970D02*
X470417D01*
X542290Y997204D02*
Y1026160D01*
X463296Y648970D02*
X470417D01*
X272288Y355600D02*
Y523748D01*
X489290Y905510D02*
X531500D01*
X326390Y372364D02*
Y530860D01*
X307340Y356867D02*
X310893D01*
Y355600D02*
X370840D01*
X422402Y577342D02*
X509890D01*
X565890Y667004D02*
X578151D01*
X490100Y974344D02*
Y1017014D01*
Y969518D02*
Y974344D01*
X302220Y828910D02*
X340360Y790770D01*
X307340Y445770D02*
Y494030D01*
X285750Y515620D02*
X307340Y494030D01*
X492760Y229870D02*
X534670D01*
X552450Y247650D01*
X491490Y361950D02*
X552450Y300990D01*
Y266700D02*
Y300990D01*
X491490Y361950D02*
Y494690D01*
X552450Y247650D02*
Y266700D01*
X492373Y493807D02*
X501873D01*
X491490Y494690D02*
X492373Y493807D01*
X463042Y494690D02*
X491490D01*
X443230Y323208D02*
Y541020D01*
X499738Y266700D02*
X501650D01*
X443230Y323208D02*
X499738Y266700D01*
X431323Y311627D02*
X476250Y266700D01*
X542290Y997204D02*
X544830Y999744D01*
Y1023620D01*
X542290Y973420D02*
Y997204D01*
X634570Y973420D02*
X637780Y976630D01*
X593090Y973420D02*
X634570D01*
X293162Y568752D02*
X340360Y615950D01*
Y790770D01*
X285750Y566420D02*
X290830D01*
Y568202D02*
X291381Y568752D01*
X293162D01*
X778256Y529336D02*
X815340Y566420D01*
X778256Y462788D02*
Y529336D01*
X815340Y566420D02*
X855980D01*
X793750Y510540D02*
Y523240D01*
Y510540D02*
X862838Y441452D01*
Y293878D02*
Y441452D01*
X778256Y462788D02*
X850900Y390144D01*
X583753Y950783D02*
X589595Y956625D01*
X522417Y950783D02*
X583753D01*
X593090Y959820D02*
Y973420D01*
X589895Y956625D02*
X593090Y959820D01*
X589595Y956625D02*
X589895D01*
X502920Y970280D02*
X522417Y950783D01*
X585817Y433223D02*
Y496367D01*
Y433223D02*
X603920Y415120D01*
X585817Y496367D02*
X586380Y496930D01*
X632820D01*
X583680D02*
X586380D01*
X572008Y422447D02*
Y558800D01*
Y422447D02*
X578920Y415535D01*
X466090Y646310D02*
X468185Y648405D01*
X460636Y646310D02*
X466090D01*
X460636D02*
X463296Y648970D01*
X455168Y640842D02*
X460636Y646310D01*
X483385Y920605D02*
X500380Y937600D01*
X490100Y969518D02*
X500380Y959238D01*
Y937600D02*
Y959238D01*
X479790Y916010D02*
X483385Y919605D01*
Y920605D01*
X478790Y916010D02*
X479790D01*
X469950Y953080D02*
X475100Y958230D01*
X469950Y951230D02*
Y953080D01*
X454660Y673100D02*
Y730504D01*
Y673100D02*
X470790Y656970D01*
X432054Y753110D02*
X454660Y730504D01*
X443350Y668916D02*
X463296Y648970D01*
X443350Y668916D02*
Y715906D01*
X535225Y625555D02*
X559562D01*
X511810Y648970D02*
X535225Y625555D01*
X495390Y648970D02*
X511810D01*
X470417D02*
X495390D01*
X518030Y624970D02*
X526030Y616970D01*
X580390D01*
X495390Y624970D02*
X518030D01*
X565150Y307340D02*
X825500D01*
X542798Y329692D02*
X565150Y307340D01*
X542798Y329692D02*
Y490220D01*
X850900Y281940D02*
X862838Y293878D01*
X862330Y270002D02*
X868680Y276352D01*
X864108Y541020D02*
X868680Y536448D01*
Y276352D02*
Y536448D01*
X855980Y541020D02*
X864108D01*
X845312Y270002D02*
X862330D01*
X838962Y276352D02*
X845312Y270002D01*
X455930Y553720D02*
X527050D01*
X533890Y560560D01*
X443230Y541020D02*
X455930Y553720D01*
X293162Y564088D02*
X326390Y530860D01*
X310893Y356867D02*
X326390Y372364D01*
X625839Y570246D02*
X626532Y521458D01*
X580390Y600970D02*
X596640D01*
X625817Y571793D02*
X625839Y570246D01*
X614680Y508000D02*
X626532Y519852D01*
Y521458D01*
X548640Y634492D02*
Y652018D01*
X495390Y608970D02*
X507868D01*
X541890Y658768D02*
X548640Y652018D01*
X533890Y650222D02*
Y671470D01*
X507868Y608970D02*
X512064Y604774D01*
X541890Y658768D02*
Y671470D01*
X542575Y490443D02*
X542798Y490220D01*
X565890Y573180D02*
X573710Y565360D01*
X612996D01*
X285750Y537722D02*
Y541020D01*
X272288Y523748D02*
X281767Y533227D01*
Y533738D01*
X285750Y537722D01*
X290830Y564638D02*
X291381Y564088D01*
X293162D01*
X455168Y623570D02*
Y640842D01*
X272288Y355600D02*
X281940D01*
X838962Y276352D02*
Y353568D01*
X834390Y358140D02*
X838962Y353568D01*
X825500Y358140D02*
X834390D01*
X565890Y573180D02*
Y586470D01*
X549890Y671470D02*
Y686074D01*
X547624Y688340D02*
X549890Y686074D01*
X850900Y358140D02*
Y390144D01*
X580390Y624970D02*
X601850D01*
X563927D02*
X580390D01*
X650620Y668880D02*
Y670130D01*
Y667002D02*
Y668880D01*
X608330Y681990D02*
X615442D01*
X600710D02*
X608330D01*
X654465Y665035D02*
X660708D01*
X650620Y668880D02*
X654465Y665035D01*
X662940Y603490D02*
Y662803D01*
X660708Y665035D02*
X662940Y662803D01*
X744220Y616190D02*
Y721830D01*
X728980Y737070D02*
X744220Y721830D01*
X731520Y603490D02*
X744220Y616190D01*
X711962Y399542D02*
X753110Y440690D01*
Y1022350D01*
X490100Y1017014D02*
X494030Y1020944D01*
Y1023620D01*
X585216Y399542D02*
X711962D01*
X307340Y355600D02*
Y356867D01*
X468185Y648405D02*
X469852D01*
X470417Y648970D01*
X536702Y701802D02*
X583033D01*
X525890Y690990D02*
X536702Y701802D01*
X525890Y671470D02*
Y690990D01*
X597450Y662220D02*
Y678730D01*
X600710Y681990D01*
X580390Y656970D02*
X592200D01*
X597450Y662220D01*
X580530Y632830D02*
X604890D01*
X608330Y636270D01*
X614172D01*
X595269Y616551D02*
X608330Y603490D01*
X580809Y616551D02*
X595269D01*
X601850Y624970D02*
X608330Y618490D01*
X580390Y616970D02*
X580809Y616551D01*
X634620Y649380D02*
Y651002D01*
X630775Y653225D02*
X634620Y649380D01*
X622095Y653225D02*
X630775D01*
X634620Y648130D02*
Y649380D01*
X608330Y666990D02*
X622095Y653225D01*
X533890Y560560D02*
Y586470D01*
X431323Y311627D02*
Y550703D01*
X286512Y317500D02*
X355600D01*
X283587Y306447D02*
Y314575D01*
X281940Y304800D02*
X283587Y306447D01*
Y314575D02*
X286512Y317500D01*
X307340Y304800D02*
X365760D01*
X420370Y359410D02*
Y557530D01*
X365760Y304800D02*
X420370Y359410D01*
Y557530D02*
X431800Y568960D01*
X509890Y577342D02*
Y586470D01*
X495390Y600970D02*
X495554D01*
X484886Y586740D02*
X495554Y597408D01*
X410076Y614560D02*
X466090D01*
X431800Y568960D02*
X515659D01*
X431323Y550703D02*
X441960Y561340D01*
X528920Y415120D02*
Y466760D01*
X501873Y493807D02*
X528920Y466760D01*
X606785Y649175D02*
X608330Y651270D01*
X580390Y648970D02*
X606287D01*
X606785Y649175D01*
X634620Y651002D02*
X650620Y667002D01*
X485805Y946235D02*
X488950Y949380D01*
Y951230D01*
X468122Y928624D02*
X485733Y946235D01*
X485805D01*
X468122Y898144D02*
Y928624D01*
X478790Y916010D02*
X489290Y905510D01*
X531500D02*
X567690Y869320D01*
X599523Y901153D01*
X623023D02*
X652780Y930910D01*
X599523Y901153D02*
X623023D01*
X652780Y930910D02*
Y976630D01*
X662940Y820300D02*
Y999490D01*
X567690Y725050D02*
X662940Y820300D01*
X638810Y1023620D02*
X662940Y999490D01*
X593344Y709930D02*
X620484Y737070D01*
X728980D01*
X585470Y709930D02*
X593344D01*
X621030Y1023620D02*
X638810D01*
X565890Y667004D02*
Y671470D01*
X612697Y649175D02*
X624840Y637032D01*
X608330Y651270D02*
X610425Y649175D01*
X612697D01*
X614412Y603490D02*
X662940D01*
X632820Y496930D02*
X662940Y527050D01*
Y603490D01*
X731520D01*
X650620Y633476D02*
Y639444D01*
X441960Y561340D02*
X520573D01*
X525890Y566657D01*
X517890Y571192D02*
Y586470D01*
X515659Y568960D02*
X517890Y571192D01*
X583033Y701802D02*
X588875Y695960D01*
X590550D01*
X563927Y624970D02*
Y629920D01*
X559562Y625555D02*
X563927Y629920D01*
Y635937D01*
X608330Y603490D02*
X614412D01*
X483616Y632970D02*
X495390D01*
X479552Y628906D02*
X483616Y632970D01*
X479552Y607688D02*
Y628906D01*
X471424Y599560D02*
X479552Y607688D01*
X466090Y599560D02*
X471424D01*
X563927Y635937D02*
X568960Y640970D01*
X580390D01*
X398780Y736600D02*
X422656D01*
X443350Y715906D01*
X549890Y502632D02*
Y586470D01*
Y502632D02*
X553920Y498602D01*
Y415120D02*
Y498602D01*
X650620Y639444D02*
Y648130D01*
X648208Y637032D02*
X650620Y639444D01*
X624840Y637032D02*
X648208D01*
X509890Y671470D02*
Y699421D01*
X525780Y715311D01*
Y723900D01*
X398780Y625856D02*
X410076Y614560D01*
X398780Y625856D02*
Y661600D01*
X466090Y614560D02*
Y631310D01*
X614412Y603490D02*
X616458Y605536D01*
Y633984D01*
X614172Y636270D02*
X616458Y633984D01*
X557890Y685906D02*
X559054Y687070D01*
X557890Y671470D02*
Y685906D01*
X535178Y712724D02*
X547624D01*
X517890Y695436D02*
X535178Y712724D01*
X517890Y671470D02*
Y695436D01*
X471256Y895010D02*
X478790D01*
X468122Y898144D02*
X471256Y895010D01*
X541890Y552704D02*
Y586470D01*
X531116Y541930D02*
X541890Y552704D01*
X518680Y541930D02*
X531116D01*
X518680Y528320D02*
Y541930D01*
X504050Y513690D02*
X518680Y528320D01*
X491490Y513690D02*
X504050D01*
X538480Y723900D02*
X549148D01*
X562998Y710050D01*
X567690D01*
X581152Y724930D02*
X585470D01*
X567690Y711468D02*
X581152Y724930D01*
X567690Y710050D02*
Y711468D01*
X525890Y566657D02*
Y586470D01*
X578920Y405838D02*
X585216Y399542D01*
X557890Y572918D02*
X572008Y558800D01*
X557890Y572918D02*
Y586470D01*
X634620Y670130D02*
Y699008D01*
X647682Y712070D01*
X728980D01*
X627302Y670130D02*
X634620D01*
X615442Y681990D02*
X627302Y670130D01*
X525780Y736600D02*
Y743712D01*
X523494Y745998D02*
X525780Y743712D01*
X503936Y745998D02*
X523494D01*
X495300Y737362D02*
X503936Y745998D01*
D61*
X391160Y920051D02*
Y934720D01*
X392430Y935990D01*
X367729Y896620D02*
X391160Y920051D01*
X350520Y896620D02*
X367729D01*
X303530Y943610D02*
Y949960D01*
Y943610D02*
X350520Y896620D01*
X270438Y892738D02*
X274320Y896620D01*
X270438Y810692D02*
X302220Y778910D01*
X270438Y810692D02*
Y892738D01*
D62*
X829310Y672630D02*
D03*
X302220Y828910D02*
D03*
Y717150D02*
D03*
X811530Y967740D02*
D03*
X303530Y999960D02*
D03*
X829310Y783590D02*
D03*
D63*
Y722630D02*
D03*
X302220Y778910D02*
D03*
Y667150D02*
D03*
X811530Y1017740D02*
D03*
X303530Y949960D02*
D03*
X829310Y833590D02*
D03*
D64*
X281940Y304800D02*
D03*
Y330200D02*
D03*
Y355600D02*
D03*
X307340Y279400D02*
D03*
Y304800D02*
D03*
Y330200D02*
D03*
Y355600D02*
D03*
X850900Y358140D02*
D03*
Y332740D02*
D03*
Y307340D02*
D03*
Y281940D02*
D03*
X825500Y358140D02*
D03*
Y332740D02*
D03*
Y307340D02*
D03*
D65*
X281940Y279400D02*
D03*
X825500Y281940D02*
D03*
D66*
X494030Y1023620D02*
D03*
X519430D02*
D03*
X544830D02*
D03*
X570230D02*
D03*
X595630D02*
D03*
D67*
X621030D02*
D03*
D68*
X583680Y496930D02*
D03*
X518680D02*
D03*
X583680Y541930D02*
D03*
D69*
X518680D02*
D03*
D70*
X781050Y895350D02*
D03*
X350520Y896620D02*
D03*
X392430Y1012190D02*
D03*
D71*
X857250Y895350D02*
D03*
X274320Y896620D02*
D03*
D72*
X285750Y490220D02*
D03*
Y515620D02*
D03*
Y566420D02*
D03*
Y591820D02*
D03*
Y541020D02*
D03*
X855980Y490220D02*
D03*
Y515620D02*
D03*
Y566420D02*
D03*
Y591820D02*
D03*
Y541020D02*
D03*
D73*
X285750Y617220D02*
D03*
X855980D02*
D03*
D74*
X883590Y246446D02*
D03*
X251460Y242570D02*
D03*
X884860Y1073216D02*
D03*
X252730Y1073150D02*
D03*
D75*
X538480Y736600D02*
D03*
D76*
Y723900D02*
D03*
X525780Y736600D02*
D03*
Y723900D02*
D03*
X513080Y736600D02*
D03*
Y723900D02*
D03*
X397811Y424180D02*
D03*
X502629Y999781D02*
D03*
X365713Y641350D02*
D03*
X379937Y421640D02*
D03*
X369570Y402590D02*
D03*
X307340Y445770D02*
D03*
X492760Y229870D02*
D03*
X793750Y523240D02*
D03*
X614680Y508000D02*
D03*
X548640Y634492D02*
D03*
X512064Y604774D02*
D03*
X533890Y650222D02*
D03*
X542575Y490443D02*
D03*
X612996Y565360D02*
D03*
X455168Y623570D02*
D03*
X463042Y494690D02*
D03*
X547624Y688340D02*
D03*
X578151Y667004D02*
D03*
X650620Y633476D02*
D03*
X590550Y695960D02*
D03*
X559054Y687070D02*
D03*
X547624Y712724D02*
D03*
D77*
X392430Y935990D02*
D03*
D78*
X500000Y880000D02*
D03*
Y920001D02*
D03*
Y840000D02*
D03*
X640000Y960001D02*
D03*
Y880000D02*
D03*
Y840000D02*
D03*
X620000Y960001D02*
D03*
X630000Y940001D02*
D03*
Y860000D02*
D03*
Y820000D02*
D03*
X620000Y800000D02*
D03*
X610000Y940001D02*
D03*
X600000Y800000D02*
D03*
X590000Y940001D02*
D03*
X580000Y800000D02*
D03*
X570000Y940001D02*
D03*
X560000Y800000D02*
D03*
X550000Y940001D02*
D03*
X540000Y800000D02*
D03*
X530000Y940001D02*
D03*
X520000Y800000D02*
D03*
X500000D02*
D03*
M02*
